SplineFontDB: 2.0
FontName: DejaVuSerifCondensed-Bold
FullName: DejaVu Serif Condensed Bold
FamilyName: DejaVu Serif Condensed
Weight: Bold
Copyright: Copyright (c) 2003 by Bitstream, Inc. All Rights Reserved.\nDejaVu changes are in public domain\n
Version: 2.23
ItalicAngle: 0
UnderlinePosition: -85
UnderlineWidth: 90
Ascent: 1556
Descent: 492
Order2: 1
NeedsXUIDChange: 1
FSType: 0
OS2Version: 0
OS2_WeightWidthSlopeOnly: 0
OS2_UseTypoMetrics: 0
PfmFamily: 17
TTFWeight: 700
TTFWidth: 4
LineGap: 0
VLineGap: 0
Panose: 2 6 8 6 5 6 5 2 2 4
OS2TypoAscent: 1556
OS2TypoAOffset: 0
OS2TypoDescent: -492
OS2TypoDOffset: 0
OS2TypoLinegap: 410
OS2WinAscent: 1923
OS2WinAOffset: 0
OS2WinDescent: 483
OS2WinDOffset: 0
HheadAscent: 1923
HheadAOffset: 0
HheadDescent: -483
HheadDOffset: 0
OS2Vendor: 'PfEd'
Lookup: 6 0 0 "'ccmp' Contextual Chaining Substitution"  {"'ccmp' Contextual Chaining Substitution"  } ['ccmp' ('DFLT' <'dflt' > 'cyrl' <'MKD ' 'SRB ' 'dflt' > 'grek' <'dflt' > 'latn' <'AZE ' 'CRT ' 'GAG ' 'ISM ' 'KAZ ' 'KRK ' 'KSM ' 'LSM ' 'NSM ' 'SKS ' 'SSM ' 'TAT ' 'TRK ' 'dflt' > ) ]
Lookup: 1 0 0 "'locl' Localized Forms in Cyrillic - Serbian"  {"'locl' Localized Forms in Cyrillic - Serbian"  } ['locl' ('cyrl' <'MKD ' 'SRB ' > ) ]
Lookup: 1 0 0 "'locl' Localized Forms in Latin - Sami"  {"'locl' Localized Forms in Latin - Sami"  } ['locl' ('latn' <'ISM ' 'KSM ' 'LSM ' 'NSM ' 'SKS ' 'SSM ' > ) ]
Lookup: 4 0 1 "'liga' Standard Ligatures"  {"'liga' Standard Ligatures"  } ['liga' ('DFLT' <'dflt' > 'cyrl' <'MKD ' 'SRB ' 'dflt' > 'grek' <'dflt' > 'latn' <'AZE ' 'CRT ' 'GAG ' 'ISM ' 'KAZ ' 'KRK ' 'KSM ' 'LSM ' 'NSM ' 'SKS ' 'SSM ' 'TAT ' 'TRK ' 'dflt' > ) ]
Lookup: 4 0 1 "'liga' Standard Ligatures - Without dotless i"  {"'liga' Standard Ligatures - Without dotless i"  } ['liga' ('DFLT' <'dflt' > 'cyrl' <'MKD ' 'SRB ' 'dflt' > 'grek' <'dflt' > 'latn' <'ISM ' 'KSM ' 'LSM ' 'NSM ' 'SKS ' 'SSM ' 'dflt' > ) ]

StartChar: .notdef
Encoding: 0 -1 0
AltUni2: 000000.ffffffff.0
Width: 1106
Flags: W
Fore
91.7998 -362 m 1,0,-1
 91.7998 1444 l 1,1,-1
 1013.4 1444 l 1,2,-1
 1013.4 -362 l 1,3,-1
 91.7998 -362 l 1,0,-1
195.3 -248 m 1,4,-1
 910.8 -248 l 1,5,-1
 910.8 1329 l 1,6,-1
 195.3 1329 l 1,7,-1
 195.3 -248 l 1,4,-1
EndSplineSet
EndChar
StartChar: exclam
Encoding: 33 33 33
Width: 809
Flags: W
Fore
234 162 m 0,0,1
 234 240 234 240 283.95 296 c 128,-1,2
 333.9 352 333.9 352 404.1 352 c 0,3,4
 474.3 352 474.3 352 524.7 296 c 128,-1,5
 575.1 240 575.1 240 575.1 162 c 0,6,7
 575.1 83 575.1 83 524.7 27 c 128,-1,8
 474.3 -29 474.3 -29 404.1 -29 c 0,9,10
 333.9 -29 333.9 -29 283.95 27 c 128,-1,11
 234 83 234 83 234 162 c 0,0,1
235.8 1493 m 1,12,-1
 573.3 1493 l 1,13,-1
 466.2 651 l 1,14,-1
 466.2 461 l 1,15,-1
 341.1 461 l 1,16,-1
 341.1 651 l 1,17,-1
 235.8 1493 l 1,12,-1
EndSplineSet
EndChar
StartChar: quotedbl
Encoding: 34 34 34
Width: 960
Flags: W
Fore
388.8 1493 m 1,0,-1
 388.8 938 l 1,1,-1
 175.5 938 l 1,2,-1
 175.5 1493 l 1,3,-1
 388.8 1493 l 1,0,-1
784.8 1493 m 1,4,-1
 784.8 938 l 1,5,-1
 571.5 938 l 1,6,-1
 571.5 1493 l 1,7,-1
 784.8 1493 l 1,4,-1
EndSplineSet
EndChar
StartChar: numbersign
Encoding: 35 35 35
Width: 1544
Flags: W
Fore
921.6 872 m 1,0,-1
 684 872 l 1,1,-1
 621 598 l 1,2,-1
 858.6 598 l 1,3,-1
 921.6 872 l 1,0,-1
819.9 1470 m 1,4,-1
 733.5 1085 l 1,5,-1
 971.1 1085 l 1,6,-1
 1058.4 1470 l 1,7,-1
 1257.3 1470 l 1,8,-1
 1170 1085 l 1,9,-1
 1419.3 1085 l 1,10,-1
 1419.3 872 l 1,11,-1
 1122.3 872 l 1,12,-1
 1060.2 598 l 1,13,-1
 1315.8 598 l 1,14,-1
 1315.8 383 l 1,15,-1
 1013.4 383 l 1,16,-1
 927 0 l 1,17,-1
 728.1 0 l 1,18,-1
 814.5 383 l 1,19,-1
 576.9 383 l 1,20,-1
 490.5 0 l 1,21,-1
 289.8 0 l 1,22,-1
 376.2 383 l 1,23,-1
 125.1 383 l 1,24,-1
 125.1 598 l 1,25,-1
 420.3 598 l 1,26,-1
 483.3 872 l 1,27,-1
 228.6 872 l 1,28,-1
 228.6 1085 l 1,29,-1
 532.8 1085 l 1,30,-1
 619.2 1470 l 1,31,-1
 819.9 1470 l 1,4,-1
EndSplineSet
EndChar
StartChar: dollar
Encoding: 36 36 36
Width: 1282
Flags: W
Fore
175.5 59 m 1,0,-1
 175.5 350 l 1,1,-1
 283.5 350 l 1,2,3
 298.8 216 298.8 216 369.45 150 c 128,-1,4
 440.1 84 440.1 84 569.7 84 c 2,5,-1
 582.3 84 l 1,6,-1
 582.3 489 l 1,7,8
 358.2 544 358.2 544 261 639 c 128,-1,9
 163.8 734 163.8 734 163.8 897 c 0,10,11
 163.8 1077 163.8 1077 274.05 1180.5 c 128,-1,12
 384.3 1284 384.3 1284 582.3 1290 c 1,13,-1
 582.3 1559 l 1,14,-1
 691.2 1559 l 1,15,-1
 691.2 1290 l 1,16,17
 792 1284 792 1284 884.25 1262.5 c 128,-1,18
 976.5 1241 976.5 1241 1063.8 1202 c 1,19,-1
 1063.8 930 l 1,20,-1
 954.9 930 l 1,21,22
 940.5 1046 940.5 1046 871.65 1110.5 c 128,-1,23
 802.8 1175 802.8 1175 691.2 1177 c 1,24,-1
 691.2 805 l 1,25,26
 933.3 746 933.3 746 1031.4 646.5 c 128,-1,27
 1129.5 547 1129.5 547 1129.5 367 c 0,28,29
 1129.5 182 1129.5 182 1015.65 79.5 c 128,-1,30
 901.8 -23 901.8 -23 691.2 -29 c 1,31,-1
 691.2 -299 l 1,32,-1
 582.3 -299 l 1,33,-1
 582.3 -29 l 1,34,35
 483.3 -27 483.3 -27 381.6 -5 c 128,-1,36
 279.9 17 279.9 17 175.5 59 c 1,0,-1
582.3 1178 m 1,37,38
 505.8 1167 505.8 1167 461.25 1125 c 128,-1,39
 416.7 1083 416.7 1083 416.7 1022 c 0,40,41
 416.7 952 416.7 952 454.95 909 c 128,-1,42
 493.2 866 493.2 866 582.3 838 c 1,43,-1
 582.3 1178 l 1,37,38
691.2 84 m 1,44,45
 782.1 95 782.1 95 828.9 138.5 c 128,-1,46
 875.7 182 875.7 182 875.7 256 c 0,47,48
 875.7 330 875.7 330 832.05 378 c 128,-1,49
 788.4 426 788.4 426 691.2 457 c 1,50,-1
 691.2 84 l 1,44,45
EndSplineSet
EndChar
StartChar: percent
Encoding: 37 37 37
Width: 1751
Flags: W
Fore
397.8 1419 m 0,0,1
 340.2 1419 340.2 1419 315 1349.5 c 128,-1,2
 289.8 1280 289.8 1280 289.8 1114 c 0,3,4
 289.8 947 289.8 947 315 877 c 128,-1,5
 340.2 807 340.2 807 397.8 807 c 0,6,7
 456.3 807 456.3 807 481.5 877 c 128,-1,8
 506.7 947 506.7 947 506.7 1114 c 0,9,10
 506.7 1280 506.7 1280 481.5 1349.5 c 128,-1,11
 456.3 1419 456.3 1419 397.8 1419 c 0,0,1
397.8 1520 m 0,12,13
 569.7 1520 569.7 1520 661.05 1415.5 c 128,-1,14
 752.4 1311 752.4 1311 752.4 1114 c 0,15,16
 752.4 917 752.4 917 661.05 812 c 128,-1,17
 569.7 707 569.7 707 397.8 707 c 0,18,19
 226.8 707 226.8 707 135.45 812 c 128,-1,20
 44.0996 917 44.0996 917 44.0996 1114 c 0,21,22
 44.0996 1311 44.0996 1311 135.45 1415.5 c 128,-1,23
 226.8 1520 226.8 1520 397.8 1520 c 0,12,13
1218.6 1520 m 1,24,-1
 1373.4 1520 l 1,25,-1
 532.8 -29 l 1,26,-1
 378 -29 l 1,27,-1
 1218.6 1520 l 1,24,-1
1352.7 784 m 0,28,29
 1524.6 784 1524.6 784 1615.5 679.5 c 128,-1,30
 1706.4 575 1706.4 575 1706.4 379 c 0,31,32
 1706.4 182 1706.4 182 1615.5 76.5 c 128,-1,33
 1524.6 -29 1524.6 -29 1352.7 -29 c 0,34,35
 1181.7 -29 1181.7 -29 1090.35 76.5 c 128,-1,36
 999 182 999 182 999 379 c 0,37,38
 999 575 999 575 1090.35 679.5 c 128,-1,39
 1181.7 784 1181.7 784 1352.7 784 c 0,28,29
1352.7 684 m 0,40,41
 1294.2 684 1294.2 684 1269 614.5 c 128,-1,42
 1243.8 545 1243.8 545 1243.8 379 c 0,43,44
 1243.8 212 1243.8 212 1269.45 142 c 128,-1,45
 1295.1 72 1295.1 72 1352.7 72 c 0,46,47
 1411.2 72 1411.2 72 1436.4 142 c 128,-1,48
 1461.6 212 1461.6 212 1461.6 379 c 0,49,50
 1461.6 545 1461.6 545 1436.4 614.5 c 128,-1,51
 1411.2 684 1411.2 684 1352.7 684 c 0,40,41
EndSplineSet
EndChar
StartChar: ampersand
Encoding: 38 38 38
Width: 1664
Flags: W
Fore
1630.8 0 m 1,0,-1
 1199.7 0 l 1,1,-1
 1085.4 131 l 1,2,3
 995.4 51 995.4 51 886.5 11 c 128,-1,4
 777.6 -29 777.6 -29 648.9 -29 c 0,5,6
 378.9 -29 378.9 -29 226.35 99 c 128,-1,7
 73.7998 227 73.7998 227 73.7998 451 c 0,8,9
 73.7998 614 73.7998 614 151.65 729.5 c 128,-1,10
 229.5 845 229.5 845 396 928 c 1,11,12
 350.1 995 350.1 995 327.15 1056 c 128,-1,13
 304.2 1117 304.2 1117 304.2 1174 c 0,14,15
 304.2 1338 304.2 1338 427.95 1429 c 128,-1,16
 551.7 1520 551.7 1520 775.8 1520 c 0,17,18
 842.4 1520 842.4 1520 931.05 1508 c 128,-1,19
 1019.7 1496 1019.7 1496 1131.3 1473 c 1,20,-1
 1131.3 1161 l 1,21,-1
 1015.2 1161 l 1,22,23
 999 1285 999 1285 946.8 1342 c 128,-1,24
 894.6 1399 894.6 1399 798.3 1399 c 0,25,26
 707.4 1399 707.4 1399 655.2 1351 c 128,-1,27
 603 1303 603 1303 603 1221 c 0,28,29
 603 1129 603 1129 764.1 947 c 0,30,31
 782.1 927 782.1 927 791.1 918 c 1,32,-1
 1205.1 436 l 1,33,34
 1259.1 504 1259.1 504 1289.7 593 c 128,-1,35
 1320.3 682 1320.3 682 1328.4 795 c 1,36,-1
 1164.6 795 l 1,37,-1
 1164.6 915 l 1,38,-1
 1614.6 915 l 1,39,-1
 1614.6 795 l 1,40,-1
 1456.2 795 l 1,41,42
 1440.9 649 1440.9 649 1399.95 536 c 128,-1,43
 1359 423 1359 423 1292.4 336 c 1,44,-1
 1477.8 121 l 1,45,-1
 1630.8 121 l 1,46,-1
 1630.8 0 l 1,0,-1
1000.8 229 m 1,47,-1
 492.3 817 l 1,48,49
 442.8 750 442.8 750 417.6 674.5 c 128,-1,50
 392.4 599 392.4 599 392.4 516 c 0,51,52
 392.4 347 392.4 347 488.25 238 c 128,-1,53
 584.1 129 584.1 129 731.7 129 c 0,54,55
 801.9 129 801.9 129 868.05 153.5 c 128,-1,56
 934.2 178 934.2 178 1000.8 229 c 1,47,-1
EndSplineSet
EndChar
StartChar: quotesingle
Encoding: 39 39 39
Width: 564
Flags: W
Fore
388.8 1493 m 1,0,-1
 388.8 938 l 1,1,-1
 175.5 938 l 1,2,-1
 175.5 1493 l 1,3,-1
 388.8 1493 l 1,0,-1
EndSplineSet
EndChar
StartChar: parenleft
Encoding: 40 40 40
Width: 872
Flags: W
Fore
775.8 -319 m 1,0,1
 472.5 -194 472.5 -194 323.1 39 c 128,-1,2
 173.7 272 173.7 272 173.7 618 c 0,3,4
 173.7 964 173.7 964 321.3 1194 c 128,-1,5
 468.9 1424 468.9 1424 775.8 1556 c 1,6,-1
 775.8 1436 l 1,7,8
 633.6 1340 633.6 1340 571.05 1151.5 c 128,-1,9
 508.5 963 508.5 963 508.5 618 c 0,10,11
 508.5 274 508.5 274 571.05 85.5 c 128,-1,12
 633.6 -103 633.6 -103 775.8 -199 c 1,13,-1
 775.8 -319 l 1,0,1
EndSplineSet
EndChar
StartChar: parenright
Encoding: 41 41 41
Width: 872
Flags: W
Fore
93.5996 -319 m 1,0,-1
 93.5996 -199 l 1,1,2
 235.8 -103 235.8 -103 298.35 85.5 c 128,-1,3
 360.9 274 360.9 274 360.9 618 c 0,4,5
 360.9 963 360.9 963 298.35 1151.5 c 128,-1,6
 235.8 1340 235.8 1340 93.5996 1436 c 1,7,-1
 93.5996 1556 l 1,8,9
 400.5 1424 400.5 1424 548.55 1194 c 128,-1,10
 696.6 964 696.6 964 696.6 618 c 0,11,12
 696.6 272 696.6 272 546.75 39 c 128,-1,13
 396.9 -194 396.9 -194 93.5996 -319 c 1,0,-1
EndSplineSet
EndChar
StartChar: asterisk
Encoding: 42 42 42
Width: 963
Flags: W
Fore
923.4 1212 m 1,0,-1
 599.4 1044 l 1,1,-1
 923.4 874 l 1,2,-1
 835.2 719 l 1,3,-1
 540 958 l 1,4,-1
 564.3 569 l 1,5,-1
 399.6 569 l 1,6,-1
 423.9 958 l 1,7,-1
 128.7 719 l 1,8,-1
 40.5 874 l 1,9,-1
 365.4 1044 l 1,10,-1
 40.5 1212 l 1,11,-1
 128.7 1370 l 1,12,-1
 423.9 1128 l 1,13,-1
 399.6 1520 l 1,14,-1
 564.3 1520 l 1,15,-1
 540 1128 l 1,16,-1
 835.2 1370 l 1,17,-1
 923.4 1212 l 1,0,-1
EndSplineSet
EndChar
StartChar: plus
Encoding: 43 43 43
Width: 1544
Flags: W
Fore
875.7 1284 m 1,0,-1
 875.7 758 l 1,1,-1
 1349.1 758 l 1,2,-1
 1349.1 528 l 1,3,-1
 875.7 528 l 1,4,-1
 875.7 2 l 1,5,-1
 668.7 2 l 1,6,-1
 668.7 528 l 1,7,-1
 195.3 528 l 1,8,-1
 195.3 758 l 1,9,-1
 668.7 758 l 1,10,-1
 668.7 1284 l 1,11,-1
 875.7 1284 l 1,0,-1
EndSplineSet
EndChar
StartChar: comma
Encoding: 44 44 44
Width: 641
Flags: W
Fore
24.2998 -197 m 1,0,1
 117.9 -113 117.9 -113 162 -9 c 128,-1,2
 206.1 95 206.1 95 206.1 233 c 2,3,-1
 206.1 319 l 1,4,-1
 462.6 319 l 1,5,-1
 462.6 311 l 2,6,7
 462.6 90 462.6 90 379.35 -69.5 c 128,-1,8
 296.1 -229 296.1 -229 123.3 -338 c 1,9,-1
 24.2998 -197 l 1,0,1
EndSplineSet
EndChar
StartChar: hyphen
Encoding: 45 45 45
Width: 765
Flags: W
Fore
99.9004 684 m 1,0,-1
 665.1 684 l 1,1,-1
 665.1 414 l 1,2,-1
 99.9004 414 l 1,3,-1
 99.9004 684 l 1,0,-1
EndSplineSet
EndChar
StartChar: period
Encoding: 46 46 46
Width: 641
Flags: W
Fore
149.4 162 m 0,0,1
 149.4 240 149.4 240 199.8 296 c 128,-1,2
 250.2 352 250.2 352 320.4 352 c 0,3,4
 391.5 352 391.5 352 441.9 296 c 128,-1,5
 492.3 240 492.3 240 492.3 162 c 0,6,7
 492.3 83 492.3 83 441.9 27 c 128,-1,8
 391.5 -29 391.5 -29 320.4 -29 c 0,9,10
 250.2 -29 250.2 -29 199.8 27 c 128,-1,11
 149.4 83 149.4 83 149.4 162 c 0,0,1
EndSplineSet
EndChar
StartChar: slash
Encoding: 47 47 47
Width: 673
Flags: W
Fore
473.4 1493 m 1,0,-1
 673.2 1493 l 1,1,-1
 198.9 -190 l 1,2,-1
 0 -190 l 1,3,-1
 473.4 1493 l 1,0,-1
EndSplineSet
EndChar
StartChar: zero
Encoding: 48 48 48
Width: 1282
Flags: W
Fore
641.7 88 m 0,0,1
 749.7 88 749.7 88 789.75 197 c 128,-1,2
 829.8 306 829.8 306 829.8 745 c 0,3,4
 829.8 1181 829.8 1181 789.75 1292 c 128,-1,5
 749.7 1403 749.7 1403 641.7 1403 c 0,6,7
 533.7 1403 533.7 1403 493.65 1294 c 128,-1,8
 453.6 1185 453.6 1185 453.6 745 c 0,9,10
 453.6 306 453.6 306 493.65 197 c 128,-1,11
 533.7 88 533.7 88 641.7 88 c 0,0,1
641.7 -29 m 0,12,13
 372.6 -29 372.6 -29 229.5 170.5 c 128,-1,14
 86.4004 370 86.4004 370 86.4004 745 c 0,15,16
 86.4004 1120 86.4004 1120 229.5 1320 c 128,-1,17
 372.6 1520 372.6 1520 641.7 1520 c 0,18,19
 909.9 1520 909.9 1520 1053 1320 c 128,-1,20
 1196.1 1120 1196.1 1120 1196.1 745 c 0,21,22
 1196.1 370 1196.1 370 1053 170.5 c 128,-1,23
 909.9 -29 909.9 -29 641.7 -29 c 0,12,13
EndSplineSet
EndChar
StartChar: one
Encoding: 49 49 49
Width: 1282
Flags: W
Fore
252.9 0 m 1,0,-1
 252.9 121 l 1,1,-1
 504.9 121 l 1,2,-1
 504.9 1329 l 1,3,-1
 225 1145 l 1,4,-1
 225 1294 l 1,5,-1
 562.5 1520 l 1,6,-1
 846 1520 l 1,7,-1
 846 121 l 1,8,-1
 1098.9 121 l 1,9,-1
 1098.9 0 l 1,10,-1
 252.9 0 l 1,0,-1
EndSplineSet
EndChar
StartChar: two
Encoding: 50 50 50
Width: 1282
Flags: W
Fore
243 1124 m 1,0,-1
 135 1124 l 1,1,-1
 135 1446 l 1,2,3
 244.8 1483 244.8 1483 352.35 1501.5 c 128,-1,4
 459.9 1520 459.9 1520 569.7 1520 c 0,5,6
 826.2 1520 826.2 1520 969.75 1403.5 c 128,-1,7
 1113.3 1287 1113.3 1287 1113.3 1079 c 0,8,9
 1113.3 931 1113.3 931 1034.1 813.5 c 128,-1,10
 954.9 696 954.9 696 731.7 535 c 1,11,-1
 357.3 262 l 1,12,-1
 993.6 262 l 1,13,-1
 993.6 438 l 1,14,-1
 1116.9 438 l 1,15,-1
 1116.9 0 l 1,16,-1
 123.3 0 l 1,17,-1
 123.3 244 l 1,18,-1
 322.2 397 l 2,19,20
 576.9 592 576.9 592 661.5 729 c 128,-1,21
 746.1 866 746.1 866 746.1 1049 c 0,22,23
 746.1 1222 746.1 1222 681.75 1312.5 c 128,-1,24
 617.4 1403 617.4 1403 494.1 1403 c 0,25,26
 387.9 1403 387.9 1403 324 1331.5 c 128,-1,27
 260.1 1260 260.1 1260 243 1124 c 1,0,-1
EndSplineSet
EndChar
StartChar: three
Encoding: 51 51 51
Width: 1282
Flags: W
Fore
158.4 1450 m 1,0,1
 277.2 1485 277.2 1485 388.8 1502.5 c 128,-1,2
 500.4 1520 500.4 1520 606.6 1520 c 0,3,4
 849.6 1520 849.6 1520 979.65 1423.5 c 128,-1,5
 1109.7 1327 1109.7 1327 1109.7 1147 c 0,6,7
 1109.7 1012 1109.7 1012 1035 928 c 128,-1,8
 960.3 844 960.3 844 816.3 815 c 1,9,10
 991.8 784 991.8 784 1078.2 682 c 128,-1,11
 1164.6 580 1164.6 580 1164.6 403 c 0,12,13
 1164.6 194 1164.6 194 1015.65 82.5 c 128,-1,14
 866.7 -29 866.7 -29 584.1 -29 c 0,15,16
 477.9 -29 477.9 -29 364.95 -9 c 128,-1,17
 252 11 252 11 128.7 51 c 1,18,-1
 128.7 379 l 1,19,-1
 237.6 379 l 1,20,21
 247.5 237 247.5 237 317.7 162.5 c 128,-1,22
 387.9 88 387.9 88 512.1 88 c 0,23,24
 648.9 88 648.9 88 723.6 172.5 c 128,-1,25
 798.3 257 798.3 257 798.3 412 c 0,26,27
 798.3 574 798.3 574 720.45 662 c 128,-1,28
 642.6 750 642.6 750 499.5 750 c 2,29,-1
 440.1 750 l 1,30,-1
 440.1 870 l 1,31,-1
 486.9 870 l 2,32,33
 619.2 870 619.2 870 685.8 938 c 128,-1,34
 752.4 1006 752.4 1006 752.4 1141 c 0,35,36
 752.4 1268 752.4 1268 689.85 1335.5 c 128,-1,37
 627.3 1403 627.3 1403 510.3 1403 c 0,38,39
 404.1 1403 404.1 1403 342 1338.5 c 128,-1,40
 279.9 1274 279.9 1274 267.3 1151 c 1,41,-1
 158.4 1151 l 1,42,-1
 158.4 1450 l 1,0,1
EndSplineSet
EndChar
StartChar: four
Encoding: 52 52 52
Width: 1282
Flags: W
Fore
1176.3 0 m 1,0,-1
 436.5 0 l 1,1,-1
 436.5 121 l 1,2,-1
 636.3 121 l 1,3,-1
 636.3 393 l 1,4,-1
 75.5996 393 l 1,5,-1
 75.5996 508 l 1,6,-1
 638.1 1520 l 1,7,-1
 976.5 1520 l 1,8,-1
 976.5 522 l 1,9,-1
 1206.9 522 l 1,10,-1
 1206.9 393 l 1,11,-1
 976.5 393 l 1,12,-1
 976.5 121 l 1,13,-1
 1176.3 121 l 1,14,-1
 1176.3 0 l 1,0,-1
636.3 522 m 1,15,-1
 636.3 1247 l 1,16,-1
 235.8 522 l 1,17,-1
 636.3 522 l 1,15,-1
EndSplineSet
EndChar
StartChar: five
Encoding: 53 53 53
Width: 1282
Flags: W
Fore
1039.5 1493 m 1,0,-1
 1039.5 1231 l 1,1,-1
 320.4 1231 l 1,2,-1
 320.4 903 l 1,3,4
 379.8 954 379.8 954 452.7 980 c 128,-1,5
 525.6 1006 525.6 1006 606.6 1006 c 0,6,7
 855 1006 855 1006 999 866.5 c 128,-1,8
 1143 727 1143 727 1143 487 c 0,9,10
 1143 243 1143 243 999 107 c 128,-1,11
 855 -29 855 -29 595.8 -29 c 0,12,13
 486 -29 486 -29 377.55 -9 c 128,-1,14
 269.1 11 269.1 11 151.2 53 c 1,15,-1
 151.2 379 l 1,16,-1
 259.2 379 l 1,17,18
 264.6 232 264.6 232 328.05 160 c 128,-1,19
 391.5 88 391.5 88 515.7 88 c 0,20,21
 648 88 648 88 711.9 186.5 c 128,-1,22
 775.8 285 775.8 285 775.8 487 c 0,23,24
 775.8 686 775.8 686 713.25 784.5 c 128,-1,25
 650.7 883 650.7 883 523.8 883 c 0,26,27
 455.4 883 455.4 883 401.85 851.5 c 128,-1,28
 348.3 820 348.3 820 302.4 754 c 1,29,-1
 212.4 754 l 1,30,-1
 212.4 1493 l 1,31,-1
 1039.5 1493 l 1,0,-1
EndSplineSet
EndChar
StartChar: six
Encoding: 54 54 54
Width: 1282
Flags: W
Fore
453.6 885 m 1,0,1
 512.1 937 512.1 937 584.55 963 c 128,-1,2
 657 989 657 989 742.5 989 c 0,3,4
 948.6 989 948.6 989 1066.05 855 c 128,-1,5
 1183.5 721 1183.5 721 1183.5 487 c 0,6,7
 1183.5 240 1183.5 240 1051.2 105.5 c 128,-1,8
 918.9 -29 918.9 -29 675 -29 c 0,9,10
 399.6 -29 399.6 -29 257.85 155.5 c 128,-1,11
 116.1 340 116.1 340 116.1 698 c 0,12,13
 116.1 1105 116.1 1105 273.6 1312.5 c 128,-1,14
 431.1 1520 431.1 1520 740.7 1520 c 0,15,16
 821.7 1520 821.7 1520 914.4 1505 c 128,-1,17
 1007.1 1490 1007.1 1490 1113.3 1460 c 1,18,-1
 1113.3 1196 l 1,19,-1
 1004.4 1196 l 1,20,21
 981.9 1298 981.9 1298 919.35 1350.5 c 128,-1,22
 856.8 1403 856.8 1403 757.8 1403 c 0,23,24
 597.6 1403 597.6 1403 526.05 1281 c 128,-1,25
 454.5 1159 454.5 1159 453.6 885 c 1,0,1
654.3 88 m 0,26,27
 747 88 747 88 786.6 175.5 c 128,-1,28
 826.2 263 826.2 263 826.2 479 c 0,29,30
 826.2 695 826.2 695 786.6 782.5 c 128,-1,31
 747 870 747 870 654.3 870 c 0,32,33
 561.6 870 561.6 870 522.45 782.5 c 128,-1,34
 483.3 695 483.3 695 483.3 479 c 0,35,36
 483.3 263 483.3 263 522.45 175.5 c 128,-1,37
 561.6 88 561.6 88 654.3 88 c 0,26,27
EndSplineSet
EndChar
StartChar: seven
Encoding: 55 55 55
Width: 1282
Flags: W
Fore
1129.5 1239 m 1,0,-1
 575.1 0 l 1,1,-1
 392.4 0 l 1,2,-1
 932.4 1210 l 1,3,-1
 269.1 1210 l 1,4,-1
 269.1 1008 l 1,5,-1
 145.8 1008 l 1,6,-1
 145.8 1493 l 1,7,-1
 1129.5 1493 l 1,8,-1
 1129.5 1239 l 1,0,-1
EndSplineSet
EndChar
StartChar: eight
Encoding: 56 56 56
Width: 1282
Flags: W
Fore
856.8 795 m 1,0,1
 1017 766 1017 766 1100.25 664 c 128,-1,2
 1183.5 562 1183.5 562 1183.5 397 c 0,3,4
 1183.5 191 1183.5 191 1043.55 81 c 128,-1,5
 903.6 -29 903.6 -29 639.9 -29 c 0,6,7
 376.2 -29 376.2 -29 235.8 81 c 128,-1,8
 95.4004 191 95.4004 191 95.4004 397 c 0,9,10
 95.4004 562 95.4004 562 179.1 664 c 128,-1,11
 262.8 766 262.8 766 422.1 795 c 1,12,13
 280.8 831 280.8 831 210.6 915.5 c 128,-1,14
 140.4 1000 140.4 1000 140.4 1130 c 0,15,16
 140.4 1320 140.4 1320 268.2 1420 c 128,-1,17
 396 1520 396 1520 639.9 1520 c 0,18,19
 882.9 1520 882.9 1520 1011.15 1420 c 128,-1,20
 1139.4 1320 1139.4 1320 1139.4 1130 c 0,21,22
 1139.4 1000 1139.4 1000 1068.75 915.5 c 128,-1,23
 998.1 831 998.1 831 856.8 795 c 1,0,1
791.1 1126 m 0,24,25
 791.1 1284 791.1 1284 756.9 1343.5 c 128,-1,26
 722.7 1403 722.7 1403 639.9 1403 c 0,27,28
 556.2 1403 556.2 1403 522.45 1343.5 c 128,-1,29
 488.7 1284 488.7 1284 488.7 1126 c 0,30,31
 488.7 969 488.7 969 522.45 910.5 c 128,-1,32
 556.2 852 556.2 852 639.9 852 c 0,33,34
 723.6 852 723.6 852 757.35 910.5 c 128,-1,35
 791.1 969 791.1 969 791.1 1126 c 0,24,25
826.2 414 m 0,36,37
 826.2 597 826.2 597 784.35 666 c 128,-1,38
 742.5 735 742.5 735 639.9 735 c 0,39,40
 536.4 735 536.4 735 495 666 c 128,-1,41
 453.6 597 453.6 597 453.6 414 c 0,42,43
 453.6 229 453.6 229 495.45 158.5 c 128,-1,44
 537.3 88 537.3 88 639.9 88 c 0,45,46
 741.6 88 741.6 88 783.9 158.5 c 128,-1,47
 826.2 229 826.2 229 826.2 414 c 0,36,37
EndSplineSet
EndChar
StartChar: nine
Encoding: 57 57 57
Width: 1282
Flags: W
Fore
628.2 1403 m 0,0,1
 535.5 1403 535.5 1403 496.35 1315.5 c 128,-1,2
 457.2 1228 457.2 1228 457.2 1012 c 0,3,4
 457.2 796 457.2 796 496.35 708.5 c 128,-1,5
 535.5 621 535.5 621 628.2 621 c 0,6,7
 720.9 621 720.9 621 760.5 708.5 c 128,-1,8
 800.1 796 800.1 796 800.1 1012 c 0,9,10
 800.1 1228 800.1 1228 760.5 1315.5 c 128,-1,11
 720.9 1403 720.9 1403 628.2 1403 c 0,0,1
828.9 608 m 1,12,13
 769.5 555 769.5 555 697.05 528.5 c 128,-1,14
 624.6 502 624.6 502 540 502 c 0,15,16
 334.8 502 334.8 502 217.35 635.5 c 128,-1,17
 99.9004 769 99.9004 769 99.9004 1004 c 0,18,19
 99.9004 1252 99.9004 1252 231.3 1386 c 128,-1,20
 362.7 1520 362.7 1520 606.6 1520 c 0,21,22
 882 1520 882 1520 1024.2 1335 c 128,-1,23
 1166.4 1150 1166.4 1150 1166.4 793 c 0,24,25
 1166.4 386 1166.4 386 1008.9 178.5 c 128,-1,26
 851.4 -29 851.4 -29 541.8 -29 c 0,27,28
 460.8 -29 460.8 -29 368.1 -14 c 128,-1,29
 275.4 1 275.4 1 169.2 31 c 1,30,-1
 169.2 295 l 1,31,-1
 278.1 295 l 1,32,33
 300.6 193 300.6 193 363.15 140.5 c 128,-1,34
 425.7 88 425.7 88 525.6 88 c 0,35,36
 684 88 684 88 756 210.5 c 128,-1,37
 828 333 828 333 828.9 608 c 1,12,13
EndSplineSet
EndChar
StartChar: colon
Encoding: 58 58 58
Width: 680
Flags: W
Fore
169.2 813 m 0,0,1
 169.2 892 169.2 892 219.15 948 c 128,-1,2
 269.1 1004 269.1 1004 339.3 1004 c 0,3,4
 409.5 1004 409.5 1004 459.9 947.5 c 128,-1,5
 510.3 891 510.3 891 510.3 813 c 0,6,7
 510.3 735 510.3 735 460.35 680 c 128,-1,8
 410.4 625 410.4 625 339.3 625 c 0,9,10
 268.2 625 268.2 625 218.7 680 c 128,-1,11
 169.2 735 169.2 735 169.2 813 c 0,0,1
169.2 162 m 0,12,13
 169.2 240 169.2 240 219.15 296 c 128,-1,14
 269.1 352 269.1 352 339.3 352 c 0,15,16
 409.5 352 409.5 352 459.9 296 c 128,-1,17
 510.3 240 510.3 240 510.3 162 c 0,18,19
 510.3 83 510.3 83 459.9 27 c 128,-1,20
 409.5 -29 409.5 -29 339.3 -29 c 0,21,22
 269.1 -29 269.1 -29 219.15 27 c 128,-1,23
 169.2 83 169.2 83 169.2 162 c 0,12,13
EndSplineSet
EndChar
StartChar: semicolon
Encoding: 59 59 59
Width: 680
Flags: W
Fore
169.2 813 m 0,0,1
 169.2 892 169.2 892 219.15 948 c 128,-1,2
 269.1 1004 269.1 1004 339.3 1004 c 0,3,4
 409.5 1004 409.5 1004 459.9 947.5 c 128,-1,5
 510.3 891 510.3 891 510.3 813 c 0,6,7
 510.3 735 510.3 735 460.35 680 c 128,-1,8
 410.4 625 410.4 625 339.3 625 c 0,9,10
 268.2 625 268.2 625 218.7 680 c 128,-1,11
 169.2 735 169.2 735 169.2 813 c 0,0,1
47.7002 -188 m 1,12,13
 142.2 -105 142.2 -105 186.3 -1.5 c 128,-1,14
 230.4 102 230.4 102 230.4 240 c 2,15,-1
 230.4 328 l 1,16,-1
 486.9 328 l 1,17,18
 486.9 103 486.9 103 403.2 -59 c 128,-1,19
 319.5 -221 319.5 -221 147.6 -330 c 1,20,-1
 47.7002 -188 l 1,12,13
EndSplineSet
EndChar
StartChar: less
Encoding: 60 60 60
Width: 1544
Flags: W
Fore
1349.1 979 m 1,0,-1
 468 641 l 1,1,-1
 1349.1 305 l 1,2,-1
 1349.1 66 l 1,3,-1
 195.3 530 l 1,4,-1
 195.3 756 l 1,5,-1
 1349.1 1219 l 1,6,-1
 1349.1 979 l 1,0,-1
EndSplineSet
EndChar
StartChar: equal
Encoding: 61 61 61
Width: 1544
Flags: W
Fore
195.3 528 m 1,0,-1
 1349.1 528 l 1,1,-1
 1349.1 301 l 1,2,-1
 195.3 301 l 1,3,-1
 195.3 528 l 1,0,-1
195.3 983 m 1,4,-1
 1349.1 983 l 1,5,-1
 1349.1 756 l 1,6,-1
 195.3 756 l 1,7,-1
 195.3 983 l 1,4,-1
EndSplineSet
EndChar
StartChar: greater
Encoding: 62 62 62
Width: 1544
Flags: W
Fore
195.3 979 m 1,0,-1
 195.3 1219 l 1,1,-1
 1349.1 756 l 1,2,-1
 1349.1 530 l 1,3,-1
 195.3 66 l 1,4,-1
 195.3 305 l 1,5,-1
 1076.4 641 l 1,6,-1
 195.3 979 l 1,0,-1
EndSplineSet
EndChar
StartChar: question
Encoding: 63 63 63
Width: 1080
Flags: W
Fore
307.8 162 m 0,0,1
 307.8 240 307.8 240 358.2 296 c 128,-1,2
 408.6 352 408.6 352 478.8 352 c 0,3,4
 549.9 352 549.9 352 600.3 296 c 128,-1,5
 650.7 240 650.7 240 650.7 162 c 0,6,7
 650.7 83 650.7 83 600.3 27 c 128,-1,8
 549.9 -29 549.9 -29 478.8 -29 c 0,9,10
 408.6 -29 408.6 -29 358.2 27 c 128,-1,11
 307.8 83 307.8 83 307.8 162 c 0,0,1
119.7 1452 m 1,12,13
 231.3 1486 231.3 1486 332.1 1503 c 128,-1,14
 432.9 1520 432.9 1520 527.4 1520 c 0,15,16
 754.2 1520 754.2 1520 875.7 1409.5 c 128,-1,17
 997.2 1299 997.2 1299 997.2 1094 c 0,18,19
 997.2 892 997.2 892 879.75 775.5 c 128,-1,20
 762.3 659 762.3 659 541.8 641 c 1,21,-1
 541.8 436 l 1,22,-1
 416.7 436 l 1,23,-1
 416.7 735 l 1,24,25
 542.7 778 542.7 778 601.2 870 c 128,-1,26
 659.7 962 659.7 962 659.7 1116 c 0,27,28
 659.7 1260 659.7 1260 604.8 1333.5 c 128,-1,29
 549.9 1407 549.9 1407 442.8 1407 c 0,30,31
 343.8 1407 343.8 1407 290.25 1341 c 128,-1,32
 236.7 1275 236.7 1275 228.6 1145 c 1,33,-1
 119.7 1145 l 1,34,-1
 119.7 1452 l 1,12,13
EndSplineSet
EndChar
StartChar: at
Encoding: 64 64 64
Width: 1843
Flags: W
Fore
1144.8 504 m 2,0,-1
 1144.8 580 l 2,1,2
 1144.8 709 1144.8 709 1089 787.5 c 128,-1,3
 1033.2 866 1033.2 866 942.3 866 c 0,4,5
 853.2 866 853.2 866 798.75 778.5 c 128,-1,6
 744.3 691 744.3 691 744.3 543 c 0,7,8
 744.3 395 744.3 395 798.75 307 c 128,-1,9
 853.2 219 853.2 219 942.3 219 c 0,10,11
 1033.2 219 1033.2 219 1089 296.5 c 128,-1,12
 1144.8 374 1144.8 374 1144.8 504 c 2,0,-1
1144.8 240 m 1,13,14
 1105.2 168 1105.2 168 1040.85 130 c 128,-1,15
 976.5 92 976.5 92 895.5 92 c 0,16,17
 723.6 92 723.6 92 625.5 212 c 128,-1,18
 527.4 332 527.4 332 527.4 543 c 0,19,20
 527.4 754 527.4 754 625.5 873.5 c 128,-1,21
 723.6 993 723.6 993 895.5 993 c 0,22,23
 976.5 993 976.5 993 1040.85 955 c 128,-1,24
 1105.2 917 1105.2 917 1144.8 846 c 1,25,-1
 1144.8 971 l 1,26,-1
 1341.9 971 l 1,27,-1
 1341.9 229 l 1,28,29
 1470.6 268 1470.6 268 1540.8 385 c 128,-1,30
 1611 502 1611 502 1611 678 c 0,31,32
 1611 821 1611 821 1561.5 938 c 128,-1,33
 1512 1055 1512 1055 1410.3 1151 c 0,34,35
 1327.5 1229 1327.5 1229 1215.9 1271 c 128,-1,36
 1104.3 1313 1104.3 1313 978.3 1313 c 0,37,38
 861.3 1313 861.3 1313 759.6 1278 c 128,-1,39
 657.9 1243 657.9 1243 573.3 1174 c 0,40,41
 445.5 1068 445.5 1068 376.65 904 c 128,-1,42
 307.8 740 307.8 740 307.8 543 c 0,43,44
 307.8 388 307.8 388 351.45 250.5 c 128,-1,45
 395.1 113 395.1 113 475.2 12 c 0,46,47
 571.5 -107 571.5 -107 697.05 -168 c 128,-1,48
 822.6 -229 822.6 -229 969.3 -229 c 0,49,50
 1079.1 -229 1079.1 -229 1181.7 -195 c 128,-1,51
 1284.3 -161 1284.3 -161 1377 -94 c 1,52,-1
 1428.3 -188 l 1,53,54
 1313.1 -272 1313.1 -272 1188.45 -314 c 128,-1,55
 1063.8 -356 1063.8 -356 934.2 -356 c 0,56,57
 759.6 -356 759.6 -356 613.8 -293 c 128,-1,58
 468 -230 468 -230 353.7 -104 c 0,59,60
 240.3 20 240.3 20 180.9 185.5 c 128,-1,61
 121.5 351 121.5 351 121.5 543 c 0,62,63
 121.5 735 121.5 735 180.9 900 c 128,-1,64
 240.3 1065 240.3 1065 353.7 1190 c 0,65,66
 468.9 1316 468.9 1316 616.05 1378 c 128,-1,67
 763.2 1440 763.2 1440 947.7 1440 c 0,68,69
 1107.9 1440 1107.9 1440 1239.3 1391.5 c 128,-1,70
 1370.7 1343 1370.7 1343 1474.2 1245 c 1,71,72
 1593.9 1134 1593.9 1134 1653.3 992 c 128,-1,73
 1712.7 850 1712.7 850 1712.7 676 c 0,74,75
 1712.7 400 1712.7 400 1570.5 246 c 128,-1,76
 1428.3 92 1428.3 92 1172.7 92 c 2,77,-1
 1144.8 92 l 1,78,-1
 1144.8 240 l 1,13,14
EndSplineSet
EndChar
StartChar: A
Encoding: 65 65 65
Width: 1430
Flags: W
AnchorPoint: "below" 694.8 0 basechar 0
AnchorPoint: "above" 694.8 1465 basechar 0
Fore
-14.4004 0 m 1,0,-1
 -14.4004 121 l 1,1,-1
 95.4004 121 l 1,2,-1
 601.2 1493 l 1,3,-1
 816.3 1493 l 1,4,-1
 1323 121 l 1,5,-1
 1450.8 121 l 1,6,-1
 1450.8 0 l 1,7,-1
 821.7 0 l 1,8,-1
 821.7 121 l 1,9,-1
 953.1 121 l 1,10,-1
 842.4 426 l 1,11,-1
 337.5 426 l 1,12,-1
 225 121 l 1,13,-1
 385.2 121 l 1,14,-1
 385.2 0 l 1,15,-1
 -14.4004 0 l 1,0,-1
381.6 547 m 1,16,-1
 798.3 547 l 1,17,-1
 591.3 1118 l 1,18,-1
 381.6 547 l 1,16,-1
EndSplineSet
EndChar
StartChar: B
Encoding: 66 66 66
Width: 1557
Flags: W
AnchorPoint: "below" 778.5 0 basechar 0
AnchorPoint: "above" 778.5 1465 basechar 0
Fore
86.4004 0 m 1,0,-1
 86.4004 121 l 1,1,-1
 258.3 121 l 1,2,-1
 258.3 1372 l 1,3,-1
 86.4004 1372 l 1,4,-1
 86.4004 1493 l 1,5,-1
 882.9 1493 l 2,6,7
 1128.6 1493 1128.6 1493 1251.9 1401 c 128,-1,8
 1375.2 1309 1375.2 1309 1375.2 1124 c 0,9,10
 1375.2 991 1375.2 991 1290.15 913 c 128,-1,11
 1205.1 835 1205.1 835 1037.7 815 c 1,12,13
 1240.2 794 1240.2 794 1348.2 695 c 128,-1,14
 1456.2 596 1456.2 596 1456.2 432 c 0,15,16
 1456.2 210 1456.2 210 1305.45 105 c 128,-1,17
 1154.7 0 1154.7 0 833.4 0 c 2,18,-1
 86.4004 0 l 1,0,-1
604.8 870 m 1,19,-1
 722.7 870 l 2,20,21
 877.5 870 877.5 870 952.2 932.5 c 128,-1,22
 1026.9 995 1026.9 995 1026.9 1124 c 0,23,24
 1026.9 1254 1026.9 1254 954.45 1313 c 128,-1,25
 882 1372 882 1372 722.7 1372 c 2,26,-1
 604.8 1372 l 1,27,-1
 604.8 870 l 1,19,-1
604.8 121 m 1,28,-1
 733.5 121 l 2,29,30
 905.4 121 905.4 121 988.2 197 c 128,-1,31
 1071 273 1071 273 1071 432 c 0,32,33
 1071 592 1071 592 987.3 671 c 128,-1,34
 903.6 750 903.6 750 733.5 750 c 2,35,-1
 604.8 750 l 1,36,-1
 604.8 121 l 1,28,-1
EndSplineSet
EndChar
StartChar: C
Encoding: 67 67 67
Width: 1467
Flags: W
AnchorPoint: "below" 800.1 0 basechar 0
AnchorPoint: "above" 800.1 1465 basechar 0
Fore
1373.4 426 m 1,0,1
 1320.3 195 1320.3 195 1182.6 83 c 128,-1,2
 1044.9 -29 1044.9 -29 812.7 -29 c 0,3,4
 472.5 -29 472.5 -29 274.95 179.5 c 128,-1,5
 77.4004 388 77.4004 388 77.4004 745 c 0,6,7
 77.4004 1103 77.4004 1103 274.95 1311.5 c 128,-1,8
 472.5 1520 472.5 1520 812.7 1520 c 0,9,10
 932.4 1520 932.4 1520 1062 1488 c 128,-1,11
 1191.6 1456 1191.6 1456 1336.5 1391 c 1,12,-1
 1336.5 1024 l 1,13,-1
 1222.2 1024 l 1,14,15
 1187.1 1212 1187.1 1212 1094.4 1305.5 c 128,-1,16
 1001.7 1399 1001.7 1399 849.6 1399 c 0,17,18
 653.4 1399 653.4 1399 558 1238.5 c 128,-1,19
 462.6 1078 462.6 1078 462.6 745 c 0,20,21
 462.6 412 462.6 412 558 252 c 128,-1,22
 653.4 92 653.4 92 851.4 92 c 0,23,24
 985.5 92 985.5 92 1070.55 175 c 128,-1,25
 1155.6 258 1155.6 258 1194.3 426 c 1,26,-1
 1373.4 426 l 1,0,1
EndSplineSet
EndChar
StartChar: D
Encoding: 68 68 68
Width: 1598
Flags: W
AnchorPoint: "below" 778.5 0 basechar 0
AnchorPoint: "above" 778.5 1465 basechar 0
Fore
604.8 121 m 1,0,-1
 729.9 121 l 2,1,2
 940.5 121 940.5 121 1038.15 271 c 128,-1,3
 1135.8 421 1135.8 421 1135.8 748 c 0,4,5
 1135.8 1073 1135.8 1073 1038.6 1222.5 c 128,-1,6
 941.4 1372 941.4 1372 729.9 1372 c 2,7,-1
 604.8 1372 l 1,8,-1
 604.8 121 l 1,0,-1
86.4004 0 m 1,9,-1
 86.4004 121 l 1,10,-1
 258.3 121 l 1,11,-1
 258.3 1372 l 1,12,-1
 86.4004 1372 l 1,13,-1
 86.4004 1493 l 1,14,-1
 775.8 1493 l 2,15,16
 1137.6 1493 1137.6 1493 1329.3 1301 c 128,-1,17
 1521 1109 1521 1109 1521 748 c 0,18,19
 1521 385 1521 385 1328.85 192.5 c 128,-1,20
 1136.7 0 1136.7 0 775.8 0 c 2,21,-1
 86.4004 0 l 1,9,-1
EndSplineSet
EndChar
StartChar: E
Encoding: 69 69 69
Width: 1404
Flags: W
AnchorPoint: "below" 733.5 0 basechar 0
AnchorPoint: "above" 733.5 1465 basechar 0
Fore
86.4004 0 m 1,0,-1
 86.4004 121 l 1,1,-1
 258.3 121 l 1,2,-1
 258.3 1372 l 1,3,-1
 86.4004 1372 l 1,4,-1
 86.4004 1493 l 1,5,-1
 1294.2 1493 l 1,6,-1
 1294.2 1141 l 1,7,-1
 1170 1141 l 1,8,-1
 1170 1356 l 1,9,-1
 604.8 1356 l 1,10,-1
 604.8 877 l 1,11,-1
 956.7 877 l 1,12,-1
 956.7 1067 l 1,13,-1
 1080 1067 l 1,14,-1
 1080 551 l 1,15,-1
 956.7 551 l 1,16,-1
 956.7 741 l 1,17,-1
 604.8 741 l 1,18,-1
 604.8 137 l 1,19,-1
 1187.1 137 l 1,20,-1
 1187.1 352 l 1,21,-1
 1310.4 352 l 1,22,-1
 1310.4 0 l 1,23,-1
 86.4004 0 l 1,0,-1
EndSplineSet
EndChar
StartChar: F
Encoding: 70 70 70
Width: 1308
Flags: W
AnchorPoint: "below" 431.1 0 basechar 0
AnchorPoint: "above" 724.5 1465 basechar 0
Fore
86.4004 0 m 1,0,-1
 86.4004 121 l 1,1,-1
 258.3 121 l 1,2,-1
 258.3 1372 l 1,3,-1
 86.4004 1372 l 1,4,-1
 86.4004 1493 l 1,5,-1
 1284.3 1493 l 1,6,-1
 1284.3 1141 l 1,7,-1
 1161 1141 l 1,8,-1
 1161 1356 l 1,9,-1
 606.6 1356 l 1,10,-1
 606.6 877 l 1,11,-1
 947.7 877 l 1,12,-1
 947.7 1067 l 1,13,-1
 1071 1067 l 1,14,-1
 1071 551 l 1,15,-1
 947.7 551 l 1,16,-1
 947.7 741 l 1,17,-1
 606.6 741 l 1,18,-1
 606.6 121 l 1,19,-1
 818.1 121 l 1,20,-1
 818.1 0 l 1,21,-1
 86.4004 0 l 1,0,-1
EndSplineSet
EndChar
StartChar: G
Encoding: 71 71 71
Width: 1574
Flags: W
AnchorPoint: "below" 818.1 0 basechar 0
AnchorPoint: "above" 818.1 1465 basechar 0
Fore
1268.1 1024 m 1,0,1
 1227.6 1222 1227.6 1222 1133.1 1310.5 c 128,-1,2
 1038.6 1399 1038.6 1399 866.7 1399 c 0,3,4
 657.9 1399 657.9 1399 560.25 1241.5 c 128,-1,5
 462.6 1084 462.6 1084 462.6 745 c 0,6,7
 462.6 409 462.6 409 556.2 250.5 c 128,-1,8
 649.8 92 649.8 92 847.8 92 c 0,9,10
 923.4 92 923.4 92 988.2 111 c 128,-1,11
 1053 130 1053 130 1106.1 168 c 1,12,-1
 1106.1 578 l 1,13,-1
 944.1 578 l 1,14,-1
 944.1 698 l 1,15,-1
 1428.3 698 l 1,16,-1
 1428.3 125 l 1,17,18
 1277.1 47 1277.1 47 1126.35 9 c 128,-1,19
 975.6 -29 975.6 -29 818.1 -29 c 0,20,21
 472.5 -29 472.5 -29 274.95 178 c 128,-1,22
 77.4004 385 77.4004 385 77.4004 745 c 0,23,24
 77.4004 1106 77.4004 1106 274.95 1313 c 128,-1,25
 472.5 1520 472.5 1520 818.1 1520 c 0,26,27
 962.1 1520 962.1 1520 1101.6 1488 c 128,-1,28
 1241.1 1456 1241.1 1456 1382.4 1391 c 1,29,-1
 1382.4 1024 l 1,30,-1
 1268.1 1024 l 1,0,1
EndSplineSet
EndChar
StartChar: H
Encoding: 72 72 72
Width: 1741
Flags: W
AnchorPoint: "below" 873 0 basechar 0
AnchorPoint: "above" 873 1465 basechar 0
Fore
86.4004 0 m 1,0,-1
 86.4004 121 l 1,1,-1
 258.3 121 l 1,2,-1
 258.3 1372 l 1,3,-1
 86.4004 1372 l 1,4,-1
 86.4004 1493 l 1,5,-1
 777.6 1493 l 1,6,-1
 777.6 1372 l 1,7,-1
 604.8 1372 l 1,8,-1
 604.8 870 l 1,9,-1
 1139.4 870 l 1,10,-1
 1139.4 1372 l 1,11,-1
 967.5 1372 l 1,12,-1
 967.5 1493 l 1,13,-1
 1658.7 1493 l 1,14,-1
 1658.7 1372 l 1,15,-1
 1485.9 1372 l 1,16,-1
 1485.9 121 l 1,17,-1
 1658.7 121 l 1,18,-1
 1658.7 0 l 1,19,-1
 967.5 0 l 1,20,-1
 967.5 121 l 1,21,-1
 1139.4 121 l 1,22,-1
 1139.4 733 l 1,23,-1
 604.8 733 l 1,24,-1
 604.8 121 l 1,25,-1
 777.6 121 l 1,26,-1
 777.6 0 l 1,27,-1
 86.4004 0 l 1,0,-1
EndSplineSet
EndChar
StartChar: I
Encoding: 73 73 73
Width: 862
Flags: W
AnchorPoint: "below" 431.1 0 basechar 0
AnchorPoint: "above" 431.1 1465 basechar 0
Fore
86.4004 0 m 1,0,-1
 86.4004 121 l 1,1,-1
 258.3 121 l 1,2,-1
 258.3 1372 l 1,3,-1
 86.4004 1372 l 1,4,-1
 86.4004 1493 l 1,5,-1
 777.6 1493 l 1,6,-1
 777.6 1372 l 1,7,-1
 604.8 1372 l 1,8,-1
 604.8 121 l 1,9,-1
 777.6 121 l 1,10,-1
 777.6 0 l 1,11,-1
 86.4004 0 l 1,0,-1
EndSplineSet
EndChar
StartChar: J
Encoding: 74 74 74
Width: 872
Flags: W
AnchorPoint: "below" 281.7 -430 basechar 0
AnchorPoint: "above" 443.7 1465 basechar 0
Fore
-135 -358 m 1,0,-1
 -135 -123 l 1,1,-1
 -18 -123 l 1,2,3
 -12.5996 -217 -12.5996 -217 22.0498 -261 c 128,-1,4
 56.7002 -305 56.7002 -305 125.1 -305 c 0,5,6
 212.4 -305 212.4 -305 247.05 -230.5 c 128,-1,7
 281.7 -156 281.7 -156 281.7 49 c 2,8,-1
 281.7 1372 l 1,9,-1
 86.4004 1372 l 1,10,-1
 86.4004 1493 l 1,11,-1
 801.9 1493 l 1,12,-1
 801.9 1372 l 1,13,-1
 630 1372 l 1,14,-1
 630 41 l 2,15,16
 630 -202 630 -202 519.75 -314 c 128,-1,17
 409.5 -426 409.5 -426 169.2 -426 c 0,18,19
 94.5 -426 94.5 -426 18.9004 -409 c 128,-1,20
 -56.7002 -392 -56.7002 -392 -135 -358 c 1,0,-1
EndSplineSet
EndChar
StartChar: K
Encoding: 75 75 75
Width: 1602
Flags: W
AnchorPoint: "below" 921.6 0 basechar 0
AnchorPoint: "above" 921.6 1460 basechar 0
Fore
86.4004 0 m 1,0,-1
 86.4004 121 l 1,1,-1
 258.3 121 l 1,2,-1
 258.3 1372 l 1,3,-1
 86.4004 1372 l 1,4,-1
 86.4004 1493 l 1,5,-1
 777.6 1493 l 1,6,-1
 777.6 1372 l 1,7,-1
 604.8 1372 l 1,8,-1
 604.8 827 l 1,9,-1
 1174.5 1372 l 1,10,-1
 1030.5 1372 l 1,11,-1
 1030.5 1493 l 1,12,-1
 1531.8 1493 l 1,13,-1
 1531.8 1372 l 1,14,-1
 1352.7 1372 l 1,15,-1
 870.3 911 l 1,16,-1
 1526.4 121 l 1,17,-1
 1658.7 121 l 1,18,-1
 1658.7 0 l 1,19,-1
 1203.3 0 l 1,20,-1
 604.8 725 l 1,21,-1
 604.8 121 l 1,22,-1
 777.6 121 l 1,23,-1
 777.6 0 l 1,24,-1
 86.4004 0 l 1,0,-1
EndSplineSet
EndChar
StartChar: L
Encoding: 76 76 76
Width: 1296
Flags: W
AnchorPoint: "above" 431.1 1465 basechar 0
AnchorPoint: "below" 724.5 0 basechar 0
Fore
86.4004 0 m 1,0,-1
 86.4004 121 l 1,1,-1
 258.3 121 l 1,2,-1
 258.3 1372 l 1,3,-1
 86.4004 1372 l 1,4,-1
 86.4004 1493 l 1,5,-1
 777.6 1493 l 1,6,-1
 777.6 1372 l 1,7,-1
 604.8 1372 l 1,8,-1
 604.8 137 l 1,9,-1
 1134 137 l 1,10,-1
 1134 373 l 1,11,-1
 1255.5 373 l 1,12,-1
 1255.5 0 l 1,13,-1
 86.4004 0 l 1,0,-1
EndSplineSet
EndChar
StartChar: M
Encoding: 77 77 77
Width: 2040
Flags: W
AnchorPoint: "above" 975.6 1460 basechar 0
AnchorPoint: "below" 975.6 0 basechar 0
Fore
77.4004 0 m 1,0,-1
 77.4004 121 l 1,1,-1
 248.4 121 l 1,2,-1
 248.4 1372 l 1,3,-1
 77.4004 1372 l 1,4,-1
 77.4004 1493 l 1,5,-1
 631.8 1493 l 1,6,-1
 1015.2 535 l 1,7,-1
 1400.4 1493 l 1,8,-1
 1953.9 1493 l 1,9,-1
 1953.9 1372 l 1,10,-1
 1782 1372 l 1,11,-1
 1782 121 l 1,12,-1
 1953.9 121 l 1,13,-1
 1953.9 0 l 1,14,-1
 1262.7 0 l 1,15,-1
 1262.7 121 l 1,16,-1
 1433.7 121 l 1,17,-1
 1433.7 1260 l 1,18,-1
 1017 219 l 1,19,-1
 789.3 219 l 1,20,-1
 374.4 1260 l 1,21,-1
 374.4 121 l 1,22,-1
 545.4 121 l 1,23,-1
 545.4 0 l 1,24,-1
 77.4004 0 l 1,0,-1
EndSplineSet
EndChar
StartChar: N
Encoding: 78 78 78
Width: 1684
Flags: W
AnchorPoint: "below" 827.1 0 basechar 0
AnchorPoint: "above" 827.1 1465 basechar 0
Fore
81 0 m 1,0,-1
 81 121 l 1,1,-1
 252.9 121 l 1,2,-1
 252.9 1372 l 1,3,-1
 81 1372 l 1,4,-1
 81 1493 l 1,5,-1
 501.3 1493 l 1,6,-1
 1312.2 436 l 1,7,-1
 1312.2 1372 l 1,8,-1
 1141.2 1372 l 1,9,-1
 1141.2 1493 l 1,10,-1
 1611 1493 l 1,11,-1
 1611 1372 l 1,12,-1
 1439.1 1372 l 1,13,-1
 1439.1 0 l 1,14,-1
 1203.3 0 l 1,15,-1
 379.8 1079 l 1,16,-1
 379.8 121 l 1,17,-1
 550.8 121 l 1,18,-1
 550.8 0 l 1,19,-1
 81 0 l 1,0,-1
EndSplineSet
EndChar
StartChar: O
Encoding: 79 79 79
Width: 1605
Flags: W
AnchorPoint: "below" 803.7 0 basechar 0
AnchorPoint: "above" 803.7 1465 basechar 0
Fore
801.9 92 m 0,0,1
 973.8 92 973.8 92 1057.5 253 c 128,-1,2
 1141.2 414 1141.2 414 1141.2 745 c 0,3,4
 1141.2 1077 1141.2 1077 1057.5 1238 c 128,-1,5
 973.8 1399 973.8 1399 801.9 1399 c 0,6,7
 630.9 1399 630.9 1399 546.75 1236.5 c 128,-1,8
 462.6 1074 462.6 1074 462.6 745 c 0,9,10
 462.6 417 462.6 417 546.75 254.5 c 128,-1,11
 630.9 92 630.9 92 801.9 92 c 0,0,1
801.9 -29 m 0,12,13
 462.6 -29 462.6 -29 270 177 c 128,-1,14
 77.4004 383 77.4004 383 77.4004 745 c 0,15,16
 77.4004 1107 77.4004 1107 270.45 1313.5 c 128,-1,17
 463.5 1520 463.5 1520 801.9 1520 c 0,18,19
 1141.2 1520 1141.2 1520 1333.8 1314 c 128,-1,20
 1526.4 1108 1526.4 1108 1526.4 745 c 0,21,22
 1526.4 383 1526.4 383 1333.35 177 c 128,-1,23
 1140.3 -29 1140.3 -29 801.9 -29 c 0,12,13
EndSplineSet
EndChar
StartChar: P
Encoding: 80 80 80
Width: 1386
Flags: W
AnchorPoint: "below" 431.1 0 basechar 0
AnchorPoint: "above" 778.5 1465 basechar 0
Fore
86.4004 0 m 1,0,-1
 86.4004 121 l 1,1,-1
 258.3 121 l 1,2,-1
 258.3 1372 l 1,3,-1
 86.4004 1372 l 1,4,-1
 86.4004 1493 l 1,5,-1
 851.4 1493 l 2,6,7
 1075.5 1493 1075.5 1493 1207.8 1374.5 c 128,-1,8
 1340.1 1256 1340.1 1256 1340.1 1057 c 0,9,10
 1340.1 857 1340.1 857 1207.35 737.5 c 128,-1,11
 1074.6 618 1074.6 618 851.4 618 c 2,12,-1
 604.8 618 l 1,13,-1
 604.8 121 l 1,14,-1
 821.7 121 l 1,15,-1
 821.7 0 l 1,16,-1
 86.4004 0 l 1,0,-1
604.8 739 m 1,17,-1
 705.6 739 l 2,18,19
 822.6 739 822.6 739 892.35 825.5 c 128,-1,20
 962.1 912 962.1 912 962.1 1057 c 0,21,22
 962.1 1201 962.1 1201 892.8 1286.5 c 128,-1,23
 823.5 1372 823.5 1372 705.6 1372 c 2,24,-1
 604.8 1372 l 1,25,-1
 604.8 739 l 1,17,-1
EndSplineSet
EndChar
StartChar: Q
Encoding: 81 81 81
Width: 1605
Flags: W
AnchorPoint: "above" 803.7 1465 basechar 0
AnchorPoint: "below" 803.7 -369 basechar 0
Fore
796.5 -29 m 1,0,1
 456.3 -23 456.3 -23 266.85 181 c 128,-1,2
 77.4004 385 77.4004 385 77.4004 745 c 0,3,4
 77.4004 1107 77.4004 1107 270.45 1313.5 c 128,-1,5
 463.5 1520 463.5 1520 801.9 1520 c 0,6,7
 1141.2 1520 1141.2 1520 1333.8 1314 c 128,-1,8
 1526.4 1108 1526.4 1108 1526.4 745 c 0,9,10
 1526.4 427 1526.4 427 1378.35 229 c 128,-1,11
 1230.3 31 1230.3 31 956.7 -16 c 1,12,13
 1004.4 -73 1004.4 -73 1072.8 -98 c 128,-1,14
 1141.2 -123 1141.2 -123 1250.1 -123 c 2,15,-1
 1296 -123 l 1,16,-1
 1296 -369 l 1,17,-1
 1269.9 -369 l 2,18,19
 1098.9 -369 1098.9 -369 984.6 -287 c 128,-1,20
 870.3 -205 870.3 -205 796.5 -29 c 1,0,1
801.9 92 m 0,21,22
 973.8 92 973.8 92 1057.5 253 c 128,-1,23
 1141.2 414 1141.2 414 1141.2 745 c 0,24,25
 1141.2 1077 1141.2 1077 1057.5 1238 c 128,-1,26
 973.8 1399 973.8 1399 801.9 1399 c 0,27,28
 630.9 1399 630.9 1399 546.75 1236.5 c 128,-1,29
 462.6 1074 462.6 1074 462.6 745 c 0,30,31
 462.6 417 462.6 417 546.75 254.5 c 128,-1,32
 630.9 92 630.9 92 801.9 92 c 0,21,22
EndSplineSet
EndChar
StartChar: R
Encoding: 82 82 82
Width: 1531
Flags: W
AnchorPoint: "below" 778.5 0 basechar 0
AnchorPoint: "above" 778.5 1465 basechar 0
Fore
978.3 729 m 1,0,1
 1058.4 716 1058.4 716 1113.3 670 c 128,-1,2
 1168.2 624 1168.2 624 1208.7 537 c 2,3,-1
 1404.9 121 l 1,4,-1
 1542.6 121 l 1,5,-1
 1542.6 0 l 1,6,-1
 1100.7 0 l 1,7,-1
 886.5 451 l 1,8,9
 824.4 591 824.4 591 780.75 629.5 c 128,-1,10
 737.1 668 737.1 668 659.7 668 c 2,11,-1
 604.8 668 l 1,12,-1
 604.8 121 l 1,13,-1
 777.6 121 l 1,14,-1
 777.6 0 l 1,15,-1
 86.4004 0 l 1,16,-1
 86.4004 121 l 1,17,-1
 258.3 121 l 1,18,-1
 258.3 1372 l 1,19,-1
 86.4004 1372 l 1,20,-1
 86.4004 1493 l 1,21,-1
 853.2 1493 l 2,22,23
 1087.2 1493 1087.2 1493 1214.55 1388.5 c 128,-1,24
 1341.9 1284 1341.9 1284 1341.9 1092 c 0,25,26
 1341.9 936 1341.9 936 1251.45 845.5 c 128,-1,27
 1161 755 1161 755 978.3 729 c 1,0,1
604.8 788 m 1,28,-1
 722.7 788 l 2,29,30
 848.7 788 848.7 788 916.65 864 c 128,-1,31
 984.6 940 984.6 940 984.6 1081 c 0,32,33
 984.6 1222 984.6 1222 916.65 1297 c 128,-1,34
 848.7 1372 848.7 1372 722.7 1372 c 2,35,-1
 604.8 1372 l 1,36,-1
 604.8 788 l 1,28,-1
EndSplineSet
EndChar
StartChar: S
Encoding: 83 83 83
Width: 1331
Flags: W
AnchorPoint: "below" 656.1 0 basechar 0
AnchorPoint: "above" 656.1 1465 basechar 0
Fore
142.2 72 m 1,0,-1
 142.2 426 l 1,1,-1
 256.5 426 l 1,2,3
 282.6 258 282.6 258 379.8 175 c 128,-1,4
 477 92 477 92 648.9 92 c 0,5,6
 788.4 92 788.4 92 861.3 151 c 128,-1,7
 934.2 210 934.2 210 934.2 324 c 0,8,9
 934.2 414 934.2 414 884.7 464 c 128,-1,10
 835.2 514 835.2 514 680.4 557 c 2,11,-1
 478.8 612 l 1,12,13
 281.7 668 281.7 668 201.6 767.5 c 128,-1,14
 121.5 867 121.5 867 121.5 1051 c 0,15,16
 121.5 1273 121.5 1273 254.25 1396.5 c 128,-1,17
 387 1520 387 1520 626.4 1520 c 0,18,19
 744.3 1520 744.3 1520 871.65 1498 c 128,-1,20
 999 1476 999 1476 1135.8 1432 c 1,21,-1
 1135.8 1102 l 1,22,-1
 1021.5 1102 l 1,23,24
 995.4 1256 995.4 1256 907.2 1327.5 c 128,-1,25
 819 1399 819 1399 656.1 1399 c 0,26,27
 522.9 1399 522.9 1399 454.95 1347.5 c 128,-1,28
 387 1296 387 1296 387 1194 c 0,29,30
 387 1101 387 1101 433.8 1052.5 c 128,-1,31
 480.6 1004 480.6 1004 663.3 952 c 1,32,-1
 864.9 897 l 2,33,34
 1052.1 845 1052.1 845 1136.25 735 c 128,-1,35
 1220.4 625 1220.4 625 1220.4 432 c 0,36,37
 1220.4 206 1220.4 206 1080 88.5 c 128,-1,38
 939.6 -29 939.6 -29 666.9 -29 c 0,39,40
 535.5 -29 535.5 -29 405.9 -4 c 128,-1,41
 276.3 21 276.3 21 142.2 72 c 1,0,-1
EndSplineSet
EndChar
StartChar: T
Encoding: 84 84 84
Width: 1371
Flags: W
AnchorPoint: "below" 692.1 0 basechar 0
AnchorPoint: "above" 692.1 1465 basechar 0
Fore
333.9 0 m 1,0,-1
 333.9 121 l 1,1,-1
 512.1 121 l 1,2,-1
 512.1 1356 l 1,3,-1
 144 1356 l 1,4,-1
 144 1120 l 1,5,-1
 20.7002 1120 l 1,6,-1
 20.7002 1493 l 1,7,-1
 1352.7 1493 l 1,8,-1
 1352.7 1120 l 1,9,-1
 1231.2 1120 l 1,10,-1
 1231.2 1356 l 1,11,-1
 860.4 1356 l 1,12,-1
 860.4 121 l 1,13,-1
 1039.5 121 l 1,14,-1
 1039.5 0 l 1,15,-1
 333.9 0 l 1,0,-1
EndSplineSet
EndChar
StartChar: U
Encoding: 85 85 85
Width: 1607
Flags: W
AnchorPoint: "below" 849.6 0 basechar 0
AnchorPoint: "above" 849.6 1465 basechar 0
Fore
234 1372 m 1,0,-1
 63 1372 l 1,1,-1
 63 1493 l 1,2,-1
 754.2 1493 l 1,3,-1
 754.2 1372 l 1,4,-1
 582.3 1372 l 1,5,-1
 582.3 625 l 2,6,7
 582.3 346 582.3 346 660.6 234.5 c 128,-1,8
 738.9 123 738.9 123 928.8 123 c 0,9,10
 1114.2 123 1114.2 123 1192.05 235.5 c 128,-1,11
 1269.9 348 1269.9 348 1269.9 625 c 2,12,-1
 1269.9 1372 l 1,13,-1
 1098.9 1372 l 1,14,-1
 1098.9 1493 l 1,15,-1
 1566.9 1493 l 1,16,-1
 1566.9 1372 l 1,17,-1
 1395 1372 l 1,18,-1
 1395 604 l 2,19,20
 1395 262 1395 262 1261.8 116.5 c 128,-1,21
 1128.6 -29 1128.6 -29 814.5 -29 c 0,22,23
 502.2 -29 502.2 -29 368.1 118 c 128,-1,24
 234 265 234 265 234 606 c 2,25,-1
 234 1372 l 1,0,-1
EndSplineSet
EndChar
StartChar: V
Encoding: 86 86 86
Width: 1430
Flags: W
AnchorPoint: "above" 714.6 1465 basechar 0
AnchorPoint: "below" 714.6 0 basechar 0
Fore
1456.2 1493 m 1,0,-1
 1456.2 1372 l 1,1,-1
 1343.7 1372 l 1,2,-1
 837 0 l 1,3,-1
 622.8 0 l 1,4,-1
 116.1 1372 l 1,5,-1
 -10.7998 1372 l 1,6,-1
 -10.7998 1493 l 1,7,-1
 619.2 1493 l 1,8,-1
 619.2 1372 l 1,9,-1
 488.7 1372 l 1,10,-1
 851.4 383 l 1,11,-1
 1216.8 1372 l 1,12,-1
 1056.6 1372 l 1,13,-1
 1056.6 1493 l 1,14,-1
 1456.2 1493 l 1,0,-1
EndSplineSet
EndChar
StartChar: W
Encoding: 87 87 87
Width: 2070
Flags: W
AnchorPoint: "below" 1037.7 5 basechar 0
AnchorPoint: "above" 1037.7 1465 basechar 0
Fore
1570.5 0 m 1,0,-1
 1338.3 0 l 1,1,-1
 1034.1 1087 l 1,2,-1
 729.9 0 l 1,3,-1
 497.7 0 l 1,4,-1
 114.3 1372 l 1,5,-1
 -16.2002 1372 l 1,6,-1
 -16.2002 1493 l 1,7,-1
 621 1493 l 1,8,-1
 621 1372 l 1,9,-1
 477 1372 l 1,10,-1
 733.5 455 l 1,11,-1
 1023.3 1493 l 1,12,-1
 1278.9 1493 l 1,13,-1
 1574.1 438 l 1,14,-1
 1836 1372 l 1,15,-1
 1675.8 1372 l 1,16,-1
 1675.8 1493 l 1,17,-1
 2091.6 1493 l 1,18,-1
 2091.6 1372 l 1,19,-1
 1953.9 1372 l 1,20,-1
 1570.5 0 l 1,0,-1
EndSplineSet
EndChar
StartChar: X
Encoding: 88 88 88
Width: 1430
Flags: W
AnchorPoint: "below" 714.6 0 basechar 0
AnchorPoint: "above" 714.6 1465 basechar 0
Fore
624.6 575 m 1,0,-1
 344.7 121 l 1,1,-1
 510.3 121 l 1,2,-1
 510.3 0 l 1,3,-1
 33.2998 0 l 1,4,-1
 33.2998 121 l 1,5,-1
 198.9 121 l 1,6,-1
 552.6 692 l 1,7,-1
 132.3 1372 l 1,8,-1
 9 1372 l 1,9,-1
 9 1493 l 1,10,-1
 676.8 1493 l 1,11,-1
 676.8 1372 l 1,12,-1
 529.2 1372 l 1,13,-1
 789.3 952 l 1,14,-1
 1046.7 1372 l 1,15,-1
 890.1 1372 l 1,16,-1
 890.1 1493 l 1,17,-1
 1358.1 1493 l 1,18,-1
 1358.1 1372 l 1,19,-1
 1192.5 1372 l 1,20,-1
 860.4 836 l 1,21,-1
 1301.4 121 l 1,22,-1
 1428.3 121 l 1,23,-1
 1428.3 0 l 1,24,-1
 757.8 0 l 1,25,-1
 757.8 121 l 1,26,-1
 907.2 121 l 1,27,-1
 624.6 575 l 1,0,-1
EndSplineSet
EndChar
StartChar: Y
Encoding: 89 89 89
Width: 1315
Flags: W
AnchorPoint: "below" 657.9 0 basechar 0
AnchorPoint: "above" 657.9 1465 basechar 0
Fore
316.8 0 m 1,0,-1
 316.8 121 l 1,1,-1
 497.7 121 l 1,2,-1
 497.7 618 l 1,3,-1
 98.0996 1372 l 1,4,-1
 -16.2002 1372 l 1,5,-1
 -16.2002 1493 l 1,6,-1
 628.2 1493 l 1,7,-1
 628.2 1372 l 1,8,-1
 478.8 1372 l 1,9,-1
 781.2 803 l 1,10,-1
 1081.8 1372 l 1,11,-1
 947.7 1372 l 1,12,-1
 947.7 1493 l 1,13,-1
 1332.9 1493 l 1,14,-1
 1332.9 1372 l 1,15,-1
 1218.6 1372 l 1,16,-1
 846 670 l 1,17,-1
 846 121 l 1,18,-1
 1026.9 121 l 1,19,-1
 1026.9 0 l 1,20,-1
 316.8 0 l 1,0,-1
EndSplineSet
EndChar
StartChar: Z
Encoding: 90 90 90
Width: 1345
Flags: W
AnchorPoint: "below" 673.2 0 basechar 0
AnchorPoint: "above" 673.2 1465 basechar 0
Fore
68.4004 0 m 1,0,-1
 68.4004 141 l 1,1,-1
 870.3 1356 l 1,2,-1
 226.8 1356 l 1,3,-1
 226.8 1133 l 1,4,-1
 103.5 1133 l 1,5,-1
 103.5 1493 l 1,6,-1
 1269.9 1493 l 1,7,-1
 1269.9 1352 l 1,8,-1
 477 137 l 1,9,-1
 1155.6 137 l 1,10,-1
 1155.6 346 l 1,11,-1
 1278.9 346 l 1,12,-1
 1278.9 0 l 1,13,-1
 68.4004 0 l 1,0,-1
EndSplineSet
EndChar
StartChar: bracketleft
Encoding: 91 91 91
Width: 872
Flags: W
Fore
230.4 1556 m 1,0,-1
 740.7 1556 l 1,1,-1
 740.7 1436 l 1,2,-1
 549 1436 l 1,3,-1
 549 -150 l 1,4,-1
 740.7 -150 l 1,5,-1
 740.7 -270 l 1,6,-1
 230.4 -270 l 1,7,-1
 230.4 1556 l 1,0,-1
EndSplineSet
EndChar
StartChar: backslash
Encoding: 92 92 92
Width: 673
Flags: W
Fore
198.9 1493 m 1,0,-1
 673.2 -190 l 1,1,-1
 473.4 -190 l 1,2,-1
 0 1493 l 1,3,-1
 198.9 1493 l 1,0,-1
EndSplineSet
EndChar
StartChar: bracketright
Encoding: 93 93 93
Width: 872
Flags: W
Fore
641.7 1556 m 1,0,-1
 641.7 -270 l 1,1,-1
 130.5 -270 l 1,2,-1
 130.5 -150 l 1,3,-1
 322.2 -150 l 1,4,-1
 322.2 1436 l 1,5,-1
 130.5 1436 l 1,6,-1
 130.5 1556 l 1,7,-1
 641.7 1556 l 1,0,-1
EndSplineSet
EndChar
StartChar: asciicircum
Encoding: 94 94 94
Width: 1544
Flags: W
Fore
875.7 1493 m 1,0,-1
 1358.1 936 l 1,1,-1
 1166.4 936 l 1,2,-1
 772.2 1251 l 1,3,-1
 378 936 l 1,4,-1
 186.3 936 l 1,5,-1
 675 1493 l 1,6,-1
 875.7 1493 l 1,0,-1
EndSplineSet
EndChar
StartChar: underscore
Encoding: 95 95 95
Width: 921
Flags: W
Fore
921.6 -293 m 1,0,-1
 921.6 -483 l 1,1,-1
 0 -483 l 1,2,-1
 0 -293 l 1,3,-1
 921.6 -293 l 1,0,-1
EndSplineSet
EndChar
StartChar: grave
Encoding: 96 96 96
Width: 921
Flags: W
Fore
378 1638 m 1,0,-1
 610.2 1262 l 1,1,-1
 462.6 1262 l 1,2,-1
 126.9 1638 l 1,3,-1
 378 1638 l 1,0,-1
EndSplineSet
EndChar
StartChar: a
Encoding: 97 97 97
Width: 1194
Flags: W
AnchorPoint: "below" 540 0 basechar 0
AnchorPoint: "above" 540 1092 basechar 0
Fore
1015.2 653 m 2,0,-1
 1015.2 121 l 1,1,-1
 1152 121 l 1,2,-1
 1152 0 l 1,3,-1
 696.6 0 l 1,4,-1
 696.6 135 l 1,5,6
 633.6 51 633.6 51 556.2 11 c 128,-1,7
 478.8 -29 478.8 -29 379.8 -29 c 0,8,9
 233.1 -29 233.1 -29 154.35 58.5 c 128,-1,10
 75.5996 146 75.5996 146 75.5996 309 c 0,11,12
 75.5996 488 75.5996 488 188.55 577 c 128,-1,13
 301.5 666 301.5 666 529.2 666 c 2,14,-1
 696.6 666 l 1,15,-1
 696.6 729 l 2,16,17
 696.6 858 696.6 858 641.7 919.5 c 128,-1,18
 586.8 981 586.8 981 471.6 981 c 0,19,20
 376.2 981 376.2 981 324.45 937.5 c 128,-1,21
 272.7 894 272.7 894 251.1 795 c 1,22,-1
 149.4 795 l 1,23,-1
 149.4 1024 l 1,24,25
 234.9 1058 234.9 1058 326.7 1075 c 128,-1,26
 418.5 1092 418.5 1092 520.2 1092 c 0,27,28
 776.7 1092 776.7 1092 895.95 986 c 128,-1,29
 1015.2 880 1015.2 880 1015.2 653 c 2,0,-1
696.6 334 m 2,30,-1
 696.6 547 l 1,31,-1
 576.9 547 l 2,32,33
 487.8 547 487.8 547 440.1 493 c 128,-1,34
 392.4 439 392.4 439 392.4 338 c 0,35,36
 392.4 237 392.4 237 427.05 187 c 128,-1,37
 461.7 137 461.7 137 532.8 137 c 0,38,39
 606.6 137 606.6 137 651.6 191 c 128,-1,40
 696.6 245 696.6 245 696.6 334 c 2,30,-1
EndSplineSet
EndChar
StartChar: b
Encoding: 98 98 98
Width: 1288
Flags: W
AnchorPoint: "below" 605.7 0 basechar 0
AnchorPoint: "above" 291.6 1465 basechar 0
Fore
179.1 121 m 1,0,-1
 179.1 1436 l 1,1,-1
 42.2998 1436 l 1,2,-1
 42.2998 1556 l 1,3,-1
 497.7 1556 l 1,4,-1
 497.7 928 l 1,5,6
 538.2 1011 538.2 1011 606.6 1051.5 c 128,-1,7
 675 1092 675 1092 775.8 1092 c 0,8,9
 980.1 1092 980.1 1092 1097.55 942.5 c 128,-1,10
 1215 793 1215 793 1215 532 c 0,11,12
 1215 271 1215 271 1097.55 121 c 128,-1,13
 980.1 -29 980.1 -29 775.8 -29 c 0,14,15
 675 -29 675 -29 606.6 11.5 c 128,-1,16
 538.2 52 538.2 52 497.7 135 c 1,17,-1
 497.7 0 l 1,18,-1
 42.2998 0 l 1,19,-1
 42.2998 121 l 1,20,-1
 179.1 121 l 1,0,-1
497.7 479 m 2,21,22
 497.7 293 497.7 293 540.45 210 c 128,-1,23
 583.2 127 583.2 127 678.6 127 c 0,24,25
 776.7 127 776.7 127 816.75 215 c 128,-1,26
 856.8 303 856.8 303 856.8 532 c 0,27,28
 856.8 761 856.8 761 816.75 848.5 c 128,-1,29
 776.7 936 776.7 936 678.6 936 c 0,30,31
 583.2 936 583.2 936 540.45 853 c 128,-1,32
 497.7 770 497.7 770 497.7 584 c 2,33,-1
 497.7 479 l 2,21,22
EndSplineSet
EndChar
StartChar: c
Encoding: 99 99 99
Width: 1122
Flags: W
AnchorPoint: "below" 597.6 0 basechar 0
AnchorPoint: "above" 597.6 1092 basechar 0
Fore
1039.5 332 m 1,0,1
 1005.3 150 1005.3 150 899.55 60.5 c 128,-1,2
 793.8 -29 793.8 -29 612 -29 c 0,3,4
 356.4 -29 356.4 -29 216 118 c 128,-1,5
 75.5996 265 75.5996 265 75.5996 532 c 0,6,7
 75.5996 796 75.5996 796 214.2 944 c 128,-1,8
 352.8 1092 352.8 1092 599.4 1092 c 0,9,10
 699.3 1092 699.3 1092 801 1071 c 128,-1,11
 902.7 1050 902.7 1050 1008 1008 c 1,12,-1
 1008 713 l 1,13,-1
 907.2 713 l 1,14,15
 892.8 848 892.8 848 836.1 913.5 c 128,-1,16
 779.4 979 779.4 979 676.8 979 c 0,17,18
 543.6 979 543.6 979 487.35 879 c 128,-1,19
 431.1 779 431.1 779 431.1 532 c 0,20,21
 431.1 291 431.1 291 486 187.5 c 128,-1,22
 540.9 84 540.9 84 665.1 84 c 0,23,24
 761.4 84 761.4 84 819.45 148 c 128,-1,25
 877.5 212 877.5 212 890.1 332 c 1,26,-1
 1039.5 332 l 1,0,1
EndSplineSet
EndChar
StartChar: d
Encoding: 100 100 100
Width: 1288
Flags: W
AnchorPoint: "below" 612.9 0 basechar 0
AnchorPoint: "above" 881.1 1465 basechar 0
Fore
791.1 479 m 2,0,-1
 791.1 584 l 2,1,2
 791.1 770 791.1 770 747.9 853 c 128,-1,3
 704.7 936 704.7 936 610.2 936 c 0,4,5
 511.2 936 511.2 936 471.15 848.5 c 128,-1,6
 431.1 761 431.1 761 431.1 532 c 0,7,8
 431.1 303 431.1 303 471.6 215 c 128,-1,9
 512.1 127 512.1 127 610.2 127 c 0,10,11
 704.7 127 704.7 127 747.9 210 c 128,-1,12
 791.1 293 791.1 293 791.1 479 c 2,0,-1
1109.7 121 m 1,13,-1
 1245.6 121 l 1,14,-1
 1245.6 0 l 1,15,-1
 791.1 0 l 1,16,-1
 791.1 135 l 1,17,18
 750.6 52 750.6 52 681.75 11.5 c 128,-1,19
 612.9 -29 612.9 -29 512.1 -29 c 0,20,21
 308.7 -29 308.7 -29 192.15 121 c 128,-1,22
 75.5996 271 75.5996 271 75.5996 532 c 0,23,24
 75.5996 794 75.5996 794 192.15 943 c 128,-1,25
 308.7 1092 308.7 1092 512.1 1092 c 0,26,27
 612.9 1092 612.9 1092 681.75 1051.5 c 128,-1,28
 750.6 1011 750.6 1011 791.1 928 c 1,29,-1
 791.1 1436 l 1,30,-1
 654.3 1436 l 1,31,-1
 654.3 1556 l 1,32,-1
 1109.7 1556 l 1,33,-1
 1109.7 121 l 1,13,-1
EndSplineSet
EndChar
StartChar: e
Encoding: 101 101 101
Width: 1172
Flags: W
AnchorPoint: "below" 585.9 0 basechar 0
AnchorPoint: "above" 585.9 1092 basechar 0
Fore
738.9 600 m 1,0,1
 738.9 810 738.9 810 703.8 894.5 c 128,-1,2
 668.7 979 668.7 979 584.1 979 c 0,3,4
 502.2 979 502.2 979 466.65 896 c 128,-1,5
 431.1 813 431.1 813 431.1 618 c 2,6,-1
 431.1 600 l 1,7,-1
 738.9 600 l 1,0,1
1089 481 m 1,8,-1
 431.1 481 l 1,9,-1
 431.1 473 l 2,10,11
 431.1 267 431.1 267 486.9 175.5 c 128,-1,12
 542.7 84 542.7 84 666.9 84 c 0,13,14
 770.4 84 770.4 84 834.3 145 c 128,-1,15
 898.2 206 898.2 206 916.2 322 c 1,16,-1
 1065.6 322 l 1,17,18
 1026.9 141 1026.9 141 911.7 56 c 128,-1,19
 796.5 -29 796.5 -29 589.5 -29 c 0,20,21
 341.1 -29 341.1 -29 208.35 116.5 c 128,-1,22
 75.5996 262 75.5996 262 75.5996 532 c 0,23,24
 75.5996 796 75.5996 796 211.5 944 c 128,-1,25
 347.4 1092 347.4 1092 589.5 1092 c 0,26,27
 827.1 1092 827.1 1092 954 936.5 c 128,-1,28
 1080.9 781 1080.9 781 1089 481 c 1,8,-1
EndSplineSet
EndChar
StartChar: f
Encoding: 102 102 102
Width: 792
Flags: W
AnchorPoint: "below" 342.9 0 basechar 0
AnchorPoint: "above" 521.1 1465 basechar 0
Fore
891.9 1290 m 1,0,-1
 791.1 1290 l 1,1,2
 783.9 1368 783.9 1368 750.15 1406 c 128,-1,3
 716.4 1444 716.4 1444 654.3 1444 c 0,4,5
 582.3 1444 582.3 1444 549.9 1386.5 c 128,-1,6
 517.5 1329 517.5 1329 517.5 1200 c 2,7,-1
 517.5 1063 l 1,8,-1
 757.8 1063 l 1,9,-1
 757.8 942 l 1,10,-1
 517.5 942 l 1,11,-1
 517.5 121 l 1,12,-1
 702 121 l 1,13,-1
 702 0 l 1,14,-1
 63 0 l 1,15,-1
 63 121 l 1,16,-1
 198.9 121 l 1,17,-1
 198.9 942 l 1,18,-1
 56.7002 942 l 1,19,-1
 56.7002 1063 l 1,20,-1
 198.9 1063 l 1,21,-1
 198.9 1196 l 2,22,23
 198.9 1373 198.9 1373 300.6 1464.5 c 128,-1,24
 402.3 1556 402.3 1556 599.4 1556 c 0,25,26
 675.9 1556 675.9 1556 748.8 1546.5 c 128,-1,27
 821.7 1537 821.7 1537 891.9 1518 c 1,28,-1
 891.9 1290 l 1,0,-1
EndSplineSet
EndChar
StartChar: g
Encoding: 103 103 103
Width: 1288
Flags: W
AnchorPoint: "below" 610.2 -430 basechar 0
AnchorPoint: "above" 610.2 1092 basechar 0
Fore
1109.7 942 m 1,0,-1
 1109.7 14 l 2,1,2
 1109.7 -210 1109.7 -210 966.15 -332.5 c 128,-1,3
 822.6 -455 822.6 -455 560.7 -455 c 0,4,5
 465.3 -455 465.3 -455 367.2 -438.5 c 128,-1,6
 269.1 -422 269.1 -422 165.6 -389 c 1,7,-1
 165.6 -135 l 1,8,-1
 267.3 -135 l 1,9,10
 280.8 -240 280.8 -240 343.35 -291 c 128,-1,11
 405.9 -342 405.9 -342 522 -342 c 0,12,13
 669.6 -342 669.6 -342 730.35 -263.5 c 128,-1,14
 791.1 -185 791.1 -185 791.1 14 c 2,15,-1
 791.1 135 l 1,16,17
 750.6 52 750.6 52 681.75 11.5 c 128,-1,18
 612.9 -29 612.9 -29 512.1 -29 c 0,19,20
 308.7 -29 308.7 -29 192.15 121 c 128,-1,21
 75.5996 271 75.5996 271 75.5996 532 c 0,22,23
 75.5996 794 75.5996 794 192.15 943 c 128,-1,24
 308.7 1092 308.7 1092 512.1 1092 c 0,25,26
 612.9 1092 612.9 1092 681.75 1051.5 c 128,-1,27
 750.6 1011 750.6 1011 791.1 928 c 1,28,-1
 791.1 1063 l 1,29,-1
 1245.6 1063 l 1,30,-1
 1245.6 942 l 1,31,-1
 1109.7 942 l 1,0,-1
791.1 584 m 2,32,33
 791.1 770 791.1 770 747.9 853 c 128,-1,34
 704.7 936 704.7 936 610.2 936 c 0,35,36
 511.2 936 511.2 936 471.15 848.5 c 128,-1,37
 431.1 761 431.1 761 431.1 532 c 0,38,39
 431.1 303 431.1 303 471.6 215 c 128,-1,40
 512.1 127 512.1 127 610.2 127 c 0,41,42
 704.7 127 704.7 127 747.9 210 c 128,-1,43
 791.1 293 791.1 293 791.1 479 c 2,44,-1
 791.1 584 l 2,32,33
EndSplineSet
EndChar
StartChar: h
Encoding: 104 104 104
Width: 1340
Flags: W
AnchorPoint: "below" 679.5 0 basechar 0
AnchorPoint: "above" 291.6 1465 basechar 0
Fore
63 0 m 1,0,-1
 63 121 l 1,1,-1
 198.9 121 l 1,2,-1
 198.9 1436 l 1,3,-1
 56.7002 1436 l 1,4,-1
 56.7002 1556 l 1,5,-1
 517.5 1556 l 1,6,-1
 517.5 913 l 1,7,8
 575.1 1008 575.1 1008 648.9 1050 c 128,-1,9
 722.7 1092 722.7 1092 835.2 1092 c 0,10,11
 996.3 1092 996.3 1092 1078.65 986.5 c 128,-1,12
 1161 881 1161 881 1161 676 c 2,13,-1
 1161 121 l 1,14,-1
 1297.8 121 l 1,15,-1
 1297.8 0 l 1,16,-1
 726.3 0 l 1,17,-1
 726.3 121 l 1,18,-1
 842.4 121 l 1,19,-1
 842.4 686 l 2,20,21
 842.4 821 842.4 821 811.35 873.5 c 128,-1,22
 780.3 926 780.3 926 703.8 926 c 0,23,24
 607.5 926 607.5 926 562.5 847.5 c 128,-1,25
 517.5 769 517.5 769 517.5 598 c 2,26,-1
 517.5 121 l 1,27,-1
 634.5 121 l 1,28,-1
 634.5 0 l 1,29,-1
 63 0 l 1,0,-1
EndSplineSet
EndChar
StartChar: i
Encoding: 105 105 105
Width: 700
Flags: W
AnchorPoint: "below" 342.9 0 basechar 0
AnchorPoint: "above" 342.9 1585 basechar 0
Fore
169.2 1364 m 0,0,1
 169.2 1445 169.2 1445 219.6 1500.5 c 128,-1,2
 270 1556 270 1556 342.9 1556 c 0,3,4
 414 1556 414 1556 463.95 1500.5 c 128,-1,5
 513.9 1445 513.9 1445 513.9 1364 c 0,6,7
 513.9 1285 513.9 1285 463.95 1229.5 c 128,-1,8
 414 1174 414 1174 342.9 1174 c 0,9,10
 270 1174 270 1174 219.6 1229 c 128,-1,11
 169.2 1284 169.2 1284 169.2 1364 c 0,0,1
517.5 121 m 1,12,-1
 654.3 121 l 1,13,-1
 654.3 0 l 1,14,-1
 63 0 l 1,15,-1
 63 121 l 1,16,-1
 198.9 121 l 1,17,-1
 198.9 942 l 1,18,-1
 63 942 l 1,19,-1
 63 1063 l 1,20,-1
 517.5 1063 l 1,21,-1
 517.5 121 l 1,12,-1
EndSplineSet
Substitution2: "Single Substitution - Dotless Form" dotlessi
EndChar
StartChar: j
Encoding: 106 106 106
Width: 666
Flags: W
AnchorPoint: "below" 197.1 -430 basechar 0
AnchorPoint: "above" 333.9 1585 basechar 0
Fore
160.2 1364 m 0,0,1
 160.2 1445 160.2 1445 210.15 1500.5 c 128,-1,2
 260.1 1556 260.1 1556 333.9 1556 c 0,3,4
 404.1 1556 404.1 1556 454.5 1500 c 128,-1,5
 504.9 1444 504.9 1444 504.9 1364 c 0,6,7
 504.9 1285 504.9 1285 454.95 1229.5 c 128,-1,8
 405 1174 405 1174 333.9 1174 c 0,9,10
 261 1174 261 1174 210.6 1229 c 128,-1,11
 160.2 1284 160.2 1284 160.2 1364 c 0,0,1
197.1 942 m 1,12,-1
 61.2002 942 l 1,13,-1
 61.2002 1063 l 1,14,-1
 515.7 1063 l 1,15,-1
 515.7 -125 l 2,16,17
 515.7 -288 515.7 -288 411.75 -371.5 c 128,-1,18
 307.8 -455 307.8 -455 105.3 -455 c 0,19,20
 51.2998 -455 51.2998 -455 -9.90039 -445 c 128,-1,21
 -71.0996 -435 -71.0996 -435 -136.8 -416 c 1,22,-1
 -136.8 -190 l 1,23,-1
 -35.0996 -191 l 1,24,25
 -33.2998 -271 -33.2998 -271 -6.75 -306.5 c 128,-1,26
 19.7998 -342 19.7998 -342 79.2002 -342 c 0,27,28
 144.9 -342 144.9 -342 171 -295 c 128,-1,29
 197.1 -248 197.1 -248 197.1 -125 c 2,30,-1
 197.1 942 l 1,12,-1
EndSplineSet
Substitution2: "Single Substitution - Dotless Form" dotlessj
EndChar
StartChar: k
Encoding: 107 107 107
Width: 1277
Flags: W
AnchorPoint: "below" 679.5 0 basechar 0
AnchorPoint: "above" 291.6 1465 basechar 0
Fore
638.1 0 m 1,0,-1
 63 0 l 1,1,-1
 63 121 l 1,2,-1
 198.9 121 l 1,3,-1
 198.9 1436 l 1,4,-1
 63 1436 l 1,5,-1
 63 1556 l 1,6,-1
 517.5 1556 l 1,7,-1
 517.5 557 l 1,8,-1
 903.6 942 l 1,9,-1
 789.3 942 l 1,10,-1
 789.3 1063 l 1,11,-1
 1225.8 1063 l 1,12,-1
 1225.8 942 l 1,13,-1
 1048.5 942 l 1,14,-1
 801.9 696 l 1,15,-1
 1205.1 121 l 1,16,-1
 1308.6 121 l 1,17,-1
 1308.6 0 l 1,18,-1
 759.6 0 l 1,19,-1
 759.6 121 l 1,20,-1
 872.1 121 l 1,21,-1
 606.6 500 l 1,22,-1
 517.5 412 l 1,23,-1
 517.5 121 l 1,24,-1
 638.1 121 l 1,25,-1
 638.1 0 l 1,0,-1
EndSplineSet
EndChar
StartChar: l
Encoding: 108 108 108
Width: 700
Flags: W
AnchorPoint: "below" 342.9 0 basechar 0
AnchorPoint: "above" 291.6 1465 basechar 0
Fore
517.5 121 m 1,0,-1
 654.3 121 l 1,1,-1
 654.3 0 l 1,2,-1
 63 0 l 1,3,-1
 63 121 l 1,4,-1
 198.9 121 l 1,5,-1
 198.9 1436 l 1,6,-1
 63 1436 l 1,7,-1
 63 1556 l 1,8,-1
 517.5 1556 l 1,9,-1
 517.5 121 l 1,0,-1
EndSplineSet
EndChar
StartChar: m
Encoding: 109 109 109
Width: 1950
Flags: W
AnchorPoint: "above" 985.5 1092 basechar 0
AnchorPoint: "below" 985.5 0 basechar 0
Fore
1118.7 889 m 1,0,1
 1185.3 995 1185.3 995 1262.7 1043.5 c 128,-1,2
 1340.1 1092 1340.1 1092 1443.6 1092 c 0,3,4
 1608.3 1092 1608.3 1092 1689.75 988.5 c 128,-1,5
 1771.2 885 1771.2 885 1771.2 676 c 2,6,-1
 1771.2 121 l 1,7,-1
 1908 121 l 1,8,-1
 1908 0 l 1,9,-1
 1338.3 0 l 1,10,-1
 1338.3 121 l 1,11,-1
 1452.6 121 l 1,12,-1
 1452.6 623 l 2,13,14
 1452.6 822 1452.6 822 1425.15 874 c 128,-1,15
 1397.7 926 1397.7 926 1323 926 c 0,16,17
 1238.4 926 1238.4 926 1191.6 853.5 c 128,-1,18
 1144.8 781 1144.8 781 1144.8 647 c 2,19,-1
 1144.8 121 l 1,20,-1
 1259.1 121 l 1,21,-1
 1259.1 0 l 1,22,-1
 711.9 0 l 1,23,-1
 711.9 121 l 1,24,-1
 826.2 121 l 1,25,-1
 826.2 623 l 2,26,27
 826.2 822 826.2 822 798.3 874 c 128,-1,28
 770.4 926 770.4 926 696.6 926 c 0,29,30
 611.1 926 611.1 926 564.3 853.5 c 128,-1,31
 517.5 781 517.5 781 517.5 647 c 2,32,-1
 517.5 121 l 1,33,-1
 631.8 121 l 1,34,-1
 631.8 0 l 1,35,-1
 63 0 l 1,36,-1
 63 121 l 1,37,-1
 198.9 121 l 1,38,-1
 198.9 942 l 1,39,-1
 63 942 l 1,40,-1
 63 1063 l 1,41,-1
 517.5 1063 l 1,42,-1
 517.5 913 l 1,43,44
 573.3 1006 573.3 1006 645.3 1049 c 128,-1,45
 717.3 1092 717.3 1092 816.3 1092 c 0,46,47
 933.3 1092 933.3 1092 1006.2 1042.5 c 128,-1,48
 1079.1 993 1079.1 993 1118.7 889 c 1,0,1
EndSplineSet
EndChar
StartChar: n
Encoding: 110 110 110
Width: 1340
Flags: W
AnchorPoint: "below" 679.5 0 basechar 0
AnchorPoint: "above" 597.6 1092 basechar 0
Fore
63 0 m 1,0,-1
 63 121 l 1,1,-1
 198.9 121 l 1,2,-1
 198.9 942 l 1,3,-1
 63 942 l 1,4,-1
 63 1063 l 1,5,-1
 517.5 1063 l 1,6,-1
 517.5 913 l 1,7,8
 575.1 1008 575.1 1008 648.9 1050 c 128,-1,9
 722.7 1092 722.7 1092 835.2 1092 c 0,10,11
 996.3 1092 996.3 1092 1078.65 986.5 c 128,-1,12
 1161 881 1161 881 1161 676 c 2,13,-1
 1161 121 l 1,14,-1
 1297.8 121 l 1,15,-1
 1297.8 0 l 1,16,-1
 726.3 0 l 1,17,-1
 726.3 121 l 1,18,-1
 842.4 121 l 1,19,-1
 842.4 686 l 2,20,21
 842.4 821 842.4 821 811.35 873.5 c 128,-1,22
 780.3 926 780.3 926 703.8 926 c 0,23,24
 607.5 926 607.5 926 562.5 847.5 c 128,-1,25
 517.5 769 517.5 769 517.5 598 c 2,26,-1
 517.5 121 l 1,27,-1
 634.5 121 l 1,28,-1
 634.5 0 l 1,29,-1
 63 0 l 1,0,-1
EndSplineSet
EndChar
StartChar: o
Encoding: 111 111 111
Width: 1229
Flags: W
AnchorPoint: "below" 615.6 0 basechar 0
AnchorPoint: "above" 615.6 1092 basechar 0
Fore
615.6 84 m 0,0,1
 716.4 84 716.4 84 757.35 180 c 128,-1,2
 798.3 276 798.3 276 798.3 532 c 0,3,4
 798.3 788 798.3 788 757.8 883.5 c 128,-1,5
 717.3 979 717.3 979 615.6 979 c 0,6,7
 513.9 979 513.9 979 472.5 882.5 c 128,-1,8
 431.1 786 431.1 786 431.1 532 c 0,9,10
 431.1 278 431.1 278 472.5 181 c 128,-1,11
 513.9 84 513.9 84 615.6 84 c 0,0,1
615.6 -29 m 0,12,13
 362.7 -29 362.7 -29 219.15 120.5 c 128,-1,14
 75.5996 270 75.5996 270 75.5996 532 c 0,15,16
 75.5996 795 75.5996 795 219.15 943.5 c 128,-1,17
 362.7 1092 362.7 1092 615.6 1092 c 0,18,19
 869.4 1092 869.4 1092 1012.5 943.5 c 128,-1,20
 1155.6 795 1155.6 795 1155.6 532 c 0,21,22
 1155.6 270 1155.6 270 1012.05 120.5 c 128,-1,23
 868.5 -29 868.5 -29 615.6 -29 c 0,12,13
EndSplineSet
EndChar
StartChar: p
Encoding: 112 112 112
Width: 1288
Flags: W
AnchorPoint: "above" 678.6 1092 basechar 0
AnchorPoint: "below" 342.9 -430 basechar 0
Fore
497.7 584 m 2,0,-1
 497.7 479 l 2,1,2
 497.7 293 497.7 293 540.45 210 c 128,-1,3
 583.2 127 583.2 127 678.6 127 c 0,4,5
 776.7 127 776.7 127 816.75 215 c 128,-1,6
 856.8 303 856.8 303 856.8 532 c 0,7,8
 856.8 761 856.8 761 816.75 848.5 c 128,-1,9
 776.7 936 776.7 936 678.6 936 c 0,10,11
 583.2 936 583.2 936 540.45 853 c 128,-1,12
 497.7 770 497.7 770 497.7 584 c 2,0,-1
179.1 942 m 1,13,-1
 42.2998 942 l 1,14,-1
 42.2998 1063 l 1,15,-1
 497.7 1063 l 1,16,-1
 497.7 928 l 1,17,18
 538.2 1011 538.2 1011 606.6 1051.5 c 128,-1,19
 675 1092 675 1092 775.8 1092 c 0,20,21
 980.1 1092 980.1 1092 1097.55 942.5 c 128,-1,22
 1215 793 1215 793 1215 532 c 0,23,24
 1215 271 1215 271 1097.55 121 c 128,-1,25
 980.1 -29 980.1 -29 775.8 -29 c 0,26,27
 675 -29 675 -29 606.6 11.5 c 128,-1,28
 538.2 52 538.2 52 497.7 135 c 1,29,-1
 497.7 -305 l 1,30,-1
 645.3 -305 l 1,31,-1
 645.3 -426 l 1,32,-1
 42.2998 -426 l 1,33,-1
 42.2998 -305 l 1,34,-1
 179.1 -305 l 1,35,-1
 179.1 942 l 1,13,-1
EndSplineSet
EndChar
StartChar: q
Encoding: 113 113 113
Width: 1288
Flags: W
AnchorPoint: "above" 605.7 1092 basechar 0
AnchorPoint: "below" 950.4 -430 basechar 0
Fore
1109.7 942 m 1,0,-1
 1109.7 -305 l 1,1,-1
 1245.6 -305 l 1,2,-1
 1245.6 -426 l 1,3,-1
 643.5 -426 l 1,4,-1
 643.5 -305 l 1,5,-1
 791.1 -305 l 1,6,-1
 791.1 135 l 1,7,8
 750.6 52 750.6 52 681.75 11.5 c 128,-1,9
 612.9 -29 612.9 -29 512.1 -29 c 0,10,11
 308.7 -29 308.7 -29 192.15 121 c 128,-1,12
 75.5996 271 75.5996 271 75.5996 532 c 0,13,14
 75.5996 794 75.5996 794 192.15 943 c 128,-1,15
 308.7 1092 308.7 1092 512.1 1092 c 0,16,17
 612.9 1092 612.9 1092 681.75 1051.5 c 128,-1,18
 750.6 1011 750.6 1011 791.1 928 c 1,19,-1
 791.1 1063 l 1,20,-1
 1245.6 1063 l 1,21,-1
 1245.6 942 l 1,22,-1
 1109.7 942 l 1,0,-1
791.1 584 m 2,23,24
 791.1 770 791.1 770 747.9 853 c 128,-1,25
 704.7 936 704.7 936 610.2 936 c 0,26,27
 511.2 936 511.2 936 471.15 848.5 c 128,-1,28
 431.1 761 431.1 761 431.1 532 c 0,29,30
 431.1 303 431.1 303 471.6 215 c 128,-1,31
 512.1 127 512.1 127 610.2 127 c 0,32,33
 704.7 127 704.7 127 747.9 210 c 128,-1,34
 791.1 293 791.1 293 791.1 479 c 2,35,-1
 791.1 584 l 2,23,24
EndSplineSet
EndChar
StartChar: r
Encoding: 114 114 114
Width: 971
Flags: W
AnchorPoint: "below" 342.9 0 basechar 0
AnchorPoint: "above" 597.6 1092 basechar 0
Fore
990 1075 m 1,0,-1
 990 758 l 1,1,-1
 888.3 758 l 1,2,3
 882.9 843 882.9 843 846.9 884.5 c 128,-1,4
 810.9 926 810.9 926 742.5 926 c 0,5,6
 638.1 926 638.1 926 577.8 824 c 128,-1,7
 517.5 722 517.5 722 517.5 541 c 2,8,-1
 517.5 121 l 1,9,-1
 691.2 121 l 1,10,-1
 691.2 0 l 1,11,-1
 63 0 l 1,12,-1
 63 121 l 1,13,-1
 198.9 121 l 1,14,-1
 198.9 942 l 1,15,-1
 53.0996 942 l 1,16,-1
 53.0996 1063 l 1,17,-1
 517.5 1063 l 1,18,-1
 517.5 874 l 1,19,20
 564.3 985 564.3 985 641.25 1038.5 c 128,-1,21
 718.2 1092 718.2 1092 829.8 1092 c 0,22,23
 857.7 1092 857.7 1092 897.75 1087.5 c 128,-1,24
 937.8 1083 937.8 1083 990 1075 c 1,0,-1
EndSplineSet
EndChar
StartChar: s
Encoding: 115 115 115
Width: 1037
Flags: W
AnchorPoint: "below" 520.2 0 basechar 0
AnchorPoint: "above" 520.2 1092 basechar 0
Fore
86.4004 31 m 1,0,-1
 86.4004 328 l 1,1,-1
 188.1 328 l 1,2,3
 200.7 209 200.7 209 268.2 146.5 c 128,-1,4
 335.7 84 335.7 84 451.8 84 c 0,5,6
 549 84 549 84 600.75 121.5 c 128,-1,7
 652.5 159 652.5 159 652.5 229 c 0,8,9
 652.5 293 652.5 293 619.65 328 c 128,-1,10
 586.8 363 586.8 363 492.3 389 c 2,11,-1
 360.9 426 l 2,12,13
 212.4 467 212.4 467 145.8 543.5 c 128,-1,14
 79.2002 620 79.2002 620 79.2002 750 c 0,15,16
 79.2002 923 79.2002 923 187.2 1007.5 c 128,-1,17
 295.2 1092 295.2 1092 520.2 1092 c 0,18,19
 604.8 1092 604.8 1092 700.65 1076.5 c 128,-1,20
 796.5 1061 796.5 1061 912.6 1028 c 1,21,-1
 912.6 760 l 1,22,-1
 810.9 760 l 1,23,24
 802.8 869 802.8 869 741.15 924 c 128,-1,25
 679.5 979 679.5 979 564.3 979 c 0,26,27
 467.1 979 467.1 979 417.15 944.5 c 128,-1,28
 367.2 910 367.2 910 367.2 844 c 0,29,30
 367.2 790 367.2 790 396 759 c 128,-1,31
 424.8 728 424.8 728 499.5 707 c 2,32,-1
 630 670 l 2,33,34
 818.1 617 818.1 617 890.1 539 c 128,-1,35
 962.1 461 962.1 461 962.1 322 c 0,36,37
 962.1 142 962.1 142 846.45 56.5 c 128,-1,38
 730.8 -29 730.8 -29 486.9 -29 c 0,39,40
 397.8 -29 397.8 -29 297.9 -14 c 128,-1,41
 198 1 198 1 86.4004 31 c 1,0,-1
EndSplineSet
EndChar
StartChar: t
Encoding: 116 116 116
Width: 851
Flags: W
AnchorPoint: "below" 501.3 0 basechar 0
AnchorPoint: "above" 342 1465 basechar 0
Fore
182.7 942 m 1,0,-1
 44.0996 942 l 1,1,-1
 44.0996 1063 l 1,2,-1
 182.7 1063 l 1,3,-1
 182.7 1393 l 1,4,-1
 501.3 1393 l 1,5,-1
 501.3 1063 l 1,6,-1
 766.8 1063 l 1,7,-1
 766.8 942 l 1,8,-1
 501.3 942 l 1,9,-1
 501.3 291 l 2,10,11
 501.3 152 501.3 152 521.1 118 c 128,-1,12
 540.9 84 540.9 84 593.1 84 c 0,13,14
 650.7 84 650.7 84 678.6 127 c 128,-1,15
 706.5 170 706.5 170 708.3 260 c 1,16,-1
 842.4 260 l 1,17,18
 834.3 100 834.3 100 763.65 35.5 c 128,-1,19
 693 -29 693 -29 520.2 -29 c 0,20,21
 323.1 -29 323.1 -29 252.9 39.5 c 128,-1,22
 182.7 108 182.7 108 182.7 291 c 2,23,-1
 182.7 942 l 1,0,-1
EndSplineSet
EndChar
StartChar: u
Encoding: 117 117 117
Width: 1340
Flags: W
AnchorPoint: "below" 636.3 0 basechar 0
AnchorPoint: "above" 636.3 1092 basechar 0
Fore
1141.2 1063 m 1,0,-1
 1141.2 121 l 1,1,-1
 1277.1 121 l 1,2,-1
 1277.1 0 l 1,3,-1
 821.7 0 l 1,4,-1
 821.7 150 l 1,5,6
 765 55 765 55 691.2 13 c 128,-1,7
 617.4 -29 617.4 -29 504.9 -29 c 0,8,9
 343.8 -29 343.8 -29 261.45 76.5 c 128,-1,10
 179.1 182 179.1 182 179.1 387 c 2,11,-1
 179.1 942 l 1,12,-1
 42.2998 942 l 1,13,-1
 42.2998 1063 l 1,14,-1
 497.7 1063 l 1,15,-1
 497.7 442 l 2,16,17
 497.7 244 497.7 244 527.4 190.5 c 128,-1,18
 557.1 137 557.1 137 636.3 137 c 0,19,20
 732.6 137 732.6 137 777.15 216 c 128,-1,21
 821.7 295 821.7 295 821.7 467 c 2,22,-1
 821.7 942 l 1,23,-1
 705.6 942 l 1,24,-1
 705.6 1063 l 1,25,-1
 1141.2 1063 l 1,0,-1
EndSplineSet
EndChar
StartChar: v
Encoding: 118 118 118
Width: 1071
Flags: W
AnchorPoint: "below" 545.4 -5 basechar 0
AnchorPoint: "above" 545.4 1092 basechar 0
Fore
411.3 0 m 1,0,-1
 72 942 l 1,1,-1
 -33.2998 942 l 1,2,-1
 -33.2998 1063 l 1,3,-1
 515.7 1063 l 1,4,-1
 515.7 942 l 1,5,-1
 399.6 942 l 1,6,-1
 641.7 270 l 1,7,-1
 882.9 942 l 1,8,-1
 757.8 942 l 1,9,-1
 757.8 1063 l 1,10,-1
 1116.9 1063 l 1,11,-1
 1116.9 942 l 1,12,-1
 1006.2 942 l 1,13,-1
 666.9 0 l 1,14,-1
 411.3 0 l 1,0,-1
EndSplineSet
EndChar
StartChar: w
Encoding: 119 119 119
Width: 1586
Flags: W
AnchorPoint: "below" 803.7 0 basechar 0
AnchorPoint: "above" 803.7 1092 basechar 0
Fore
993.6 1063 m 1,0,-1
 1211.4 354 l 1,1,-1
 1391.4 942 l 1,2,-1
 1266.3 942 l 1,3,-1
 1266.3 1063 l 1,4,-1
 1623.6 1063 l 1,5,-1
 1623.6 942 l 1,6,-1
 1511.1 942 l 1,7,-1
 1222.2 0 l 1,8,-1
 1002.6 0 l 1,9,-1
 800.1 666 l 1,10,-1
 595.8 0 l 1,11,-1
 378 0 l 1,12,-1
 88.2002 942 l 1,13,-1
 -16.2002 942 l 1,14,-1
 -16.2002 1063 l 1,15,-1
 525.6 1063 l 1,16,-1
 525.6 942 l 1,17,-1
 413.1 942 l 1,18,-1
 589.5 367 l 1,19,-1
 803.7 1063 l 1,20,-1
 993.6 1063 l 1,0,-1
EndSplineSet
EndChar
StartChar: x
Encoding: 120 120 120
Width: 1098
Flags: W
AnchorPoint: "below" 545.4 0 basechar 0
AnchorPoint: "above" 545.4 1092 basechar 0
Fore
647.1 678 m 1,0,-1
 816.3 942 l 1,1,-1
 698.4 942 l 1,2,-1
 698.4 1063 l 1,3,-1
 1071 1063 l 1,4,-1
 1071 942 l 1,5,-1
 944.1 942 l 1,6,-1
 700.2 563 l 1,7,-1
 984.6 121 l 1,8,-1
 1111.5 121 l 1,9,-1
 1111.5 0 l 1,10,-1
 503.1 0 l 1,11,-1
 503.1 121 l 1,12,-1
 626.4 121 l 1,13,-1
 446.4 401 l 1,14,-1
 265.5 121 l 1,15,-1
 394.2 121 l 1,16,-1
 394.2 0 l 1,17,-1
 0 0 l 1,18,-1
 0 121 l 1,19,-1
 136.8 121 l 1,20,-1
 390.6 518 l 1,21,-1
 116.1 942 l 1,22,-1
 9 942 l 1,23,-1
 9 1063 l 1,24,-1
 593.1 1063 l 1,25,-1
 593.1 942 l 1,26,-1
 477 942 l 1,27,-1
 647.1 678 l 1,0,-1
EndSplineSet
EndChar
StartChar: y
Encoding: 121 121 121
Width: 1071
Flags: W
AnchorPoint: "below" 545.4 -430 basechar 0
AnchorPoint: "above" 545.4 1092 basechar 0
Fore
575.1 -240 m 1,0,1
 531.9 -357 531.9 -357 470.7 -406 c 128,-1,2
 409.5 -455 409.5 -455 306 -455 c 0,3,4
 261.9 -455 261.9 -455 207.9 -444 c 128,-1,5
 153.9 -433 153.9 -433 90 -412 c 1,6,-1
 90 -190 l 1,7,-1
 191.7 -191 l 1,8,9
 194.4 -268 194.4 -268 224.55 -305 c 128,-1,10
 254.7 -342 254.7 -342 315 -342 c 0,11,12
 373.5 -342 373.5 -342 409.5 -306.5 c 128,-1,13
 445.5 -271 445.5 -271 481.5 -172 c 1,14,-1
 495.9 -135 l 1,15,-1
 79.2002 942 l 1,16,-1
 -24.2998 942 l 1,17,-1
 -24.2998 1063 l 1,18,-1
 527.4 1063 l 1,19,-1
 527.4 942 l 1,20,-1
 413.1 942 l 1,21,-1
 656.1 313 l 1,22,-1
 882.9 942 l 1,23,-1
 756 942 l 1,24,-1
 756 1063 l 1,25,-1
 1115.1 1063 l 1,26,-1
 1115.1 942 l 1,27,-1
 999 942 l 1,28,-1
 575.1 -240 l 1,0,1
EndSplineSet
EndChar
StartChar: z
Encoding: 122 122 122
Width: 1046
Flags: W
AnchorPoint: "below" 523.8 0 basechar 0
AnchorPoint: "above" 523.8 1092 basechar 0
Fore
64.7998 0 m 1,0,-1
 64.7998 121 l 1,1,-1
 613.8 946 l 1,2,-1
 200.7 946 l 1,3,-1
 200.7 764 l 1,4,-1
 93.5996 764 l 1,5,-1
 93.5996 1063 l 1,6,-1
 984.6 1063 l 1,7,-1
 984.6 944 l 1,8,-1
 434.7 119 l 1,9,-1
 877.5 119 l 1,10,-1
 877.5 311 l 1,11,-1
 984.6 311 l 1,12,-1
 984.6 0 l 1,13,-1
 64.7998 0 l 1,0,-1
EndSplineSet
EndChar
StartChar: braceleft
Encoding: 123 123 123
Width: 1185
Flags: W
Fore
1019.7 -213 m 1,0,-1
 1019.7 -334 l 1,1,-1
 886.5 -334 l 2,2,3
 674.1 -334 674.1 -334 600.3 -309.5 c 128,-1,4
 526.5 -285 526.5 -285 481.5 -223 c 0,5,6
 455.4 -187 455.4 -187 444.15 -132 c 128,-1,7
 432.9 -77 432.9 -77 432.9 35 c 2,8,-1
 432.9 285 l 2,9,10
 432.9 436 432.9 436 384.75 493.5 c 128,-1,11
 336.6 551 336.6 551 209.7 551 c 2,12,-1
 154.8 551 l 1,13,-1
 154.8 672 l 1,14,-1
 209.7 672 l 2,15,16
 336.6 672 336.6 672 384.75 729.5 c 128,-1,17
 432.9 787 432.9 787 432.9 938 c 2,18,-1
 432.9 1188 l 2,19,20
 432.9 1300 432.9 1300 444.15 1354.5 c 128,-1,21
 455.4 1409 455.4 1409 481.5 1446 c 0,22,23
 526.5 1507 526.5 1507 600.3 1531.5 c 128,-1,24
 674.1 1556 674.1 1556 886.5 1556 c 2,25,-1
 1019.7 1556 l 1,26,-1
 1019.7 1436 l 1,27,-1
 927 1436 l 2,28,29
 826.2 1436 826.2 1436 789.3 1389 c 128,-1,30
 752.4 1342 752.4 1342 752.4 1206 c 2,31,-1
 752.4 936 l 2,32,33
 752.4 777 752.4 777 707.85 709.5 c 128,-1,34
 663.3 642 663.3 642 547.2 612 c 1,35,36
 665.1 578 665.1 578 708.75 512 c 128,-1,37
 752.4 446 752.4 446 752.4 287 c 2,38,-1
 752.4 16 l 2,39,40
 752.4 -119 752.4 -119 789.3 -166 c 128,-1,41
 826.2 -213 826.2 -213 927 -213 c 2,42,-1
 1019.7 -213 l 1,0,-1
EndSplineSet
EndChar
StartChar: bar
Encoding: 124 124 124
Width: 670
Flags: W
Fore
431.1 1565 m 1,0,-1
 431.1 -483 l 1,1,-1
 237.6 -483 l 1,2,-1
 237.6 1565 l 1,3,-1
 431.1 1565 l 1,0,-1
EndSplineSet
EndChar
StartChar: braceright
Encoding: 125 125 125
Width: 1185
Flags: W
Fore
167.4 -213 m 1,0,-1
 258.3 -213 l 2,1,2
 358.2 -213 358.2 -213 395.55 -166 c 128,-1,3
 432.9 -119 432.9 -119 432.9 16 c 2,4,-1
 432.9 287 l 2,5,6
 432.9 444 432.9 444 477 511 c 128,-1,7
 521.1 578 521.1 578 639.9 612 c 1,8,9
 522.9 642 522.9 642 477.9 710 c 128,-1,10
 432.9 778 432.9 778 432.9 936 c 2,11,-1
 432.9 1206 l 2,12,13
 432.9 1342 432.9 1342 395.55 1389 c 128,-1,14
 358.2 1436 358.2 1436 258.3 1436 c 2,15,-1
 167.4 1436 l 1,16,-1
 167.4 1556 l 1,17,-1
 298.8 1556 l 2,18,19
 511.2 1556 511.2 1556 585 1531.5 c 128,-1,20
 658.8 1507 658.8 1507 703.8 1446 c 0,21,22
 729.9 1409 729.9 1409 741.15 1354.5 c 128,-1,23
 752.4 1300 752.4 1300 752.4 1188 c 2,24,-1
 752.4 938 l 2,25,26
 752.4 787 752.4 787 800.55 729.5 c 128,-1,27
 848.7 672 848.7 672 974.7 672 c 2,28,-1
 1030.5 672 l 1,29,-1
 1030.5 551 l 1,30,-1
 974.7 551 l 2,31,32
 848.7 551 848.7 551 800.55 493.5 c 128,-1,33
 752.4 436 752.4 436 752.4 285 c 2,34,-1
 752.4 35 l 2,35,36
 752.4 -77 752.4 -77 741.15 -132 c 128,-1,37
 729.9 -187 729.9 -187 703.8 -223 c 0,38,39
 658.8 -285 658.8 -285 585 -309.5 c 128,-1,40
 511.2 -334 511.2 -334 298.8 -334 c 2,41,-1
 167.4 -334 l 1,42,-1
 167.4 -213 l 1,0,-1
EndSplineSet
EndChar
StartChar: asciitilde
Encoding: 126 126 126
Width: 1544
Flags: W
Fore
1349.1 831 m 1,0,-1
 1349.1 625 l 1,1,2
 1265.4 539 1265.4 539 1181.25 498 c 128,-1,3
 1097.1 457 1097.1 457 1006.2 457 c 0,4,5
 920.7 457 920.7 457 783.9 515 c 0,6,7
 768.6 521 768.6 521 761.4 524 c 0,8,9
 755.1 527 755.1 527 743.4 532 c 0,10,11
 588.6 598 588.6 598 501.3 598 c 0,12,13
 432 598 432 598 356.85 562 c 128,-1,14
 281.7 526 281.7 526 195.3 453 c 1,15,-1
 195.3 659 l 1,16,17
 281.7 746 281.7 746 364.95 786.5 c 128,-1,18
 448.2 827 448.2 827 538.2 827 c 0,19,20
 623.7 827 623.7 827 759.6 770 c 0,21,22
 775.8 763 775.8 763 783 760 c 2,23,-1
 796.5 754 l 2,24,25
 952.2 686 952.2 686 1043.1 686 c 0,26,27
 1112.4 686 1112.4 686 1187.55 722 c 128,-1,28
 1262.7 758 1262.7 758 1349.1 831 c 1,0,-1
EndSplineSet
EndChar
StartChar: exclamdown
Encoding: 161 161 161
Width: 809
Flags: W
Fore
575.1 1329 m 0,0,1
 575.1 1251 575.1 1251 524.7 1196 c 128,-1,2
 474.3 1141 474.3 1141 404.1 1141 c 0,3,4
 333 1141 333 1141 283.5 1196 c 128,-1,5
 234 1251 234 1251 234 1329 c 0,6,7
 234 1408 234 1408 283.95 1464 c 128,-1,8
 333.9 1520 333.9 1520 404.1 1520 c 0,9,10
 474.3 1520 474.3 1520 524.7 1463.5 c 128,-1,11
 575.1 1407 575.1 1407 575.1 1329 c 0,0,1
573.3 0 m 1,12,-1
 235.8 0 l 1,13,-1
 341.1 842 l 1,14,-1
 341.1 1032 l 1,15,-1
 466.2 1032 l 1,16,-1
 466.2 842 l 1,17,-1
 573.3 0 l 1,12,-1
EndSplineSet
EndChar
StartChar: cent
Encoding: 162 162 162
Width: 1282
Flags: W
Fore
665.1 94 m 1,0,-1
 665.1 969 l 1,1,2
 576 944 576 944 536.85 843.5 c 128,-1,3
 497.7 743 497.7 743 497.7 532 c 0,4,5
 497.7 321 497.7 321 536.4 221 c 128,-1,6
 575.1 121 575.1 121 665.1 94 c 1,0,-1
1109.7 332 m 1,7,8
 1080.9 175 1080.9 175 995.85 85.5 c 128,-1,9
 910.8 -4 910.8 -4 774 -23 c 1,10,-1
 774 -299 l 1,11,-1
 665.1 -299 l 1,12,-1
 665.1 -29 l 1,13,14
 415.8 -23 415.8 -23 279.9 123.5 c 128,-1,15
 144 270 144 270 144 532 c 0,16,17
 144 794 144 794 279.9 939.5 c 128,-1,18
 415.8 1085 415.8 1085 665.1 1092 c 1,19,-1
 665.1 1356 l 1,20,-1
 774 1356 l 1,21,-1
 774 1087 l 1,22,23
 827.1 1083 827.1 1083 899.55 1064 c 128,-1,24
 972 1045 972 1045 1078.2 1008 c 1,25,-1
 1078.2 713 l 1,26,-1
 976.5 713 l 1,27,28
 963 839 963 839 913.5 903.5 c 128,-1,29
 864 968 864 968 774 979 c 1,30,-1
 774 88 l 1,31,32
 855.9 104 855.9 104 902.7 165 c 128,-1,33
 949.5 226 949.5 226 960.3 332 c 1,34,-1
 1109.7 332 l 1,7,8
EndSplineSet
EndChar
StartChar: sterling
Encoding: 163 163 163
Width: 1282
Flags: W
Fore
1122.3 1202 m 1,0,-1
 1014.3 1202 l 1,1,2
 1008.9 1299 1008.9 1299 964.35 1353 c 128,-1,3
 919.8 1407 919.8 1407 844.2 1407 c 0,4,5
 738.9 1407 738.9 1407 693 1332.5 c 128,-1,6
 647.1 1258 647.1 1258 647.1 1083 c 2,7,-1
 647.1 815 l 1,8,-1
 963.9 815 l 1,9,-1
 963.9 694 l 1,10,-1
 647.1 694 l 1,11,-1
 647.1 137 l 1,12,-1
 1025.1 137 l 1,13,-1
 1025.1 365 l 1,14,-1
 1148.4 365 l 1,15,-1
 1148.4 0 l 1,16,-1
 132.3 0 l 1,17,-1
 132.3 121 l 1,18,-1
 306 121 l 1,19,-1
 306 694 l 1,20,-1
 132.3 694 l 1,21,-1
 132.3 815 l 1,22,-1
 306 815 l 1,23,-1
 306 1092 l 2,24,25
 306 1308 306 1308 426.15 1414 c 128,-1,26
 546.3 1520 546.3 1520 792.9 1520 c 0,27,28
 851.4 1520 851.4 1520 932.85 1511 c 128,-1,29
 1014.3 1502 1014.3 1502 1122.3 1485 c 1,30,-1
 1122.3 1202 l 1,0,-1
EndSplineSet
EndChar
StartChar: currency
Encoding: 164 164 164
Width: 1172
Flags: W
Fore
587.7 422 m 0,0,1
 669.6 422 669.6 422 727.2 485.5 c 128,-1,2
 784.8 549 784.8 549 784.8 641 c 0,3,4
 784.8 733 784.8 733 727.65 796.5 c 128,-1,5
 670.5 860 670.5 860 587.7 860 c 0,6,7
 505.8 860 505.8 860 448.2 796.5 c 128,-1,8
 390.6 733 390.6 733 390.6 641 c 0,9,10
 390.6 548 390.6 548 447.3 485 c 128,-1,11
 504 422 504 422 587.7 422 c 0,0,1
392.4 268 m 1,12,-1
 204.3 61 l 1,13,-1
 68.4004 215 l 1,14,-1
 256.5 424 l 1,15,16
 228.6 470 228.6 470 215.55 523.5 c 128,-1,17
 202.5 577 202.5 577 202.5 641 c 0,18,19
 202.5 704 202.5 704 216 758 c 128,-1,20
 229.5 812 229.5 812 256.5 858 c 1,21,-1
 68.4004 1063 l 1,22,-1
 206.1 1221 l 1,23,-1
 392.4 1010 l 1,24,25
 435.6 1040 435.6 1040 484.2 1054.5 c 128,-1,26
 532.8 1069 532.8 1069 587.7 1069 c 0,27,28
 637.2 1069 637.2 1069 686.25 1054.5 c 128,-1,29
 735.3 1040 735.3 1040 786.6 1010 c 1,30,-1
 971.1 1221 l 1,31,-1
 1107.9 1067 l 1,32,-1
 919.8 862 l 1,33,34
 946.8 806 946.8 806 959.85 750.5 c 128,-1,35
 972.9 695 972.9 695 972.9 641 c 0,36,37
 972.9 578 972.9 578 959.85 525.5 c 128,-1,38
 946.8 473 946.8 473 919.8 426 c 1,39,-1
 1107.9 215 l 1,40,-1
 967.5 61 l 1,41,-1
 781.2 272 l 1,42,43
 739.8 242 739.8 242 692.1 227.5 c 128,-1,44
 644.4 213 644.4 213 587.7 213 c 0,45,46
 535.5 213 535.5 213 486.9 227 c 128,-1,47
 438.3 241 438.3 241 392.4 268 c 1,12,-1
EndSplineSet
EndChar
StartChar: yen
Encoding: 165 165 165
Width: 1282
Flags: W
Fore
293.4 0 m 1,0,-1
 293.4 121 l 1,1,-1
 464.4 121 l 1,2,-1
 464.4 467 l 1,3,-1
 101.7 467 l 1,4,-1
 101.7 584 l 1,5,-1
 464.4 584 l 1,6,-1
 464.4 643 l 1,7,-1
 409.5 778 l 1,8,-1
 101.7 778 l 1,9,-1
 101.7 895 l 1,10,-1
 359.1 895 l 1,11,-1
 158.4 1372 l 1,12,-1
 35.0996 1372 l 1,13,-1
 35.0996 1493 l 1,14,-1
 659.7 1493 l 1,15,-1
 659.7 1372 l 1,16,-1
 506.7 1372 l 1,17,-1
 738.9 821 l 1,18,-1
 969.3 1372 l 1,19,-1
 833.4 1372 l 1,20,-1
 833.4 1493 l 1,21,-1
 1225.8 1493 l 1,22,-1
 1225.8 1372 l 1,23,-1
 1104.3 1372 l 1,24,-1
 905.4 895 l 1,25,-1
 1168.2 895 l 1,26,-1
 1168.2 778 l 1,27,-1
 853.2 778 l 1,28,-1
 805.5 662 l 1,29,-1
 805.5 584 l 1,30,-1
 1168.2 584 l 1,31,-1
 1168.2 467 l 1,32,-1
 805.5 467 l 1,33,-1
 805.5 121 l 1,34,-1
 976.5 121 l 1,35,-1
 976.5 0 l 1,36,-1
 293.4 0 l 1,0,-1
EndSplineSet
EndChar
StartChar: brokenbar
Encoding: 166 166 166
Width: 670
Flags: W
Fore
431.1 1432 m 1,0,-1
 431.1 674 l 1,1,-1
 237.6 674 l 1,2,-1
 237.6 1432 l 1,3,-1
 431.1 1432 l 1,0,-1
431.1 408 m 1,4,-1
 431.1 -350 l 1,5,-1
 237.6 -350 l 1,6,-1
 237.6 408 l 1,7,-1
 431.1 408 l 1,4,-1
EndSplineSet
EndChar
StartChar: section
Encoding: 167 167 167
Width: 963
Flags: W
Fore
807.3 1475 m 1,0,-1
 807.3 1235 l 1,1,-1
 700.2 1235 l 1,2,3
 694.8 1321 694.8 1321 648 1364 c 128,-1,4
 601.2 1407 601.2 1407 513.9 1407 c 0,5,6
 441 1407 441 1407 400.05 1370 c 128,-1,7
 359.1 1333 359.1 1333 359.1 1266 c 0,8,9
 359.1 1219 359.1 1219 383.4 1186 c 128,-1,10
 407.7 1153 407.7 1153 488.7 1106 c 2,11,-1
 610.2 1034 l 1,12,13
 780.3 936 780.3 936 843.75 852 c 128,-1,14
 907.2 768 907.2 768 907.2 653 c 0,15,16
 907.2 549 907.2 549 855.9 475 c 128,-1,17
 804.6 401 804.6 401 702 358 c 1,18,19
 776.7 311 776.7 311 811.35 247.5 c 128,-1,20
 846 184 846 184 846 94 c 0,21,22
 846 -43 846 -43 747.9 -119 c 128,-1,23
 649.8 -195 649.8 -195 469.8 -195 c 0,24,25
 395.1 -195 395.1 -195 313.65 -183.5 c 128,-1,26
 232.2 -172 232.2 -172 140.4 -150 c 1,27,-1
 140.4 90 l 1,28,-1
 246.6 90 l 1,29,30
 253.8 0 253.8 0 300.6 -41 c 128,-1,31
 347.4 -82 347.4 -82 442.8 -82 c 0,32,33
 521.1 -82 521.1 -82 562.95 -45 c 128,-1,34
 604.8 -8 604.8 -8 604.8 61 c 0,35,36
 604.8 108 604.8 108 580.95 141 c 128,-1,37
 557.1 174 557.1 174 475.2 221 c 2,38,-1
 353.7 293 l 2,39,40
 184.5 392 184.5 392 120.6 476 c 128,-1,41
 56.7002 560 56.7002 560 56.7002 674 c 0,42,43
 56.7002 777 56.7002 777 108.45 850 c 128,-1,44
 160.2 923 160.2 923 263.7 967 c 1,45,46
 189 1013 189 1013 153.45 1077.5 c 128,-1,47
 117.9 1142 117.9 1142 117.9 1231 c 0,48,49
 117.9 1367 117.9 1367 216 1443.5 c 128,-1,50
 314.1 1520 314.1 1520 490.5 1520 c 0,51,52
 557.1 1520 557.1 1520 635.4 1508.5 c 128,-1,53
 713.7 1497 713.7 1497 807.3 1475 c 1,0,-1
355.5 901 m 1,54,55
 315.9 868 315.9 868 295.2 829 c 128,-1,56
 274.5 790 274.5 790 274.5 745 c 0,57,58
 274.5 684 274.5 684 315.45 633 c 128,-1,59
 356.4 582 356.4 582 455.4 524 c 2,60,-1
 606.6 436 l 1,61,62
 647.1 471 647.1 471 668.25 510.5 c 128,-1,63
 689.4 550 689.4 550 689.4 592 c 0,64,65
 689.4 652 689.4 652 647.55 703 c 128,-1,66
 605.7 754 605.7 754 504.9 813 c 2,67,-1
 355.5 901 l 1,54,55
EndSplineSet
EndChar
StartChar: dieresis
Encoding: 168 168 168
Width: 921
Flags: W
Fore
126.9 1468 m 0,0,1
 126.9 1528 126.9 1528 166.5 1571 c 128,-1,2
 206.1 1614 206.1 1614 260.1 1614 c 0,3,4
 314.1 1614 314.1 1614 352.35 1571 c 128,-1,5
 390.6 1528 390.6 1528 390.6 1468 c 0,6,7
 390.6 1408 390.6 1408 351.9 1364.5 c 128,-1,8
 313.2 1321 313.2 1321 260.1 1321 c 0,9,10
 206.1 1321 206.1 1321 166.5 1365 c 128,-1,11
 126.9 1409 126.9 1409 126.9 1468 c 0,0,1
529.2 1468 m 0,12,13
 529.2 1528 529.2 1528 568.35 1571 c 128,-1,14
 607.5 1614 607.5 1614 661.5 1614 c 0,15,16
 715.5 1614 715.5 1614 755.1 1571 c 128,-1,17
 794.7 1528 794.7 1528 794.7 1468 c 0,18,19
 794.7 1409 794.7 1409 755.1 1365 c 128,-1,20
 715.5 1321 715.5 1321 661.5 1321 c 0,21,22
 607.5 1321 607.5 1321 568.35 1365 c 128,-1,23
 529.2 1409 529.2 1409 529.2 1468 c 0,12,13
EndSplineSet
LCarets2: 1 0 
EndChar
StartChar: copyright
Encoding: 169 169 169
Width: 1843
Flags: W
Fore
921.6 1485 m 0,0,1
 1058.4 1485 1058.4 1485 1176.75 1430 c 128,-1,2
 1295.1 1375 1295.1 1375 1393.2 1266 c 0,3,4
 1491.3 1157 1491.3 1157 1539.9 1026 c 128,-1,5
 1588.5 895 1588.5 895 1588.5 741 c 0,6,7
 1588.5 589 1588.5 589 1539.9 458.5 c 128,-1,8
 1491.3 328 1491.3 328 1393.2 219 c 0,9,10
 1295.1 110 1295.1 110 1176.75 55 c 128,-1,11
 1058.4 0 1058.4 0 921.6 0 c 0,12,13
 784.8 0 784.8 0 666.45 55 c 128,-1,14
 548.1 110 548.1 110 450 219 c 0,15,16
 351.9 328 351.9 328 303.3 458.5 c 128,-1,17
 254.7 589 254.7 589 254.7 741 c 0,18,19
 254.7 895 254.7 895 303.3 1026 c 128,-1,20
 351.9 1157 351.9 1157 450 1266 c 0,21,22
 548.1 1375 548.1 1375 666.45 1430 c 128,-1,23
 784.8 1485 784.8 1485 921.6 1485 c 0,0,1
921.6 1331 m 0,24,25
 812.7 1331 812.7 1331 719.1 1287.5 c 128,-1,26
 625.5 1244 625.5 1244 547.2 1157 c 0,27,28
 469.8 1071 469.8 1071 431.1 967.5 c 128,-1,29
 392.4 864 392.4 864 392.4 741 c 0,30,31
 392.4 619 392.4 619 431.1 515.5 c 128,-1,32
 469.8 412 469.8 412 547.2 326 c 0,33,34
 624.6 240 624.6 240 718.65 197 c 128,-1,35
 812.7 154 812.7 154 921.6 154 c 0,36,37
 1032.3 154 1032.3 154 1125 196.5 c 128,-1,38
 1217.7 239 1217.7 239 1296 326 c 0,39,40
 1373.4 412 1373.4 412 1412.1 515.5 c 128,-1,41
 1450.8 619 1450.8 619 1450.8 741 c 0,42,43
 1450.8 864 1450.8 864 1412.1 967.5 c 128,-1,44
 1373.4 1071 1373.4 1071 1296 1157 c 0,45,46
 1216.8 1245 1216.8 1245 1123.65 1288 c 128,-1,47
 1030.5 1331 1030.5 1331 921.6 1331 c 0,24,25
1251.9 580 m 1,48,49
 1227.6 441 1227.6 441 1145.25 371 c 128,-1,50
 1062.9 301 1062.9 301 923.4 301 c 0,51,52
 754.2 301 754.2 301 649.8 422 c 128,-1,53
 545.4 543 545.4 543 545.4 741 c 0,54,55
 545.4 943 545.4 943 650.7 1063.5 c 128,-1,56
 756 1184 756 1184 932.4 1184 c 0,57,58
 1003.5 1184 1003.5 1184 1075.5 1165.5 c 128,-1,59
 1147.5 1147 1147.5 1147 1225.8 1108 c 1,60,-1
 1225.8 885 l 1,61,-1
 1131.3 885 l 1,62,63
 1120.5 979 1120.5 979 1073.25 1032 c 128,-1,64
 1026 1085 1026 1085 953.1 1085 c 0,65,66
 859.5 1085 859.5 1085 805.95 993.5 c 128,-1,67
 752.4 902 752.4 902 752.4 741 c 0,68,69
 752.4 580 752.4 580 805.5 489.5 c 128,-1,70
 858.6 399 858.6 399 953.1 399 c 0,71,72
 1018.8 399 1018.8 399 1062.9 445 c 128,-1,73
 1107 491 1107 491 1127.7 580 c 1,74,-1
 1251.9 580 l 1,48,49
EndSplineSet
EndChar
StartChar: ordfeminine
Encoding: 170 170 170
Width: 897
Flags: W
Fore
101.7 639 m 1,0,-1
 819.9 639 l 1,1,-1
 819.9 504 l 1,2,-1
 101.7 504 l 1,3,-1
 101.7 639 l 1,0,-1
761.4 1212 m 2,4,-1
 761.4 850 l 1,5,-1
 864.9 850 l 1,6,-1
 864.9 756 l 1,7,-1
 523.8 756 l 1,8,-1
 523.8 848 l 1,9,10
 477.9 791 477.9 791 419.85 764 c 128,-1,11
 361.8 737 361.8 737 285.3 737 c 0,12,13
 174.6 737 174.6 737 114.75 798 c 128,-1,14
 54.9004 859 54.9004 859 54.9004 973 c 0,15,16
 54.9004 1101 54.9004 1101 139.95 1164 c 128,-1,17
 225 1227 225 1227 397.8 1227 c 2,18,-1
 523.8 1227 l 1,19,-1
 523.8 1255 l 2,20,21
 523.8 1345 523.8 1345 481.5 1389.5 c 128,-1,22
 439.2 1434 439.2 1434 353.7 1434 c 0,23,24
 285.3 1434 285.3 1434 245.7 1401.5 c 128,-1,25
 206.1 1369 206.1 1369 197.1 1307 c 1,26,-1
 110.7 1307 l 1,27,-1
 110.7 1473 l 1,28,29
 176.4 1496 176.4 1496 245.7 1508 c 128,-1,30
 315 1520 315 1520 390.6 1520 c 0,31,32
 583.2 1520 583.2 1520 672.3 1446 c 128,-1,33
 761.4 1372 761.4 1372 761.4 1212 c 2,4,-1
523.8 1001 m 2,34,-1
 523.8 1133 l 1,35,-1
 432.9 1133 l 2,36,37
 368.1 1133 368.1 1133 330.75 1095.5 c 128,-1,38
 293.4 1058 293.4 1058 293.4 993 c 0,39,40
 293.4 931 293.4 931 320.85 897.5 c 128,-1,41
 348.3 864 348.3 864 399.6 864 c 0,42,43
 456.3 864 456.3 864 490.05 901 c 128,-1,44
 523.8 938 523.8 938 523.8 1001 c 2,34,-1
EndSplineSet
EndChar
StartChar: guillemotleft
Encoding: 171 171 171
Width: 1152
Flags: W
Fore
978.3 1069 m 1,0,-1
 978.3 922 l 1,1,-1
 763.2 600 l 1,2,-1
 978.3 279 l 1,3,-1
 978.3 131 l 1,4,-1
 556.2 516 l 1,5,-1
 556.2 684 l 1,6,-1
 978.3 1069 l 1,0,-1
564.3 1069 m 1,7,-1
 564.3 922 l 1,8,-1
 348.3 600 l 1,9,-1
 564.3 279 l 1,10,-1
 564.3 131 l 1,11,-1
 142.2 516 l 1,12,-1
 142.2 684 l 1,13,-1
 564.3 1069 l 1,7,-1
EndSplineSet
EndChar
StartChar: logicalnot
Encoding: 172 172 172
Width: 1544
Flags: W
Fore
195.3 903 m 1,0,-1
 1349.1 903 l 1,1,-1
 1349.1 287 l 1,2,-1
 1143 287 l 1,3,-1
 1143 676 l 1,4,-1
 195.3 676 l 1,5,-1
 195.3 903 l 1,0,-1
EndSplineSet
EndChar
StartChar: sfthyphen
Encoding: 173 173 173
Width: 765
Flags: W
Fore
99.9004 684 m 1,0,-1
 665.1 684 l 1,1,-1
 665.1 414 l 1,2,-1
 99.9004 414 l 1,3,-1
 99.9004 684 l 1,0,-1
EndSplineSet
EndChar
StartChar: registered
Encoding: 174 174 174
Width: 1843
Flags: W
Fore
1049.4 754 m 1,0,1
 1084.5 743 1084.5 743 1111.5 716.5 c 128,-1,2
 1138.5 690 1138.5 690 1155.6 649 c 2,3,-1
 1245.6 434 l 1,4,-1
 1299.6 434 l 1,5,-1
 1299.6 352 l 1,6,-1
 1098.9 352 l 1,7,-1
 993.6 606 l 1,8,9
 964.8 674 964.8 674 938.25 695.5 c 128,-1,10
 911.7 717 911.7 717 862.2 717 c 2,11,-1
 838.8 717 l 1,12,-1
 838.8 434 l 1,13,-1
 916.2 434 l 1,14,-1
 916.2 352 l 1,15,-1
 584.1 352 l 1,16,-1
 584.1 434 l 1,17,-1
 661.5 434 l 1,18,-1
 661.5 1077 l 1,19,-1
 584.1 1077 l 1,20,-1
 584.1 1159 l 1,21,-1
 991.8 1159 l 2,22,23
 1099.8 1159 1099.8 1159 1161.9 1104 c 128,-1,24
 1224 1049 1224 1049 1224 954 c 0,25,26
 1224 865 1224 865 1179.45 814 c 128,-1,27
 1134.9 763 1134.9 763 1049.4 754 c 1,0,1
838.8 799 m 1,28,-1
 899.1 799 l 2,29,30
 970.2 799 970.2 799 1008.45 835 c 128,-1,31
 1046.7 871 1046.7 871 1046.7 938 c 0,32,33
 1046.7 1005 1046.7 1005 1008.45 1041 c 128,-1,34
 970.2 1077 970.2 1077 899.1 1077 c 2,35,-1
 838.8 1077 l 1,36,-1
 838.8 799 l 1,28,-1
921.6 1485 m 0,37,38
 1058.4 1485 1058.4 1485 1176.75 1430 c 128,-1,39
 1295.1 1375 1295.1 1375 1393.2 1266 c 0,40,41
 1491.3 1157 1491.3 1157 1539.9 1026 c 128,-1,42
 1588.5 895 1588.5 895 1588.5 741 c 0,43,44
 1588.5 589 1588.5 589 1539.9 458.5 c 128,-1,45
 1491.3 328 1491.3 328 1393.2 219 c 0,46,47
 1295.1 110 1295.1 110 1176.75 55 c 128,-1,48
 1058.4 0 1058.4 0 921.6 0 c 0,49,50
 784.8 0 784.8 0 666.45 55 c 128,-1,51
 548.1 110 548.1 110 450 219 c 0,52,53
 351.9 328 351.9 328 303.3 458.5 c 128,-1,54
 254.7 589 254.7 589 254.7 741 c 0,55,56
 254.7 895 254.7 895 303.3 1026 c 128,-1,57
 351.9 1157 351.9 1157 450 1266 c 0,58,59
 548.1 1375 548.1 1375 666.45 1430 c 128,-1,60
 784.8 1485 784.8 1485 921.6 1485 c 0,37,38
921.6 1331 m 0,61,62
 812.7 1331 812.7 1331 719.1 1287.5 c 128,-1,63
 625.5 1244 625.5 1244 547.2 1157 c 0,64,65
 469.8 1071 469.8 1071 431.1 967.5 c 128,-1,66
 392.4 864 392.4 864 392.4 741 c 0,67,68
 392.4 619 392.4 619 431.1 515.5 c 128,-1,69
 469.8 412 469.8 412 547.2 326 c 0,70,71
 624.6 240 624.6 240 718.65 197 c 128,-1,72
 812.7 154 812.7 154 921.6 154 c 0,73,74
 1032.3 154 1032.3 154 1125 196.5 c 128,-1,75
 1217.7 239 1217.7 239 1296 326 c 0,76,77
 1373.4 412 1373.4 412 1412.1 515.5 c 128,-1,78
 1450.8 619 1450.8 619 1450.8 741 c 0,79,80
 1450.8 864 1450.8 864 1412.1 967.5 c 128,-1,81
 1373.4 1071 1373.4 1071 1296 1157 c 0,82,83
 1216.8 1245 1216.8 1245 1123.65 1288 c 128,-1,84
 1030.5 1331 1030.5 1331 921.6 1331 c 0,61,62
EndSplineSet
EndChar
StartChar: macron
Encoding: 175 175 175
Width: 921
Flags: W
Fore
177.3 1548 m 1,0,-1
 744.3 1548 l 1,1,-1
 744.3 1360 l 1,2,-1
 177.3 1360 l 1,3,-1
 177.3 1548 l 1,0,-1
EndSplineSet
EndChar
StartChar: degree
Encoding: 176 176 176
Width: 921
Flags: W
Fore
460.8 1534 m 0,0,1
 520.2 1534 520.2 1534 575.1 1508.5 c 128,-1,2
 630 1483 630 1483 673.2 1436 c 1,3,4
 715.5 1388 715.5 1388 737.55 1328 c 128,-1,5
 759.6 1268 759.6 1268 759.6 1200 c 0,6,7
 759.6 1133 759.6 1133 737.55 1072.5 c 128,-1,8
 715.5 1012 715.5 1012 675 967 c 0,9,10
 631.8 919 631.8 919 576 893.5 c 128,-1,11
 520.2 868 520.2 868 459 868 c 0,12,13
 332.1 868 332.1 868 246.15 963.5 c 128,-1,14
 160.2 1059 160.2 1059 160.2 1200 c 0,15,16
 160.2 1341 160.2 1341 247.05 1437.5 c 128,-1,17
 333.9 1534 333.9 1534 460.8 1534 c 0,0,1
460.8 1372 m 0,18,19
 396 1372 396 1372 351 1322 c 128,-1,20
 306 1272 306 1272 306 1200 c 0,21,22
 306 1128 306 1128 350.55 1079 c 128,-1,23
 395.1 1030 395.1 1030 460.8 1030 c 0,24,25
 525.6 1030 525.6 1030 570.6 1079.5 c 128,-1,26
 615.6 1129 615.6 1129 615.6 1200 c 0,27,28
 615.6 1272 615.6 1272 570.15 1322 c 128,-1,29
 524.7 1372 524.7 1372 460.8 1372 c 0,18,19
EndSplineSet
EndChar
StartChar: plusminus
Encoding: 177 177 177
Width: 1544
Flags: W
Fore
195.3 227 m 1,0,-1
 1349.1 227 l 1,1,-1
 1349.1 0 l 1,2,-1
 195.3 0 l 1,3,-1
 195.3 227 l 1,0,-1
875.7 1284 m 1,4,-1
 875.7 926 l 1,5,-1
 1349.1 926 l 1,6,-1
 1349.1 698 l 1,7,-1
 875.7 698 l 1,8,-1
 875.7 340 l 1,9,-1
 668.7 340 l 1,10,-1
 668.7 698 l 1,11,-1
 195.3 698 l 1,12,-1
 195.3 926 l 1,13,-1
 668.7 926 l 1,14,-1
 668.7 1284 l 1,15,-1
 875.7 1284 l 1,4,-1
EndSplineSet
EndChar
StartChar: twosuperior
Encoding: 178 178 178
Width: 807
Flags: W
Fore
169.2 1284 m 1,0,-1
 84.5996 1284 l 1,1,-1
 84.5996 1479 l 1,2,3
 149.4 1499 149.4 1499 217.35 1509.5 c 128,-1,4
 285.3 1520 285.3 1520 357.3 1520 c 0,5,6
 520.2 1520 520.2 1520 610.2 1456 c 128,-1,7
 700.2 1392 700.2 1392 700.2 1278 c 0,8,9
 700.2 1196 700.2 1196 651.15 1131.5 c 128,-1,10
 602.1 1067 602.1 1067 460.8 977 c 2,11,-1
 241.2 838 l 1,12,-1
 613.8 838 l 1,13,-1
 613.8 934 l 1,14,-1
 703.8 934 l 1,15,-1
 703.8 684 l 1,16,-1
 77.4004 684 l 1,17,-1
 77.4004 817 l 1,18,-1
 193.5 901 l 2,19,20
 361.8 1024 361.8 1024 406.8 1094 c 128,-1,21
 451.8 1164 451.8 1164 451.8 1257 c 0,22,23
 451.8 1341 451.8 1341 414.45 1388.5 c 128,-1,24
 377.1 1436 377.1 1436 311.4 1436 c 0,25,26
 254.7 1436 254.7 1436 215.55 1394.5 c 128,-1,27
 176.4 1353 176.4 1353 169.2 1284 c 1,0,-1
EndSplineSet
EndChar
StartChar: threesuperior
Encoding: 179 179 179
Width: 807
Flags: W
Fore
99.9004 1481 m 1,0,1
 179.1 1500 179.1 1500 246.15 1510 c 128,-1,2
 313.2 1520 313.2 1520 370.8 1520 c 0,3,4
 532.8 1520 532.8 1520 616.5 1467.5 c 128,-1,5
 700.2 1415 700.2 1415 700.2 1315 c 0,6,7
 700.2 1243 700.2 1243 652.95 1196 c 128,-1,8
 605.7 1149 605.7 1149 513.9 1133 c 1,9,10
 621.9 1117 621.9 1117 677.7 1061.5 c 128,-1,11
 733.5 1006 733.5 1006 733.5 913 c 0,12,13
 733.5 791 733.5 791 641.7 729.5 c 128,-1,14
 549.9 668 549.9 668 369 668 c 0,15,16
 297 668 297 668 225 678.5 c 128,-1,17
 153 689 153 689 81 711 c 1,18,-1
 81 911 l 1,19,-1
 167.4 911 l 1,20,21
 173.7 831 173.7 831 212.4 791.5 c 128,-1,22
 251.1 752 251.1 752 322.2 752 c 0,23,24
 401.4 752 401.4 752 443.25 795 c 128,-1,25
 485.1 838 485.1 838 485.1 920 c 0,26,27
 485.1 1000 485.1 1000 441 1043.5 c 128,-1,28
 396.9 1087 396.9 1087 315 1087 c 2,29,-1
 278.1 1087 l 1,30,-1
 278.1 1171 l 1,31,-1
 306 1171 l 2,32,33
 378.9 1171 378.9 1171 418.05 1205 c 128,-1,34
 457.2 1239 457.2 1239 457.2 1303 c 0,35,36
 457.2 1366 457.2 1366 422.1 1401 c 128,-1,37
 387 1436 387 1436 322.2 1436 c 0,38,39
 262.8 1436 262.8 1436 226.8 1399.5 c 128,-1,40
 190.8 1363 190.8 1363 186.3 1299 c 1,41,-1
 99.9004 1298 l 1,42,-1
 99.9004 1481 l 1,0,1
EndSplineSet
EndChar
StartChar: acute
Encoding: 180 180 180
Width: 921
Flags: W
Fore
543.6 1638 m 1,0,-1
 794.7 1638 l 1,1,-1
 459 1262 l 1,2,-1
 311.4 1262 l 1,3,-1
 543.6 1638 l 1,0,-1
EndSplineSet
LCarets2: 1 0 
EndChar
StartChar: mu
Encoding: 181 181 181
Width: 1349
Flags: W
Fore
1150.2 1063 m 1,0,-1
 1150.2 121 l 1,1,-1
 1287 121 l 1,2,-1
 1287 0 l 1,3,-1
 831.6 0 l 1,4,-1
 831.6 125 l 1,5,6
 782.1 42 782.1 42 733.05 6.5 c 128,-1,7
 684 -29 684 -29 617.4 -29 c 0,8,9
 589.5 -29 589.5 -29 562.95 -19 c 128,-1,10
 536.4 -9 536.4 -9 506.7 12 c 1,11,-1
 506.7 -305 l 1,12,-1
 643.5 -305 l 1,13,-1
 643.5 -426 l 1,14,-1
 51.2998 -426 l 1,15,-1
 51.2998 -305 l 1,16,-1
 188.1 -305 l 1,17,-1
 188.1 942 l 1,18,-1
 51.2998 942 l 1,19,-1
 51.2998 1063 l 1,20,-1
 506.7 1063 l 1,21,-1
 506.7 467 l 2,22,23
 506.7 247 506.7 247 537.3 192 c 128,-1,24
 567.9 137 567.9 137 647.1 137 c 0,25,26
 742.5 137 742.5 137 787.05 216.5 c 128,-1,27
 831.6 296 831.6 296 831.6 467 c 2,28,-1
 831.6 942 l 1,29,-1
 713.7 942 l 1,30,-1
 713.7 1063 l 1,31,-1
 1150.2 1063 l 1,0,-1
EndSplineSet
EndChar
StartChar: paragraph
Encoding: 182 182 182
Width: 1172
Flags: W
Fore
560.7 1493 m 2,0,-1
 1060.2 1493 l 1,1,-1
 1060.2 1368 l 1,2,-1
 958.5 1368 l 1,3,-1
 958.5 -197 l 1,4,-1
 821.7 -197 l 1,5,-1
 821.7 1368 l 1,6,-1
 675 1368 l 1,7,-1
 675 -197 l 1,8,-1
 538.2 -197 l 1,9,-1
 538.2 649 l 1,10,11
 344.7 666 344.7 666 238.5 776.5 c 128,-1,12
 132.3 887 132.3 887 132.3 1071 c 0,13,14
 132.3 1261 132.3 1261 249.3 1377 c 128,-1,15
 366.3 1493 366.3 1493 560.7 1493 c 2,0,-1
EndSplineSet
EndChar
StartChar: periodcentered
Encoding: 183 183 183
Width: 641
Flags: W
Fore
149.4 711 m 0,0,1
 149.4 789 149.4 789 199.8 845 c 128,-1,2
 250.2 901 250.2 901 320.4 901 c 0,3,4
 391.5 901 391.5 901 441.9 845 c 128,-1,5
 492.3 789 492.3 789 492.3 711 c 0,6,7
 492.3 633 492.3 633 441.9 577.5 c 128,-1,8
 391.5 522 391.5 522 320.4 522 c 0,9,10
 250.2 522 250.2 522 199.8 577.5 c 128,-1,11
 149.4 633 149.4 633 149.4 711 c 0,0,1
EndSplineSet
EndChar
StartChar: cedilla
Encoding: 184 184 184
Width: 921
Flags: W
Fore
534.6 0 m 1,0,1
 590.4 -64 590.4 -64 616.95 -118.5 c 128,-1,2
 643.5 -173 643.5 -173 643.5 -225 c 0,3,4
 643.5 -311 643.5 -311 585.45 -356 c 128,-1,5
 527.4 -401 527.4 -401 418.5 -401 c 0,6,7
 375.3 -401 375.3 -401 329.4 -394.5 c 128,-1,8
 283.5 -388 283.5 -388 236.7 -375 c 1,9,-1
 235.8 -219 l 1,10,11
 276.3 -236 276.3 -236 314.55 -245 c 128,-1,12
 352.8 -254 352.8 -254 385.2 -254 c 0,13,14
 439.2 -254 439.2 -254 467.55 -230.5 c 128,-1,15
 495.9 -207 495.9 -207 495.9 -162 c 0,16,17
 495.9 -134 495.9 -134 481.05 -101 c 128,-1,18
 466.2 -68 466.2 -68 420.3 0 c 1,19,-1
 534.6 0 l 1,0,1
EndSplineSet
EndChar
StartChar: onesuperior
Encoding: 185 185 185
Width: 807
Flags: W
Fore
145.8 684 m 1,0,-1
 145.8 778 l 1,1,-1
 293.4 778 l 1,2,-1
 293.4 1391 l 1,3,-1
 128.7 1290 l 1,4,-1
 128.7 1395 l 1,5,-1
 328.5 1520 l 1,6,-1
 532.8 1520 l 1,7,-1
 532.8 778 l 1,8,-1
 680.4 778 l 1,9,-1
 680.4 684 l 1,10,-1
 145.8 684 l 1,0,-1
EndSplineSet
EndChar
StartChar: ordmasculine
Encoding: 186 186 186
Width: 921
Flags: W
Fore
101.7 639 m 1,0,-1
 819.9 639 l 1,1,-1
 819.9 504 l 1,2,-1
 101.7 504 l 1,3,-1
 101.7 639 l 1,0,-1
460.8 823 m 0,4,5
 529.2 823 529.2 823 559.35 894 c 128,-1,6
 589.5 965 589.5 965 589.5 1128 c 0,7,8
 589.5 1292 589.5 1292 559.35 1363 c 128,-1,9
 529.2 1434 529.2 1434 460.8 1434 c 0,10,11
 391.5 1434 391.5 1434 361.8 1364 c 128,-1,12
 332.1 1294 332.1 1294 332.1 1128 c 0,13,14
 332.1 963 332.1 963 361.8 893 c 128,-1,15
 391.5 823 391.5 823 460.8 823 c 0,4,5
460.8 737 m 0,16,17
 270 737 270 737 162.45 841 c 128,-1,18
 54.9004 945 54.9004 945 54.9004 1128 c 0,19,20
 54.9004 1311 54.9004 1311 162.45 1415.5 c 128,-1,21
 270 1520 270 1520 460.8 1520 c 0,22,23
 651.6 1520 651.6 1520 759.15 1415.5 c 128,-1,24
 866.7 1311 866.7 1311 866.7 1128 c 0,25,26
 866.7 945 866.7 945 759.15 841 c 128,-1,27
 651.6 737 651.6 737 460.8 737 c 0,16,17
EndSplineSet
EndChar
StartChar: guillemotright
Encoding: 187 187 187
Width: 1152
Flags: W
Fore
173.7 1069 m 1,0,-1
 595.8 684 l 1,1,-1
 595.8 516 l 1,2,-1
 173.7 131 l 1,3,-1
 173.7 279 l 1,4,-1
 388.8 600 l 1,5,-1
 173.7 922 l 1,6,-1
 173.7 1069 l 1,0,-1
587.7 1069 m 1,7,-1
 1009.8 684 l 1,8,-1
 1009.8 516 l 1,9,-1
 587.7 131 l 1,10,-1
 587.7 279 l 1,11,-1
 803.7 600 l 1,12,-1
 587.7 922 l 1,13,-1
 587.7 1069 l 1,7,-1
EndSplineSet
EndChar
StartChar: questiondown
Encoding: 191 191 191
Width: 1080
Flags: W
Fore
772.2 1329 m 0,0,1
 772.2 1251 772.2 1251 721.8 1196 c 128,-1,2
 671.4 1141 671.4 1141 601.2 1141 c 0,3,4
 530.1 1141 530.1 1141 480.6 1196 c 128,-1,5
 431.1 1251 431.1 1251 431.1 1329 c 0,6,7
 431.1 1408 431.1 1408 481.05 1464 c 128,-1,8
 531 1520 531 1520 601.2 1520 c 0,9,10
 671.4 1520 671.4 1520 721.8 1463.5 c 128,-1,11
 772.2 1407 772.2 1407 772.2 1329 c 0,0,1
960.3 39 m 1,12,13
 848.7 5 848.7 5 747.9 -12 c 128,-1,14
 647.1 -29 647.1 -29 552.6 -29 c 0,15,16
 325.8 -29 325.8 -29 204.3 81.5 c 128,-1,17
 82.7998 192 82.7998 192 82.7998 397 c 0,18,19
 82.7998 599 82.7998 599 200.25 715.5 c 128,-1,20
 317.7 832 317.7 832 538.2 850 c 1,21,-1
 538.2 1055 l 1,22,-1
 663.3 1055 l 1,23,-1
 663.3 756 l 1,24,25
 538.2 713 538.2 713 479.25 620.5 c 128,-1,26
 420.3 528 420.3 528 420.3 375 c 0,27,28
 420.3 230 420.3 230 475.2 157 c 128,-1,29
 530.1 84 530.1 84 638.1 84 c 0,30,31
 736.2 84 736.2 84 789.75 150 c 128,-1,32
 843.3 216 843.3 216 852.3 346 c 1,33,-1
 960.3 346 l 1,34,-1
 960.3 39 l 1,12,13
EndSplineSet
EndChar
StartChar: Aring
Encoding: 197 197 197
Width: 1430
Flags: W
Fore
591.3 1616 m 0,0,1
 591.3 1562 591.3 1562 626.4 1523.5 c 128,-1,2
 661.5 1485 661.5 1485 709.2 1485 c 0,3,4
 758.7 1485 758.7 1485 793.35 1523.5 c 128,-1,5
 828 1562 828 1562 828 1616 c 0,6,7
 828 1670 828 1670 792.9 1708.5 c 128,-1,8
 757.8 1747 757.8 1747 709.2 1747 c 0,9,10
 661.5 1747 661.5 1747 626.4 1708.5 c 128,-1,11
 591.3 1670 591.3 1670 591.3 1616 c 0,0,1
-14.4004 0 m 1,12,-1
 -14.4004 121 l 1,13,-1
 95.4004 121 l 1,14,-1
 562.5 1384 l 1,15,16
 510.3 1421 510.3 1421 481.95 1481.5 c 128,-1,17
 453.6 1542 453.6 1542 453.6 1616 c 0,18,19
 453.6 1733 453.6 1733 528.75 1817 c 128,-1,20
 603.9 1901 603.9 1901 709.2 1901 c 0,21,22
 815.4 1901 815.4 1901 890.55 1817 c 128,-1,23
 965.7 1733 965.7 1733 965.7 1616 c 0,24,25
 965.7 1542 965.7 1542 938.25 1483 c 128,-1,26
 910.8 1424 910.8 1424 856.8 1384 c 1,27,-1
 1323 121 l 1,28,-1
 1450.8 121 l 1,29,-1
 1450.8 0 l 1,30,-1
 821.7 0 l 1,31,-1
 821.7 121 l 1,32,-1
 953.1 121 l 1,33,-1
 842.4 426 l 1,34,-1
 337.5 426 l 1,35,-1
 225 121 l 1,36,-1
 385.2 121 l 1,37,-1
 385.2 0 l 1,38,-1
 -14.4004 0 l 1,12,-1
381.6 547 m 1,39,-1
 798.3 547 l 1,40,-1
 593.1 1118 l 1,41,-1
 381.6 547 l 1,39,-1
EndSplineSet
EndChar
StartChar: AE
Encoding: 198 198 198
Width: 1906
Flags: W
AnchorPoint: "below" 1094.4 0 basechar 0
AnchorPoint: "above" 1094.4 1465 basechar 0
Fore
360.9 545 m 1,0,-1
 779.4 545 l 1,1,-1
 779.4 1372 l 1,2,-1
 711.9 1372 l 1,3,-1
 360.9 545 l 1,0,-1
608.4 0 m 1,4,-1
 608.4 121 l 1,5,-1
 779.4 121 l 1,6,-1
 779.4 424 l 1,7,-1
 309.6 424 l 1,8,-1
 180.9 121 l 1,9,-1
 328.5 121 l 1,10,-1
 328.5 0 l 1,11,-1
 -56.7002 0 l 1,12,-1
 -56.7002 121 l 1,13,-1
 45.9004 121 l 1,14,-1
 578.7 1372 l 1,15,-1
 397.8 1372 l 1,16,-1
 397.8 1493 l 1,17,-1
 1793.7 1493 l 1,18,-1
 1793.7 1141 l 1,19,-1
 1669.5 1141 l 1,20,-1
 1669.5 1356 l 1,21,-1
 1127.7 1356 l 1,22,-1
 1127.7 877 l 1,23,-1
 1458 877 l 1,24,-1
 1458 1067 l 1,25,-1
 1579.5 1067 l 1,26,-1
 1579.5 551 l 1,27,-1
 1458 551 l 1,28,-1
 1458 741 l 1,29,-1
 1127.7 741 l 1,30,-1
 1127.7 137 l 1,31,-1
 1688.4 137 l 1,32,-1
 1688.4 352 l 1,33,-1
 1809.9 352 l 1,34,-1
 1809.9 0 l 1,35,-1
 608.4 0 l 1,4,-1
EndSplineSet
EndChar
StartChar: Eth
Encoding: 208 208 208
Width: 1611
Flags: W
Fore
617.4 121 m 1,0,-1
 742.5 121 l 2,1,2
 953.1 121 953.1 121 1049.85 270.5 c 128,-1,3
 1146.6 420 1146.6 420 1146.6 748 c 0,4,5
 1146.6 1074 1146.6 1074 1049.85 1223 c 128,-1,6
 953.1 1372 953.1 1372 742.5 1372 c 2,7,-1
 617.4 1372 l 1,8,-1
 617.4 850 l 1,9,-1
 916.2 850 l 1,10,-1
 916.2 713 l 1,11,-1
 617.4 713 l 1,12,-1
 617.4 121 l 1,0,-1
98.0996 0 m 1,13,-1
 98.0996 121 l 1,14,-1
 270.9 121 l 1,15,-1
 270.9 713 l 1,16,-1
 79.2002 713 l 1,17,-1
 79.2002 850 l 1,18,-1
 270.9 850 l 1,19,-1
 270.9 1372 l 1,20,-1
 98.0996 1372 l 1,21,-1
 98.0996 1493 l 1,22,-1
 789.3 1493 l 2,23,24
 1149.3 1493 1149.3 1493 1340.55 1301.5 c 128,-1,25
 1531.8 1110 1531.8 1110 1531.8 748 c 0,26,27
 1531.8 385 1531.8 385 1340.55 192.5 c 128,-1,28
 1149.3 0 1149.3 0 789.3 0 c 2,29,-1
 98.0996 0 l 1,13,-1
EndSplineSet
EndChar
StartChar: multiply
Encoding: 215 215 215
Width: 1544
Flags: W
Fore
1306.8 1081 m 1,0,-1
 910.8 641 l 1,1,-1
 1306.8 201 l 1,2,-1
 1168.2 47 l 1,3,-1
 772.2 487 l 1,4,-1
 376.2 47 l 1,5,-1
 237.6 201 l 1,6,-1
 634.5 641 l 1,7,-1
 237.6 1081 l 1,8,-1
 376.2 1237 l 1,9,-1
 772.2 797 l 1,10,-1
 1168.2 1237 l 1,11,-1
 1306.8 1081 l 1,0,-1
EndSplineSet
EndChar
StartChar: Oslash
Encoding: 216 216 216
Width: 1605
Flags: W
AnchorPoint: "above" 803.7 1465 basechar 0
AnchorPoint: "below" 803.7 0 basechar 0
Fore
481.5 479 m 1,0,-1
 1090.8 1157 l 1,1,2
 1053 1276 1053 1276 979.65 1337.5 c 128,-1,3
 906.3 1399 906.3 1399 801.9 1399 c 0,4,5
 630.9 1399 630.9 1399 546.75 1236.5 c 128,-1,6
 462.6 1074 462.6 1074 462.6 745 c 0,7,8
 462.6 669 462.6 669 467.1 603 c 128,-1,9
 471.6 537 471.6 537 481.5 479 c 1,0,-1
513.9 334 m 1,10,11
 554.4 212 554.4 212 625.95 152 c 128,-1,12
 697.5 92 697.5 92 801.9 92 c 0,13,14
 977.4 92 977.4 92 1060.2 259 c 128,-1,15
 1143 426 1143 426 1143 784 c 0,16,17
 1143 849 1143 849 1137.6 899.5 c 128,-1,18
 1132.2 950 1132.2 950 1120.5 993 c 1,19,-1
 513.9 334 l 1,10,11
1364.4 1280 m 1,20,21
 1445.4 1176 1445.4 1176 1485.9 1042.5 c 128,-1,22
 1526.4 909 1526.4 909 1526.4 745 c 0,23,24
 1526.4 383 1526.4 383 1333.35 177 c 128,-1,25
 1140.3 -29 1140.3 -29 801.9 -29 c 0,26,27
 659.7 -29 659.7 -29 540.45 10 c 128,-1,28
 421.2 49 421.2 49 325.8 127 c 1,29,-1
 142.2 -78 l 1,30,-1
 61.2002 12 l 1,31,-1
 241.2 213 l 1,32,33
 159.3 315 159.3 315 118.35 448.5 c 128,-1,34
 77.4004 582 77.4004 582 77.4004 745 c 0,35,36
 77.4004 1107 77.4004 1107 270.45 1313.5 c 128,-1,37
 463.5 1520 463.5 1520 801.9 1520 c 0,38,39
 945.9 1520 945.9 1520 1065.6 1481.5 c 128,-1,40
 1185.3 1443 1185.3 1443 1278.9 1366 c 1,41,-1
 1461.6 1569 l 1,42,-1
 1542.6 1479 l 1,43,-1
 1364.4 1280 l 1,20,21
EndSplineSet
EndChar
StartChar: Thorn
Encoding: 222 222 222
Width: 1395
Flags: W
Fore
86.4004 0 m 1,0,-1
 86.4004 121 l 1,1,-1
 258.3 121 l 1,2,-1
 258.3 1372 l 1,3,-1
 86.4004 1372 l 1,4,-1
 86.4004 1493 l 1,5,-1
 819.9 1493 l 1,6,-1
 819.9 1372 l 1,7,-1
 604.8 1372 l 1,8,-1
 604.8 1202 l 1,9,-1
 851.4 1202 l 2,10,11
 1075.5 1202 1075.5 1202 1207.8 1083.5 c 128,-1,12
 1340.1 965 1340.1 965 1340.1 766 c 0,13,14
 1340.1 567 1340.1 567 1207.35 447.5 c 128,-1,15
 1074.6 328 1074.6 328 851.4 328 c 2,16,-1
 604.8 328 l 1,17,-1
 604.8 121 l 1,18,-1
 821.7 121 l 1,19,-1
 821.7 0 l 1,20,-1
 86.4004 0 l 1,0,-1
604.8 449 m 1,21,-1
 705.6 449 l 2,22,23
 822.6 449 822.6 449 892.35 535 c 128,-1,24
 962.1 621 962.1 621 962.1 766 c 0,25,26
 962.1 910 962.1 910 892.8 995.5 c 128,-1,27
 823.5 1081 823.5 1081 705.6 1081 c 2,28,-1
 604.8 1081 l 1,29,-1
 604.8 449 l 1,21,-1
EndSplineSet
EndChar
StartChar: germandbls
Encoding: 223 223 223
Width: 1400
Flags: W
Fore
897.3 1221 m 1,0,1
 891 1345 891 1345 847.8 1394.5 c 128,-1,2
 804.6 1444 804.6 1444 703.8 1444 c 0,3,4
 605.7 1444 605.7 1444 561.6 1384.5 c 128,-1,5
 517.5 1325 517.5 1325 517.5 1190 c 2,6,-1
 517.5 0 l 1,7,-1
 63 0 l 1,8,-1
 63 121 l 1,9,-1
 198.9 121 l 1,10,-1
 198.9 1147 l 2,11,12
 198.9 1348 198.9 1348 324.9 1452 c 128,-1,13
 450.9 1556 450.9 1556 693 1556 c 0,14,15
 929.7 1556 929.7 1556 1050.75 1450.5 c 128,-1,16
 1171.8 1345 1171.8 1345 1196.1 1116 c 1,17,-1
 1176.3 1116 l 2,18,19
 1036.8 1116 1036.8 1116 965.25 1070.5 c 128,-1,20
 893.7 1025 893.7 1025 893.7 936 c 0,21,22
 893.7 896 893.7 896 914.4 862.5 c 128,-1,23
 935.1 829 935.1 829 1009.8 768 c 2,24,-1
 1089 705 l 2,25,26
 1248.3 577 1248.3 577 1292.4 498 c 128,-1,27
 1336.5 419 1336.5 419 1336.5 311 c 0,28,29
 1336.5 151 1336.5 151 1224.45 61 c 128,-1,30
 1112.4 -29 1112.4 -29 910.8 -29 c 0,31,32
 838.8 -29 838.8 -29 760.05 -14 c 128,-1,33
 681.3 1 681.3 1 591.3 31 c 1,34,-1
 591.3 289 l 1,35,-1
 700.2 289 l 1,36,37
 711.9 182 711.9 182 756 133 c 128,-1,38
 800.1 84 800.1 84 884.7 84 c 0,39,40
 953.1 84 953.1 84 995.4 128 c 128,-1,41
 1037.7 172 1037.7 172 1037.7 244 c 0,42,43
 1037.7 349 1037.7 349 890.1 466 c 0,44,45
 871.2 481 871.2 481 861.3 489 c 2,46,-1
 781.2 553 l 2,47,48
 689.4 627 689.4 627 648.9 705.5 c 128,-1,49
 608.4 784 608.4 784 608.4 889 c 0,50,51
 608.4 1023 608.4 1023 680.4 1105.5 c 128,-1,52
 752.4 1188 752.4 1188 897.3 1221 c 1,0,1
EndSplineSet
EndChar
StartChar: ae
Encoding: 230 230 230
Width: 1797
Flags: W
AnchorPoint: "above" 877.5 1092 basechar 0
AnchorPoint: "below" 877.5 0 basechar 0
Fore
1361.7 600 m 1,0,1
 1361.7 810 1361.7 810 1326.6 894.5 c 128,-1,2
 1291.5 979 1291.5 979 1206.9 979 c 0,3,4
 1125 979 1125 979 1089.45 896 c 128,-1,5
 1053.9 813 1053.9 813 1053.9 618 c 2,6,-1
 1053.9 600 l 1,7,-1
 1361.7 600 l 1,0,1
877.5 936 m 1,8,9
 946.8 1014 946.8 1014 1030.05 1053 c 128,-1,10
 1113.3 1092 1113.3 1092 1213.2 1092 c 0,11,12
 1449.9 1092 1449.9 1092 1576.8 937 c 128,-1,13
 1703.7 782 1703.7 782 1711.8 481 c 1,14,-1
 1053.9 481 l 1,15,-1
 1053.9 473 l 2,16,17
 1053.9 267 1053.9 267 1109.7 175.5 c 128,-1,18
 1165.5 84 1165.5 84 1290.6 84 c 0,19,20
 1393.2 84 1393.2 84 1456.2 144.5 c 128,-1,21
 1519.2 205 1519.2 205 1537.2 322 c 1,22,-1
 1688.4 322 l 1,23,24
 1649.7 141 1649.7 141 1534.95 56 c 128,-1,25
 1420.2 -29 1420.2 -29 1213.2 -29 c 0,26,27
 1092.6 -29 1092.6 -29 999 9.5 c 128,-1,28
 905.4 48 905.4 48 835.2 127 c 1,29,30
 755.1 49 755.1 49 660.15 10 c 128,-1,31
 565.2 -29 565.2 -29 453.6 -29 c 0,32,33
 268.2 -29 268.2 -29 171.9 57.5 c 128,-1,34
 75.5996 144 75.5996 144 75.5996 309 c 0,35,36
 75.5996 489 75.5996 489 190.35 577.5 c 128,-1,37
 305.1 666 305.1 666 538.2 666 c 2,38,-1
 705.6 666 l 1,39,-1
 705.6 729 l 2,40,41
 705.6 845 705.6 845 642.15 912 c 128,-1,42
 578.7 979 578.7 979 468 979 c 0,43,44
 375.3 979 375.3 979 324 935.5 c 128,-1,45
 272.7 892 272.7 892 251.1 795 c 1,46,-1
 149.4 795 l 1,47,-1
 149.4 1024 l 1,48,49
 234.9 1058 234.9 1058 326.7 1075 c 128,-1,50
 418.5 1092 418.5 1092 520.2 1092 c 0,51,52
 643.5 1092 643.5 1092 731.7 1053.5 c 128,-1,53
 819.9 1015 819.9 1015 877.5 936 c 1,8,9
705.6 330 m 2,54,-1
 705.6 547 l 1,55,-1
 585.9 547 l 2,56,57
 487.8 547 487.8 547 440.1 492 c 128,-1,58
 392.4 437 392.4 437 392.4 324 c 0,59,60
 392.4 211 392.4 211 427.95 163 c 128,-1,61
 463.5 115 463.5 115 543.6 115 c 0,62,63
 621 115 621 115 663.3 171 c 128,-1,64
 705.6 227 705.6 227 705.6 330 c 2,54,-1
EndSplineSet
EndChar
StartChar: eth
Encoding: 240 240 240
Width: 1229
Flags: W
Fore
805.5 1337 m 1,0,1
 974.7 1188 974.7 1188 1065.15 986.5 c 128,-1,2
 1155.6 785 1155.6 785 1155.6 557 c 0,3,4
 1155.6 282 1155.6 282 1012.5 126.5 c 128,-1,5
 869.4 -29 869.4 -29 615.6 -29 c 0,6,7
 368.1 -29 368.1 -29 221.85 117.5 c 128,-1,8
 75.5996 264 75.5996 264 75.5996 508 c 0,9,10
 75.5996 738 75.5996 738 219.15 889 c 128,-1,11
 362.7 1040 362.7 1040 582.3 1040 c 0,12,13
 620.1 1040 620.1 1040 658.8 1034 c 128,-1,14
 697.5 1028 697.5 1028 737.1 1016 c 1,15,16
 718.2 1079 718.2 1079 688.95 1134 c 128,-1,17
 659.7 1189 659.7 1189 617.4 1241 c 1,18,-1
 330.3 1092 l 1,19,-1
 285.3 1192 l 1,20,-1
 536.4 1323 l 1,21,22
 489.6 1361 489.6 1361 420.75 1392 c 128,-1,23
 351.9 1423 351.9 1423 261.9 1446 c 1,24,-1
 287.1 1556 l 1,25,26
 413.1 1539 413.1 1539 518.4 1502.5 c 128,-1,27
 623.7 1466 623.7 1466 705.6 1411 c 1,28,-1
 1002.6 1565 l 1,29,-1
 1044.9 1462 l 1,30,-1
 805.5 1337 l 1,0,1
754.2 891 m 1,31,32
 711.9 910 711.9 910 678.15 919 c 128,-1,33
 644.4 928 644.4 928 615.6 928 c 0,34,35
 515.7 928 515.7 928 473.4 832.5 c 128,-1,36
 431.1 737 431.1 737 431.1 508 c 0,37,38
 431.1 274 431.1 274 473.4 179 c 128,-1,39
 515.7 84 515.7 84 615.6 84 c 0,40,41
 715.5 84 715.5 84 756.9 178 c 128,-1,42
 798.3 272 798.3 272 798.3 508 c 0,43,44
 798.3 615 798.3 615 787.05 710.5 c 128,-1,45
 775.8 806 775.8 806 754.2 891 c 1,31,32
EndSplineSet
EndChar
StartChar: divide
Encoding: 247 247 247
Width: 1544
Flags: W
Fore
638.1 1012 m 0,0,1
 638.1 1073 638.1 1073 677.7 1117 c 128,-1,2
 717.3 1161 717.3 1161 772.2 1161 c 0,3,4
 828 1161 828 1161 867.6 1117 c 128,-1,5
 907.2 1073 907.2 1073 907.2 1012 c 0,6,7
 907.2 950 907.2 950 867.6 906 c 128,-1,8
 828 862 828 862 772.2 862 c 0,9,10
 717.3 862 717.3 862 677.7 906 c 128,-1,11
 638.1 950 638.1 950 638.1 1012 c 0,0,1
638.1 272 m 0,12,13
 638.1 334 638.1 334 677.7 378 c 128,-1,14
 717.3 422 717.3 422 772.2 422 c 0,15,16
 828 422 828 422 867.6 378 c 128,-1,17
 907.2 334 907.2 334 907.2 272 c 0,18,19
 907.2 211 907.2 211 867.6 167 c 128,-1,20
 828 123 828 123 772.2 123 c 0,21,22
 717.3 123 717.3 123 677.7 167 c 128,-1,23
 638.1 211 638.1 211 638.1 272 c 0,12,13
195.3 756 m 1,24,-1
 1349.1 756 l 1,25,-1
 1349.1 528 l 1,26,-1
 195.3 528 l 1,27,-1
 195.3 756 l 1,24,-1
EndSplineSet
EndChar
StartChar: oslash
Encoding: 248 248 248
Width: 1229
Flags: W
AnchorPoint: "above" 615.6 1092 basechar 0
AnchorPoint: "below" 615.6 0 basechar 0
Fore
432.9 416 m 1,0,-1
 781.2 801 l 1,1,2
 765.9 891 765.9 891 725.4 935 c 128,-1,3
 684.9 979 684.9 979 615.6 979 c 0,4,5
 516.6 979 516.6 979 474.75 883.5 c 128,-1,6
 432.9 788 432.9 788 432.9 553 c 2,7,-1
 432.9 416 l 1,0,-1
450 262 m 1,8,9
 463.5 173 463.5 173 504.9 128.5 c 128,-1,10
 546.3 84 546.3 84 615.6 84 c 0,11,12
 713.7 84 713.7 84 755.1 178 c 128,-1,13
 796.5 272 796.5 272 796.5 508 c 2,14,-1
 796.5 649 l 1,15,-1
 450 262 l 1,8,9
1035.9 913 m 1,16,17
 1095.3 841 1095.3 841 1125.45 745.5 c 128,-1,18
 1155.6 650 1155.6 650 1155.6 532 c 0,19,20
 1155.6 270 1155.6 270 1012.05 120.5 c 128,-1,21
 868.5 -29 868.5 -29 615.6 -29 c 0,22,23
 515.7 -29 515.7 -29 432 -4.5 c 128,-1,24
 348.3 20 348.3 20 276.3 70 c 1,25,-1
 121.5 -102 l 1,26,-1
 45.9004 -16 l 1,27,-1
 193.5 147 l 1,28,29
 135 222 135 222 105.3 318.5 c 128,-1,30
 75.5996 415 75.5996 415 75.5996 532 c 0,31,32
 75.5996 795 75.5996 795 219.15 943.5 c 128,-1,33
 362.7 1092 362.7 1092 615.6 1092 c 0,34,35
 720 1092 720 1092 805.05 1067 c 128,-1,36
 890.1 1042 890.1 1042 954.9 993 c 1,37,-1
 1106.1 1161 l 1,38,-1
 1183.5 1075 l 1,39,-1
 1035.9 913 l 1,16,17
EndSplineSet
EndChar
StartChar: thorn
Encoding: 254 254 254
Width: 1288
Flags: W
Fore
497.7 584 m 2,0,-1
 497.7 479 l 2,1,2
 497.7 293 497.7 293 540.45 210 c 128,-1,3
 583.2 127 583.2 127 678.6 127 c 0,4,5
 776.7 127 776.7 127 816.75 215 c 128,-1,6
 856.8 303 856.8 303 856.8 532 c 0,7,8
 856.8 761 856.8 761 816.75 848.5 c 128,-1,9
 776.7 936 776.7 936 678.6 936 c 0,10,11
 583.2 936 583.2 936 540.45 853 c 128,-1,12
 497.7 770 497.7 770 497.7 584 c 2,0,-1
179.1 1436 m 1,13,-1
 42.2998 1436 l 1,14,-1
 42.2998 1556 l 1,15,-1
 497.7 1556 l 1,16,-1
 497.7 928 l 1,17,18
 538.2 1011 538.2 1011 606.6 1051.5 c 128,-1,19
 675 1092 675 1092 775.8 1092 c 0,20,21
 980.1 1092 980.1 1092 1097.55 942.5 c 128,-1,22
 1215 793 1215 793 1215 532 c 0,23,24
 1215 271 1215 271 1097.55 121 c 128,-1,25
 980.1 -29 980.1 -29 775.8 -29 c 0,26,27
 675 -29 675 -29 606.6 11.5 c 128,-1,28
 538.2 52 538.2 52 497.7 135 c 1,29,-1
 497.7 -305 l 1,30,-1
 645.3 -305 l 1,31,-1
 645.3 -426 l 1,32,-1
 42.2998 -426 l 1,33,-1
 42.2998 -305 l 1,34,-1
 179.1 -305 l 1,35,-1
 179.1 1436 l 1,13,-1
EndSplineSet
EndChar
StartChar: dcroat
Encoding: 273 273 273
Width: 1288
Flags: W
Fore
791.1 479 m 2,0,-1
 791.1 584 l 2,1,2
 791.1 770 791.1 770 747.9 853 c 128,-1,3
 704.7 936 704.7 936 610.2 936 c 0,4,5
 511.2 936 511.2 936 471.15 848.5 c 128,-1,6
 431.1 761 431.1 761 431.1 532 c 0,7,8
 431.1 303 431.1 303 471.6 215 c 128,-1,9
 512.1 127 512.1 127 610.2 127 c 0,10,11
 704.7 127 704.7 127 747.9 210 c 128,-1,12
 791.1 293 791.1 293 791.1 479 c 2,0,-1
1109.7 121 m 1,13,-1
 1245.6 121 l 1,14,-1
 1245.6 0 l 1,15,-1
 791.1 0 l 1,16,-1
 791.1 135 l 1,17,18
 750.6 52 750.6 52 681.75 11.5 c 128,-1,19
 612.9 -29 612.9 -29 512.1 -29 c 0,20,21
 308.7 -29 308.7 -29 192.15 121 c 128,-1,22
 75.5996 271 75.5996 271 75.5996 532 c 0,23,24
 75.5996 794 75.5996 794 192.15 943 c 128,-1,25
 308.7 1092 308.7 1092 512.1 1092 c 0,26,27
 612.9 1092 612.9 1092 681.75 1051.5 c 128,-1,28
 750.6 1011 750.6 1011 791.1 928 c 1,29,-1
 791.1 1223 l 1,30,-1
 499.5 1223 l 1,31,-1
 499.5 1343 l 1,32,-1
 791.1 1343 l 1,33,-1
 791.1 1436 l 1,34,-1
 654.3 1436 l 1,35,-1
 654.3 1556 l 1,36,-1
 1109.7 1556 l 1,37,-1
 1109.7 1343 l 1,38,-1
 1264.5 1343 l 1,39,-1
 1264.5 1223 l 1,40,-1
 1109.7 1223 l 1,41,-1
 1109.7 121 l 1,13,-1
EndSplineSet
EndChar
StartChar: Hbar
Encoding: 294 294 294
Width: 1741
Flags: W
AnchorPoint: "above" 873 1465 basechar 0
Fore
86.4004 0 m 1,0,-1
 86.4004 121 l 1,1,-1
 258.3 121 l 1,2,-1
 258.3 1053 l 1,3,-1
 86.4004 1053 l 1,4,-1
 86.4004 1190 l 1,5,-1
 258.3 1190 l 1,6,-1
 258.3 1372 l 1,7,-1
 86.4004 1372 l 1,8,-1
 86.4004 1493 l 1,9,-1
 777.6 1493 l 1,10,-1
 777.6 1372 l 1,11,-1
 604.8 1372 l 1,12,-1
 604.8 1190 l 1,13,-1
 1139.4 1190 l 1,14,-1
 1139.4 1372 l 1,15,-1
 967.5 1372 l 1,16,-1
 967.5 1493 l 1,17,-1
 1658.7 1493 l 1,18,-1
 1658.7 1372 l 1,19,-1
 1485.9 1372 l 1,20,-1
 1485.9 1190 l 1,21,-1
 1658.7 1190 l 1,22,-1
 1658.7 1053 l 1,23,-1
 1485.9 1053 l 1,24,-1
 1485.9 121 l 1,25,-1
 1658.7 121 l 1,26,-1
 1658.7 0 l 1,27,-1
 967.5 0 l 1,28,-1
 967.5 121 l 1,29,-1
 1139.4 121 l 1,30,-1
 1139.4 733 l 1,31,-1
 604.8 733 l 1,32,-1
 604.8 121 l 1,33,-1
 777.6 121 l 1,34,-1
 777.6 0 l 1,35,-1
 86.4004 0 l 1,0,-1
604.8 870 m 1,36,-1
 1139.4 870 l 1,37,-1
 1139.4 1053 l 1,38,-1
 604.8 1053 l 1,39,-1
 604.8 870 l 1,36,-1
EndSplineSet
EndChar
StartChar: hbar
Encoding: 295 295 295
Width: 1340
Flags: W
AnchorPoint: "below" 679.5 0 basechar 0
AnchorPoint: "above" 291.6 1465 basechar 0
Fore
63 0 m 1,0,-1
 63 121 l 1,1,-1
 198.9 121 l 1,2,-1
 198.9 1196 l 1,3,-1
 56.7002 1196 l 1,4,-1
 56.7002 1333 l 1,5,-1
 198.9 1333 l 1,6,-1
 198.9 1436 l 1,7,-1
 56.7002 1436 l 1,8,-1
 56.7002 1556 l 1,9,-1
 517.5 1556 l 1,10,-1
 517.5 1333 l 1,11,-1
 840.6 1333 l 1,12,-1
 840.6 1196 l 1,13,-1
 517.5 1196 l 1,14,-1
 517.5 913 l 1,15,16
 575.1 1008 575.1 1008 648.9 1050 c 128,-1,17
 722.7 1092 722.7 1092 835.2 1092 c 0,18,19
 996.3 1092 996.3 1092 1078.65 986.5 c 128,-1,20
 1161 881 1161 881 1161 676 c 2,21,-1
 1161 121 l 1,22,-1
 1297.8 121 l 1,23,-1
 1297.8 0 l 1,24,-1
 726.3 0 l 1,25,-1
 726.3 121 l 1,26,-1
 842.4 121 l 1,27,-1
 842.4 686 l 2,28,29
 842.4 821 842.4 821 811.35 873.5 c 128,-1,30
 780.3 926 780.3 926 703.8 926 c 0,31,32
 607.5 926 607.5 926 562.5 847.5 c 128,-1,33
 517.5 769 517.5 769 517.5 598 c 2,34,-1
 517.5 121 l 1,35,-1
 634.5 121 l 1,36,-1
 634.5 0 l 1,37,-1
 63 0 l 1,0,-1
EndSplineSet
EndChar
StartChar: dotlessi
Encoding: 305 305 305
Width: 700
Flags: W
AnchorPoint: "above" 350.1 1092 basechar 0
Fore
517.5 121 m 1,0,-1
 654.3 121 l 1,1,-1
 654.3 0 l 1,2,-1
 63 0 l 1,3,-1
 63 121 l 1,4,-1
 198.9 121 l 1,5,-1
 198.9 942 l 1,6,-1
 63 942 l 1,7,-1
 63 1063 l 1,8,-1
 517.5 1063 l 1,9,-1
 517.5 121 l 1,0,-1
EndSplineSet
EndChar
StartChar: kgreenlandic
Encoding: 312 312 312
Width: 1277
Flags: W
Fore
638.1 0 m 1,0,-1
 63 0 l 1,1,-1
 63 121 l 1,2,-1
 198.9 121 l 1,3,-1
 198.9 939 l 1,4,-1
 63 939 l 1,5,-1
 63 1060 l 1,6,-1
 517.5 1060 l 1,7,-1
 517.5 556 l 1,8,-1
 903.6 939 l 1,9,-1
 789.3 939 l 1,10,-1
 789.3 1060 l 1,11,-1
 1225.8 1060 l 1,12,-1
 1225.8 939 l 1,13,-1
 1048.5 939 l 1,14,-1
 801.9 695 l 1,15,-1
 1205.1 121 l 1,16,-1
 1308.6 121 l 1,17,-1
 1308.6 0 l 1,18,-1
 759.6 0 l 1,19,-1
 759.6 121 l 1,20,-1
 872.1 121 l 1,21,-1
 606.6 499 l 1,22,-1
 517.5 411 l 1,23,-1
 517.5 121 l 1,24,-1
 638.1 121 l 1,25,-1
 638.1 0 l 1,0,-1
EndSplineSet
EndChar
StartChar: Lslash
Encoding: 321 321 321
Width: 1308
Flags: W
Fore
98.0996 0 m 1,0,-1
 98.0996 121 l 1,1,-1
 270.9 121 l 1,2,-1
 270.9 549 l 1,3,-1
 77.4004 422 l 1,4,-1
 14.4004 539 l 1,5,-1
 270.9 707 l 1,6,-1
 270.9 1372 l 1,7,-1
 98.0996 1372 l 1,8,-1
 98.0996 1493 l 1,9,-1
 789.3 1493 l 1,10,-1
 789.3 1372 l 1,11,-1
 617.4 1372 l 1,12,-1
 617.4 938 l 1,13,-1
 923.4 1139 l 1,14,-1
 986.4 1022 l 1,15,-1
 617.4 778 l 1,16,-1
 617.4 137 l 1,17,-1
 1146.6 137 l 1,18,-1
 1146.6 373 l 1,19,-1
 1268.1 373 l 1,20,-1
 1268.1 0 l 1,21,-1
 98.0996 0 l 1,0,-1
EndSplineSet
EndChar
StartChar: lslash
Encoding: 322 322 322
Width: 709
Flags: W
Fore
522 121 m 1,0,-1
 657.9 121 l 1,1,-1
 657.9 0 l 1,2,-1
 66.5996 0 l 1,3,-1
 66.5996 121 l 1,4,-1
 202.5 121 l 1,5,-1
 202.5 653 l 1,6,-1
 63 557 l 1,7,-1
 7.2002 662 l 1,8,-1
 202.5 795 l 1,9,-1
 202.5 1436 l 1,10,-1
 66.5996 1436 l 1,11,-1
 66.5996 1556 l 1,12,-1
 522 1556 l 1,13,-1
 522 999 l 1,14,-1
 661.5 1096 l 1,15,-1
 719.1 991 l 1,16,-1
 522 858 l 1,17,-1
 522 121 l 1,0,-1
EndSplineSet
EndChar
StartChar: Eng
Encoding: 330 330 330
Width: 1607
Flags: W
Fore
63 0 m 1,0,-1
 63 121 l 1,1,-1
 234 121 l 1,2,-1
 234 1372 l 1,3,-1
 98.0996 1372 l 1,4,-1
 98.0996 1493 l 1,5,-1
 582.3 1493 l 1,6,-1
 582.3 1339 l 1,7,8
 654.3 1436 654.3 1436 747.9 1479 c 0,9,10
 838.8 1521 838.8 1521 983.7 1521 c 0,11,12
 1187.1 1521 1187.1 1521 1291.05 1380 c 128,-1,13
 1395 1239 1395 1239 1395 965 c 2,14,-1
 1395 41 l 2,15,16
 1395 -202 1395 -202 1284.3 -314 c 128,-1,17
 1173.6 -426 1173.6 -426 933.3 -426 c 0,18,19
 858.6 -426 858.6 -426 783 -409 c 128,-1,20
 707.4 -392 707.4 -392 629.1 -358 c 1,21,-1
 629.1 -123 l 1,22,-1
 748.8 -123 l 1,23,24
 748.8 -217 748.8 -217 786.15 -261 c 128,-1,25
 823.5 -305 823.5 -305 891.9 -305 c 0,26,27
 979.2 -305 979.2 -305 1013.85 -230.5 c 128,-1,28
 1048.5 -156 1048.5 -156 1048.5 49 c 2,29,-1
 1048.5 927 l 2,30,31
 1048.5 1176 1048.5 1176 1003.95 1273 c 128,-1,32
 959.4 1370 959.4 1370 849.6 1370 c 0,33,34
 713.7 1370 713.7 1370 647.1 1243 c 0,35,36
 582.3 1121 582.3 1121 582.3 841 c 2,37,-1
 582.3 121 l 1,38,-1
 754.2 121 l 1,39,-1
 754.2 0 l 1,40,-1
 63 0 l 1,0,-1
EndSplineSet
Substitution2: "'locl' Localized Forms in Latin - Sami" Eng.alt
EndChar
StartChar: eng
Encoding: 331 331 331
Width: 1340
Flags: W
AnchorPoint: "above" 597.6 1092 basechar 0
AnchorPoint: "below" 679.5 -430 basechar 0
Fore
63 0 m 1,0,-1
 63 121 l 1,1,-1
 198.9 121 l 1,2,-1
 198.9 942 l 1,3,-1
 63 942 l 1,4,-1
 63 1063 l 1,5,-1
 517.5 1063 l 1,6,-1
 517.5 913 l 1,7,8
 575.1 1008 575.1 1008 648.9 1050 c 128,-1,9
 722.7 1092 722.7 1092 835.2 1092 c 0,10,11
 996.3 1092 996.3 1092 1078.65 986.5 c 128,-1,12
 1161 881 1161 881 1161 676 c 2,13,-1
 1161 -125 l 2,14,15
 1161 -288 1161 -288 1057.05 -371.5 c 128,-1,16
 953.1 -455 953.1 -455 750.6 -455 c 0,17,18
 696.6 -455 696.6 -455 635.4 -445 c 128,-1,19
 574.2 -435 574.2 -435 508.5 -416 c 1,20,-1
 508.5 -191 l 1,21,-1
 610.2 -191 l 1,22,23
 612 -271 612 -271 638.55 -306.5 c 128,-1,24
 665.1 -342 665.1 -342 724.5 -342 c 0,25,26
 790.2 -342 790.2 -342 816.3 -295 c 128,-1,27
 842.4 -248 842.4 -248 842.4 -125 c 2,28,-1
 842.4 686 l 2,29,30
 842.4 821 842.4 821 811.35 873.5 c 128,-1,31
 780.3 926 780.3 926 703.8 926 c 0,32,33
 607.5 926 607.5 926 562.5 847.5 c 128,-1,34
 517.5 769 517.5 769 517.5 598 c 2,35,-1
 517.5 121 l 1,36,-1
 634.5 121 l 1,37,-1
 634.5 0 l 1,38,-1
 63 0 l 1,0,-1
EndSplineSet
EndChar
StartChar: OE
Encoding: 338 338 338
Width: 2175
Flags: W
AnchorPoint: "above" 1218.6 1465 basechar 0
AnchorPoint: "below" 1218.6 0 basechar 0
Fore
1048.5 121 m 1,0,-1
 1048.5 1372 l 1,1,-1
 934.2 1372 l 2,2,3
 696.6 1372 696.6 1372 576 1215 c 128,-1,4
 455.4 1058 455.4 1058 455.4 748 c 0,5,6
 455.4 434 455.4 434 575.1 277.5 c 128,-1,7
 694.8 121 694.8 121 934.2 121 c 2,8,-1
 1048.5 121 l 1,0,-1
2080.8 0 m 1,9,-1
 891.9 0 l 2,10,11
 705.6 0 705.6 0 583.65 26 c 128,-1,12
 461.7 52 461.7 52 370.8 109 c 1,13,14
 229.5 195 229.5 195 153.45 361 c 128,-1,15
 77.4004 527 77.4004 527 77.4004 748 c 0,16,17
 77.4004 968 77.4004 968 153.45 1132.5 c 128,-1,18
 229.5 1297 229.5 1297 370.8 1384 c 1,19,20
 460.8 1442 460.8 1442 581.4 1467.5 c 128,-1,21
 702 1493 702 1493 891.9 1493 c 2,22,-1
 2064.6 1493 l 1,23,-1
 2064.6 1141 l 1,24,-1
 1941.3 1141 l 1,25,-1
 1941.3 1356 l 1,26,-1
 1396.8 1356 l 1,27,-1
 1396.8 877 l 1,28,-1
 1727.1 877 l 1,29,-1
 1727.1 1067 l 1,30,-1
 1850.4 1067 l 1,31,-1
 1850.4 551 l 1,32,-1
 1727.1 551 l 1,33,-1
 1727.1 741 l 1,34,-1
 1396.8 741 l 1,35,-1
 1396.8 137 l 1,36,-1
 1957.5 137 l 1,37,-1
 1957.5 352 l 1,38,-1
 2080.8 352 l 1,39,-1
 2080.8 0 l 1,9,-1
EndSplineSet
EndChar
StartChar: oe
Encoding: 339 339 339
Width: 1894
Flags: W
AnchorPoint: "below" 976.5 0 basechar 0
AnchorPoint: "above" 976.5 1092 basechar 0
Fore
615.6 84 m 0,0,1
 716.4 84 716.4 84 757.35 180 c 128,-1,2
 798.3 276 798.3 276 798.3 532 c 0,3,4
 798.3 788 798.3 788 757.8 883.5 c 128,-1,5
 717.3 979 717.3 979 615.6 979 c 0,6,7
 513.9 979 513.9 979 472.5 882.5 c 128,-1,8
 431.1 786 431.1 786 431.1 532 c 0,9,10
 431.1 278 431.1 278 472.5 181 c 128,-1,11
 513.9 84 513.9 84 615.6 84 c 0,0,1
1461.6 600 m 1,12,13
 1461.6 810 1461.6 810 1426.05 894.5 c 128,-1,14
 1390.5 979 1390.5 979 1306.8 979 c 0,15,16
 1225.8 979 1225.8 979 1190.7 897 c 128,-1,17
 1155.6 815 1155.6 815 1155.6 618 c 2,18,-1
 1155.6 600 l 1,19,-1
 1461.6 600 l 1,12,13
976.5 936 m 1,20,21
 1044 1016 1044 1016 1127.7 1054 c 128,-1,22
 1211.4 1092 1211.4 1092 1317.6 1092 c 0,23,24
 1551.6 1092 1551.6 1092 1678.5 935 c 128,-1,25
 1805.4 778 1805.4 778 1813.5 482 c 1,26,-1
 1155.6 481 l 1,27,-1
 1155.6 473 l 2,28,29
 1155.6 266 1155.6 266 1210.5 175 c 128,-1,30
 1265.4 84 1265.4 84 1389.6 84 c 0,31,32
 1493.1 84 1493.1 84 1557 145 c 128,-1,33
 1620.9 206 1620.9 206 1638.9 322 c 1,34,-1
 1788.3 322 l 1,35,36
 1753.2 148 1753.2 148 1639.8 59.5 c 128,-1,37
 1526.4 -29 1526.4 -29 1338.3 -29 c 0,38,39
 1219.5 -29 1219.5 -29 1130.4 9.5 c 128,-1,40
 1041.3 48 1041.3 48 976.5 127 c 1,41,42
 913.5 50 913.5 50 818.1 10.5 c 128,-1,43
 722.7 -29 722.7 -29 601.2 -29 c 0,44,45
 358.2 -29 358.2 -29 216.9 122 c 128,-1,46
 75.5996 273 75.5996 273 75.5996 532 c 0,47,48
 75.5996 795 75.5996 795 219.15 943.5 c 128,-1,49
 362.7 1092 362.7 1092 615.6 1092 c 0,50,51
 729.9 1092 729.9 1092 819.45 1053.5 c 128,-1,52
 909 1015 909 1015 976.5 936 c 1,20,21
EndSplineSet
EndChar
StartChar: Tbar
Encoding: 358 358 358
Width: 1371
Flags: W
Fore
333.9 0 m 1,0,-1
 333.9 121 l 1,1,-1
 512.1 121 l 1,2,-1
 512.1 659 l 1,3,-1
 289.8 659 l 1,4,-1
 289.8 851 l 1,5,-1
 512.1 851 l 1,6,-1
 512.1 1356 l 1,7,-1
 144 1356 l 1,8,-1
 144 1120 l 1,9,-1
 20.7002 1120 l 1,10,-1
 20.7002 1493 l 1,11,-1
 1352.7 1493 l 1,12,-1
 1352.7 1120 l 1,13,-1
 1231.2 1120 l 1,14,-1
 1231.2 1356 l 1,15,-1
 860.4 1356 l 1,16,-1
 860.4 851 l 1,17,-1
 1082.7 851 l 1,18,-1
 1082.7 659 l 1,19,-1
 860.4 659 l 1,20,-1
 860.4 121 l 1,21,-1
 1039.5 121 l 1,22,-1
 1039.5 0 l 1,23,-1
 333.9 0 l 1,0,-1
EndSplineSet
EndChar
StartChar: tbar
Encoding: 359 359 359
Width: 851
Flags: W
Fore
182.7 942 m 1,0,-1
 44.0996 942 l 1,1,-1
 44.0996 1063 l 1,2,-1
 182.7 1063 l 1,3,-1
 182.7 1393 l 1,4,-1
 501.3 1393 l 1,5,-1
 501.3 1063 l 1,6,-1
 766.8 1063 l 1,7,-1
 766.8 942 l 1,8,-1
 501.3 942 l 1,9,-1
 501.3 665 l 1,10,-1
 666.9 665 l 1,11,-1
 666.9 473 l 1,12,-1
 501.3 473 l 1,13,-1
 501.3 291 l 2,14,15
 501.3 152 501.3 152 521.1 118 c 128,-1,16
 540.9 84 540.9 84 593.1 84 c 0,17,18
 650.7 84 650.7 84 678.6 127 c 128,-1,19
 706.5 170 706.5 170 708.3 260 c 1,20,-1
 842.4 260 l 1,21,22
 834.3 100 834.3 100 763.2 36 c 0,23,24
 693 -29 693 -29 520.2 -29 c 0,25,26
 323.1 -29 323.1 -29 252.9 40 c 0,27,28
 182.7 108 182.7 108 182.7 291 c 2,29,-1
 182.7 473 l 1,30,-1
 49.5 473 l 1,31,-1
 49.5 665 l 1,32,-1
 182.7 665 l 1,33,-1
 182.7 942 l 1,0,-1
EndSplineSet
EndChar
StartChar: longs
Encoding: 383 383 383
Width: 792
Flags: W
Fore
517.5 121 m 1,0,-1
 702 121 l 1,1,-1
 702 0 l 1,2,-1
 63 0 l 1,3,-1
 63 121 l 1,4,-1
 198.9 121 l 1,5,-1
 198.9 942 l 1,6,-1
 56.7002 942 l 1,7,-1
 56.7002 1063 l 1,8,-1
 198.9 1063 l 1,9,-1
 198.9 1196 l 2,10,11
 198.9 1373 198.9 1373 300.6 1464.5 c 128,-1,12
 402.3 1556 402.3 1556 599.4 1556 c 0,13,14
 675.9 1556 675.9 1556 748.8 1546.5 c 128,-1,15
 821.7 1537 821.7 1537 891.9 1518 c 1,16,-1
 891.9 1290 l 1,17,-1
 791.1 1290 l 1,18,19
 783.9 1368 783.9 1368 750.15 1406 c 128,-1,20
 716.4 1444 716.4 1444 654.3 1444 c 0,21,22
 582.3 1444 582.3 1444 549.9 1386.5 c 0,23,24
 517.5 1324.33 517.5 1324.33 517.5 1200 c 2,25,-1
 517.5 121 l 1,0,-1
EndSplineSet
EndChar
StartChar: uni0180
Encoding: 384 384 384
Width: 1288
Flags: W
AnchorPoint: "below" 605.7 0 basechar 0
AnchorPoint: "above" 291.6 1465 basechar 0
Fore
179.1 121 m 1,0,-1
 179.1 1196 l 1,1,-1
 36.9004 1196 l 1,2,-1
 36.9004 1333 l 1,3,-1
 179.1 1333 l 1,4,-1
 179.1 1436 l 1,5,-1
 42.2998 1436 l 1,6,-1
 42.2998 1556 l 1,7,-1
 497.7 1556 l 1,8,-1
 497.7 1333 l 1,9,-1
 820.8 1333 l 1,10,-1
 820.8 1196 l 1,11,-1
 497.7 1196 l 9,12,-1
 497.7 928 l 17,13,14
 538.2 1011 538.2 1011 606.6 1051.5 c 128,-1,15
 675 1092 675 1092 775.8 1092 c 0,16,17
 980.1 1092 980.1 1092 1097.55 942.5 c 128,-1,18
 1215 793 1215 793 1215 532 c 0,19,20
 1215 271 1215 271 1097.55 121 c 128,-1,21
 980.1 -29 980.1 -29 775.8 -29 c 0,22,23
 675 -29 675 -29 606.6 11.5 c 128,-1,24
 538.2 52 538.2 52 497.7 135 c 1,25,-1
 497.7 0 l 1,26,-1
 42.2998 0 l 1,27,-1
 42.2998 121 l 1,28,-1
 179.1 121 l 1,0,-1
497.7 479 m 2,29,30
 497.7 293 497.7 293 540.45 210 c 128,-1,31
 583.2 127 583.2 127 678.6 127 c 0,32,33
 776.7 127 776.7 127 816.75 215 c 128,-1,34
 856.8 303 856.8 303 856.8 532 c 0,35,36
 856.8 761 856.8 761 816.75 848.5 c 128,-1,37
 776.7 936 776.7 936 678.6 936 c 0,38,39
 583.2 936 583.2 936 540.45 853 c 128,-1,40
 497.7 770 497.7 770 497.7 584 c 2,41,-1
 497.7 479 l 2,29,30
EndSplineSet
EndChar
StartChar: uni0181
Encoding: 385 385 385
Width: 1557
Flags: W
Fore
258.3 1493 m 9,0,-1
 882.9 1493 l 18,1,2
 1132.2 1493 1132.2 1493 1251.9 1401 c 0,3,4
 1375.2 1306 1375.2 1306 1375.2 1124 c 0,5,6
 1375.2 991 1375.2 991 1290.6 913 c 0,7,8
 1205.1 835 1205.1 835 1037.7 815 c 1,9,10
 1240.2 815 1240.2 815 1348.2 695 c 0,11,12
 1456.2 596 1456.2 596 1456.2 432 c 0,13,14
 1456.2 210 1456.2 210 1305 105 c 0,15,16
 1154.7 0 1154.7 0 833.4 0 c 2,17,-1
 86.4004 0 l 1,18,-1
 86.4004 121 l 1,19,-1
 258.3 121 l 1,20,-1
 258.3 1372 l 0,21,22
 81.9004 1372 81.9004 1372 19.7998 1283 c 0,23,24
 -43.2002 1192 -43.2002 1192 -43.2002 1006 c 1,25,-1
 -221.4 1006 l 1,26,-1
 -221.4 1364 l 1,27,28
 -146.7 1433 -146.7 1433 66.5996 1476 c 0,29,30
 152.1 1493 152.1 1493 258.3 1493 c 9,0,-1
604.8 870 m 1,31,-1
 722.7 870 l 2,32,33
 877.5 870 877.5 870 952.2 932 c 0,34,35
 1026.9 995 1026.9 995 1026.9 1124 c 0,36,37
 1026.9 1254 1026.9 1254 954 1313 c 0,38,39
 882 1372 882 1372 722.7 1372 c 2,40,-1
 604.8 1372 l 1,41,-1
 604.8 870 l 1,31,-1
604.8 121 m 1,42,-1
 733.5 121 l 2,43,44
 905.4 121 905.4 121 988.2 197 c 128,-1,45
 1071 273 1071 273 1071 432 c 0,46,47
 1071 592 1071 592 987.3 671 c 128,-1,48
 903.6 750 903.6 750 733.5 750 c 2,49,-1
 604.8 750 l 1,50,-1
 604.8 121 l 1,42,-1
EndSplineSet
EndChar
StartChar: uni0183
Encoding: 387 387 387
Width: 1288
Flags: W
Fore
497.7 479 m 2,0,1
 497.7 293 497.7 293 540 210 c 0,2,3
 583.2 127 583.2 127 678.6 127 c 0,4,5
 776.7 127 776.7 127 817.2 215 c 0,6,7
 856.8 303 856.8 303 856.8 532 c 128,-1,8
 856.8 761 856.8 761 817.2 848 c 0,9,10
 776.7 936 776.7 936 678.6 936 c 0,11,12
 583.2 936 583.2 936 540 853 c 0,13,14
 497.7 770 497.7 770 497.7 584 c 2,15,-1
 497.7 479 l 2,0,1
1036.8 1556 m 1,16,-1
 1036.8 1268 l 1,17,-1
 927.9 1268 l 1,18,-1
 927.9 1436 l 1,19,-1
 497.7 1436 l 1,20,-1
 497.7 928 l 1,21,22
 538.2 1011 538.2 1011 606.6 1052 c 0,23,24
 675 1092 675 1092 775.8 1092 c 0,25,26
 980.1 1092 980.1 1092 1098 942 c 0,27,28
 1215 793 1215 793 1215 532 c 128,-1,29
 1215 271 1215 271 1098 121 c 0,30,31
 980.1 -29 980.1 -29 775.8 -29 c 0,32,33
 675 -29 675 -29 606.6 12 c 0,34,35
 538.2 52 538.2 52 497.7 135 c 1,36,-1
 497.7 0 l 1,37,-1
 42.2998 0 l 1,38,-1
 42.2998 121 l 1,39,-1
 179.1 121 l 1,40,-1
 179.1 1436 l 1,41,-1
 42.2998 1436 l 1,42,-1
 42.2998 1556 l 1,43,-1
 1036.8 1556 l 1,16,-1
EndSplineSet
EndChar
StartChar: uni0184
Encoding: 388 388 388
Width: 1575
Flags: W
Fore
604.8 870 m 1,0,-1
 723.6 870 l 2,1,2
 907.497 870 907.497 870 1033.91 852.375 c 0,3,4
 1045.93 850.698 1045.93 850.698 1054.8 849 c 0,5,6
 1232.35 814.987 1232.35 814.987 1362.15 697.868 c 0,7,8
 1363.72 696.44 1363.72 696.44 1365.3 695 c 0,9,10
 1473.3 596 1473.3 596 1473.3 432 c 0,11,12
 1473.3 209.997 1473.3 209.997 1322.55 105 c 128,-1,13
 1171.79 0 1171.79 0 834.3 0 c 2,14,-1
 86.4004 0 l 1,15,-1
 86.4004 121 l 1,16,-1
 258.3 121 l 1,17,-1
 258.3 834 l 1,18,-1
 0 834 l 1,19,-1
 0 955 l 1,20,-1
 604.8 1493 l 1,21,-1
 604.8 870 l 1,0,-1
604.8 121 m 1,22,-1
 734.4 121 l 2,23,24
 915.957 121 915.957 121 1000.22 192.523 c 0,25,26
 1002.83 194.733 1002.83 194.733 1005.3 197 c 0,27,28
 1088.1 273.005 1088.1 273.005 1088.1 432 c 0,29,30
 1088.1 592 1088.1 592 1004.4 671 c 0,31,32
 924.642 746.282 924.642 746.282 749.068 749.852 c 0,33,34
 741.773 750 741.773 750 734.4 750 c 2,35,-1
 604.8 750 l 1,36,-1
 604.8 121 l 1,22,-1
EndSplineSet
EndChar
StartChar: uni0185
Encoding: 389 389 389
Width: 1288
Flags: W
Fore
497.7 479 m 2,0,1
 497.7 293 497.7 293 540.45 210 c 128,-1,2
 583.2 127 583.2 127 678.6 127 c 0,3,4
 776.7 127 776.7 127 816.75 215 c 128,-1,5
 856.8 303 856.8 303 856.8 532 c 128,-1,6
 856.8 761 856.8 761 816.75 848.5 c 128,-1,7
 776.7 936 776.7 936 678.6 936 c 0,8,9
 583.2 936 583.2 936 540.45 853 c 128,-1,10
 497.7 770 497.7 770 497.7 584 c 2,11,-1
 497.7 479 l 2,0,1
0 1008 m 1,12,-1
 0 1128 l 1,13,-1
 497.7 1557 l 1,14,-1
 497.7 928 l 1,15,16
 538.2 1011 538.2 1011 606.6 1051.5 c 128,-1,17
 675 1092 675 1092 775.8 1092 c 0,18,19
 980.1 1092 980.1 1092 1097.55 942.5 c 128,-1,20
 1215 793 1215 793 1215 532 c 128,-1,21
 1215 271 1215 271 1097.55 121 c 128,-1,22
 980.1 -29 980.1 -29 775.8 -29 c 0,23,24
 675 -29 675 -29 606.6 11.5 c 128,-1,25
 538.2 52 538.2 52 497.7 135 c 1,26,-1
 497.7 0 l 1,27,-1
 42.2998 0 l 1,28,-1
 42.2998 121 l 1,29,-1
 179.1 121 l 1,30,-1
 178.2 1008 l 1,31,-1
 0 1008 l 1,12,-1
EndSplineSet
EndChar
StartChar: uni0186
Encoding: 390 390 390
Width: 1467
Flags: W
AnchorPoint: "above" 659.7 1465 basechar 0
Fore
77.4004 1065 m 1,0,1
 130.5 1296 130.5 1296 268.2 1408 c 128,-1,2
 405.9 1520 405.9 1520 638.1 1520 c 0,3,4
 978.3 1520 978.3 1520 1175.85 1311.5 c 128,-1,5
 1373.4 1103 1373.4 1103 1373.4 746 c 0,6,7
 1373.4 388 1373.4 388 1175.85 179.5 c 128,-1,8
 978.3 -29 978.3 -29 638.1 -29 c 0,9,10
 518.4 -29 518.4 -29 388.8 3 c 128,-1,11
 259.2 35 259.2 35 114.3 100 c 1,12,-1
 114.3 467 l 1,13,-1
 228.6 467 l 1,14,15
 263.7 279 263.7 279 356.4 185.5 c 128,-1,16
 449.1 92 449.1 92 601.2 92 c 0,17,18
 797.4 92 797.4 92 892.8 252.5 c 128,-1,19
 988.2 413 988.2 413 988.2 746 c 0,20,21
 988.2 1079 988.2 1079 892.8 1239 c 128,-1,22
 797.4 1399 797.4 1399 599.4 1399 c 0,23,24
 465.3 1399 465.3 1399 380.25 1316 c 128,-1,25
 295.2 1233 295.2 1233 256.5 1065 c 1,26,-1
 77.4004 1065 l 1,0,1
EndSplineSet
EndChar
StartChar: uni0187
Encoding: 391 391 391
Width: 1467
Flags: W
AnchorPoint: "above" 800.1 1465 basechar 0
Fore
1373.4 426 m 1,0,1
 1320.3 195 1320.3 195 1182.6 83 c 0,2,3
 1044.9 -29 1044.9 -29 812.7 -29 c 0,4,5
 472.5 -29 472.5 -29 275.4 180 c 0,6,7
 77.4004 388 77.4004 388 77.4004 745 c 0,8,9
 77.4004 1103 77.4004 1103 275.4 1312 c 0,10,11
 472.5 1520 472.5 1520 812.7 1520 c 0,12,13
 932.4 1520 932.4 1520 1062 1488 c 0,14,15
 1114.2 1475 1114.2 1475 1169.1 1457 c 1,16,17
 1184.4 1583 1184.4 1583 1260 1652 c 0,18,19
 1336.5 1721 1336.5 1721 1428.3 1721 c 0,20,21
 1482.3 1721 1482.3 1721 1543.5 1711 c 0,22,23
 1604.7 1701 1604.7 1701 1670.4 1682 c 1,24,-1
 1670.4 1457 l 1,25,-1
 1568.7 1457 l 1,26,27
 1568.7 1537 1568.7 1537 1540.8 1572 c 0,28,29
 1513.8 1608 1513.8 1608 1454.4 1608 c 0,30,31
 1388.7 1608 1388.7 1608 1362.6 1561 c 0,32,33
 1336.5 1514 1336.5 1514 1336.5 1391 c 2,34,-1
 1336.5 1024 l 1,35,-1
 1222.2 1024 l 1,36,37
 1187.1 1212 1187.1 1212 1094.4 1306 c 0,38,39
 1001.7 1399 1001.7 1399 849.6 1399 c 0,40,41
 653.4 1399 653.4 1399 558 1238 c 0,42,43
 462.6 1078 462.6 1078 462.6 745 c 0,44,45
 462.6 412 462.6 412 558 252 c 0,46,47
 653.4 92 653.4 92 851.4 92 c 0,48,49
 985.5 92 985.5 92 1071 175 c 0,50,51
 1155.6 258 1155.6 258 1194.3 426 c 1,52,-1
 1373.4 426 l 1,0,1
EndSplineSet
EndChar
StartChar: uni0188
Encoding: 392 392 392
Width: 1122
Flags: W
AnchorPoint: "above" 597.6 1092 basechar 0
Fore
1039.5 332 m 1,0,1
 1005.3 150 1005.3 150 900 60 c 0,2,3
 793.8 -29 793.8 -29 612 -29 c 0,4,5
 356.4 -29 356.4 -29 216 118 c 0,6,7
 75.5996 265 75.5996 265 75.5996 532 c 0,8,9
 75.5996 796 75.5996 796 214.2 944 c 0,10,11
 352.8 1092 352.8 1092 599.4 1092 c 0,12,13
 698.4 1092 698.4 1092 799.2 1071 c 1,14,-1
 799.2 1123 l 2,15,16
 799.2 1286 799.2 1286 903.6 1370 c 0,17,18
 1007.1 1453 1007.1 1453 1099.8 1453 c 0,19,20
 1153.8 1453 1153.8 1453 1215 1443 c 0,21,22
 1276.2 1433 1276.2 1433 1341.9 1414 c 1,23,-1
 1341.9 1189 l 1,24,-1
 1240.2 1189 l 1,25,26
 1240.2 1269 1240.2 1269 1211.4 1304 c 0,27,28
 1185.3 1340 1185.3 1340 1125.9 1340 c 0,29,30
 1060.2 1340 1060.2 1340 1034.1 1293 c 0,31,32
 1008 1246 1008 1246 1008 1123 c 2,33,-1
 1008 1008 l 1,34,-1
 1008 713 l 1,35,-1
 907.2 713 l 1,36,37
 892.8 848 892.8 848 836.1 914 c 0,38,39
 779.4 979 779.4 979 676.8 979 c 0,40,41
 543.6 979 543.6 979 487.8 879 c 0,42,43
 431.1 779 431.1 779 431.1 532 c 0,44,45
 431.1 291 431.1 291 486 188 c 0,46,47
 540.9 84 540.9 84 665.1 84 c 0,48,49
 761.4 84 761.4 84 819 148 c 0,50,51
 877.5 212 877.5 212 890.1 332 c 1,52,-1
 1039.5 332 l 1,0,1
EndSplineSet
EndChar
StartChar: uni018A
Encoding: 394 394 394
Width: 1598
Flags: W
AnchorPoint: "above" 778.5 1465 basechar 0
Fore
258.3 1493 m 2,0,-1
 775.8 1493 l 2,1,2
 1137.6 1493 1137.6 1493 1329.3 1301 c 128,-1,3
 1521 1109 1521 1109 1521 748 c 0,4,5
 1521 385 1521 385 1328.4 192 c 0,6,7
 1136.7 0 1136.7 0 775.8 0 c 2,8,-1
 86.4004 0 l 1,9,-1
 86.4004 121 l 1,10,-1
 258.3 121 l 1,11,-1
 258.3 1372 l 17,12,13
 81.9004 1372 81.9004 1372 19.7998 1283 c 0,14,15
 -43.2002 1192 -43.2002 1192 -43.2002 1006 c 1,16,-1
 -221.4 1006 l 1,17,-1
 -221.4 1364 l 1,18,19
 -146.7 1433 -146.7 1433 66.5996 1476 c 0,20,21
 152.1 1493 152.1 1493 258.3 1493 c 2,0,-1
604.8 121 m 1,22,-1
 729.9 121 l 2,23,24
 940.5 121 940.5 121 1038.6 271 c 0,25,26
 1135.8 421 1135.8 421 1135.8 748 c 0,27,28
 1135.8 1073 1135.8 1073 1038.6 1222 c 0,29,30
 941.4 1372 941.4 1372 729.9 1372 c 2,31,-1
 604.8 1372 l 1,32,-1
 604.8 121 l 1,22,-1
EndSplineSet
EndChar
StartChar: uni018B
Encoding: 395 395 395
Width: 1575
Flags: W
Fore
954.9 1356 m 1,0,-1
 289.8 1356 l 1,1,-1
 289.8 1120 l 1,2,-1
 168.3 1120 l 1,3,-1
 168.3 1493 l 1,4,-1
 1473.3 1493 l 1,5,-1
 1473.3 1372 l 1,6,-1
 1301.4 1372 l 1,7,-1
 1301.4 121 l 1,8,-1
 1473.3 121 l 1,9,-1
 1473.3 0 l 1,10,-1
 725.4 0 l 2,11,12
 387.9 0 387.9 0 237.6 105 c 0,13,14
 86.4004 210 86.4004 210 86.4004 432 c 0,15,16
 86.4004 596 86.4004 596 194.4 695 c 0,17,18
 196.2 696 196.2 696 198 698 c 0,19,20
 327.6 815 327.6 815 504.9 849 c 0,21,22
 513.9 851 513.9 851 525.6 852 c 0,23,24
 652.5 870 652.5 870 836.1 870 c 2,25,-1
 954.9 870 l 1,26,-1
 954.9 1356 l 1,0,-1
954.9 121 m 1,27,-1
 954.9 750 l 1,28,-1
 825.3 750 l 2,29,-1
 810.9 750 l 0,30,31
 635.4 750 635.4 750 555.3 671 c 0,32,33
 471.6 592 471.6 592 471.6 432 c 0,34,35
 471.6 273 471.6 273 554.4 197 c 0,36,-1
 559.8 193 l 0,37,38
 643.5 121 643.5 121 825.3 121 c 2,39,-1
 954.9 121 l 1,27,-1
EndSplineSet
EndChar
StartChar: uni018C
Encoding: 396 396 396
Width: 1288
Flags: W
Fore
759.6 479 m 2,0,-1
 759.6 584 l 2,1,2
 759.6 770 759.6 770 716.4 853 c 0,3,4
 674.1 936 674.1 936 578.7 936 c 0,5,6
 480.6 936 480.6 936 441 848 c 0,7,8
 400.5 761 400.5 761 400.5 532 c 128,-1,9
 400.5 303 400.5 303 441 215 c 0,10,11
 480.6 127 480.6 127 578.7 127 c 0,12,13
 674.1 127 674.1 127 716.4 210 c 0,14,15
 759.6 293 759.6 293 759.6 479 c 2,0,-1
1214.1 1436 m 1,16,-1
 1078.2 1436 l 1,17,-1
 1078.2 121 l 1,18,-1
 1215 121 l 1,19,-1
 1215 0 l 1,20,-1
 759.6 0 l 1,21,-1
 759.6 135 l 1,22,23
 719.1 52 719.1 52 650.7 12 c 0,24,25
 582.3 -29 582.3 -29 481.5 -29 c 0,26,27
 277.2 -29 277.2 -29 160.2 121 c 0,28,29
 42.2998 271 42.2998 271 42.2998 532 c 128,-1,30
 42.2998 793 42.2998 793 160.2 942 c 0,31,32
 277.2 1092 277.2 1092 481.5 1092 c 0,33,34
 582.3 1092 582.3 1092 650.7 1052 c 0,35,36
 719.1 1011 719.1 1011 759.6 928 c 1,37,-1
 759.6 1436 l 1,38,-1
 329.4 1436 l 1,39,-1
 329.4 1268 l 1,40,-1
 220.5 1268 l 1,41,-1
 220.5 1556 l 1,42,-1
 1214.1 1556 l 1,43,-1
 1214.1 1436 l 1,16,-1
EndSplineSet
EndChar
StartChar: uni018D
Encoding: 397 397 397
Width: 1229
Flags: W
Fore
910.8 41 m 8,0,1
 1057.5 -53 1057.5 -53 1057.5 -197 c 0,2,3
 1057.5 -366 1057.5 -366 937.8 -435 c 0,4,-1
 927 -441 l 0,5,6
 810.9 -504 810.9 -504 615.6 -504 c 0,7,8
 525.6 -504 525.6 -504 414.9 -491 c 0,9,10
 306.9 -478 306.9 -478 202.5 -454 c 1,11,-1
 202.5 -241 l 1,12,-1
 303.3 -241 l 1,13,14
 307.8 -277 307.8 -277 322.2 -298 c 0,15,16
 331.2 -312 331.2 -312 371.7 -345 c 1,17,18
 431.1 -391 431.1 -391 527.4 -391 c 0,19,20
 635.4 -391 635.4 -391 693 -343 c 1,21,-1
 722.7 -316 l 1,22,23
 757.8 -281 757.8 -281 750.6 -193 c 0,24,25
 750.6 -29 750.6 -29 615.6 -29 c 1,26,27
 360.9 -29 360.9 -29 218.7 120 c 0,28,29
 75.5996 269 75.5996 269 75.5996 531 c 128,-1,30
 75.5996 793 75.5996 793 219.6 942 c 0,31,32
 362.7 1092 362.7 1092 615.6 1092 c 128,-1,33
 868.5 1092 868.5 1092 1011.6 942 c 0,34,35
 1155.6 793 1155.6 793 1155.6 531 c 0,36,37
 1155.6 268 1155.6 268 1011.6 120 c 0,38,39
 926.1 31 926.1 31 910.8 41 c 8,0,1
615.6 979 m 0,40,41
 514.8 979 514.8 979 473.4 883 c 0,42,43
 432.9 787 432.9 787 432.9 531 c 128,-1,44
 432.9 275 432.9 275 473.4 180 c 0,45,46
 513.9 84 513.9 84 615.6 84 c 128,-1,47
 717.3 84 717.3 84 758.7 180 c 0,48,49
 800.1 277 800.1 277 800.1 531 c 128,-1,50
 800.1 785 800.1 785 758.7 882 c 128,-1,51
 717.3 979 717.3 979 615.6 979 c 0,40,41
EndSplineSet
EndChar
StartChar: uni018E
Encoding: 398 398 398
Width: 1404
Flags: W
AnchorPoint: "above" 663.3 1465 basechar 0
Fore
1310.4 0 m 1,0,-1
 86.4004 0 l 1,1,-1
 86.4004 352 l 1,2,-1
 209.7 352 l 1,3,-1
 209.7 137 l 1,4,-1
 792 137 l 1,5,-1
 792 741 l 1,6,-1
 440.1 741 l 1,7,-1
 440.1 551 l 1,8,-1
 316.8 551 l 1,9,-1
 316.8 1067 l 1,10,-1
 440.1 1067 l 1,11,-1
 440.1 877 l 1,12,-1
 792 877 l 1,13,-1
 792 1356 l 1,14,-1
 226.8 1356 l 1,15,-1
 226.8 1141 l 1,16,-1
 102.6 1141 l 1,17,-1
 102.6 1493 l 1,18,-1
 1310.4 1493 l 1,19,-1
 1310.4 1372 l 1,20,-1
 1138.5 1372 l 1,21,-1
 1138.5 121 l 1,22,-1
 1310.4 121 l 1,23,-1
 1310.4 0 l 1,0,-1
EndSplineSet
EndChar
StartChar: uni018F
Encoding: 399 399 399
Width: 1605
Flags: W
AnchorPoint: "above" 803.7 1465 basechar 0
Fore
1139.4 830 m 1,0,1
 1139.4 1099 1139.4 1099 1045.8 1238 c 0,2,3
 950.4 1398 950.4 1398 752.4 1398 c 0,4,5
 618.3 1398 618.3 1398 532.8 1315 c 0,6,7
 448.2 1232 448.2 1232 409.5 1063 c 1,8,-1
 230.4 1063 l 1,9,10
 283.5 1294 283.5 1294 421.2 1407 c 0,11,12
 558.9 1519 558.9 1519 791.1 1519 c 0,13,14
 1131.3 1519 1131.3 1519 1328.4 1310 c 0,15,16
 1526.4 1102 1526.4 1102 1526.4 745 c 0,17,18
 1526.4 383 1526.4 383 1333.8 177 c 0,19,20
 1140.3 -29 1140.3 -29 801.9 -29 c 0,21,22
 462.6 -29 462.6 -29 270 177 c 0,23,24
 77.4004 383 77.4004 383 77.4004 745 c 2,25,-1
 77.4004 830 l 1,26,-1
 1139.4 830 l 1,0,1
1140.3 669 m 1,27,-1
 463.5 669 l 1,28,29
 463.5 388 463.5 388 547.2 254 c 0,30,31
 637.2 92 637.2 92 801.9 92 c 0,32,33
 973.8 92 973.8 92 1057.5 253 c 0,34,35
 1140.3 395 1140.3 395 1140.3 669 c 1,27,-1
EndSplineSet
EndChar
StartChar: uni0190
Encoding: 400 400 400
Width: 1329
Flags: W
AnchorPoint: "below" 701.1 0 basechar 0
AnchorPoint: "above" 701.1 1465 basechar 0
Fore
1173.6 1450 m 1,0,-1
 1173.6 1151 l 1,1,-1
 1064.7 1151 l 1,2,3
 1052.1 1274 1052.1 1274 990 1338.5 c 128,-1,4
 927.9 1403 927.9 1403 775.8 1403 c 0,5,6
 623.7 1403 623.7 1403 561.15 1335.5 c 128,-1,7
 498.6 1268 498.6 1268 498.6 1137 c 0,8,9
 498.6 1006 498.6 1006 565.2 938 c 128,-1,10
 631.8 870 631.8 870 872.1 870 c 2,11,-1
 918.9 870 l 1,12,-1
 918.9 750 l 1,13,-1
 859.5 750 l 2,14,15
 608.4 750 608.4 750 530.55 662 c 128,-1,16
 452.7 574 452.7 574 452.7 416 c 0,17,18
 452.7 257 452.7 257 521.55 172.5 c 128,-1,19
 590.4 88 590.4 88 763.2 88 c 0,20,21
 881.5 88 881.5 88 962.757 157.048 c 128,-1,22
 1044.01 226.095 1044.01 226.095 1050.3 283 c 1,23,-1
 1229.4 283 l 1,24,25
 1187.78 171.7 1187.78 171.7 1060.64 71.3496 c 128,-1,26
 933.479 -29 933.479 -29 720 -29 c 0,27,28
 378 -29 378 -29 232.2 82.5 c 128,-1,29
 86.4004 194 86.4004 194 86.4004 403 c 0,30,31
 86.4004 574 86.4004 574 177.75 681.5 c 128,-1,32
 269.1 789 269.1 789 434.7 815 c 1,33,34
 290.7 844 290.7 844 216 928 c 128,-1,35
 141.3 1012 141.3 1012 141.3 1147 c 0,36,37
 141.3 1327 141.3 1327 271.35 1423.5 c 128,-1,38
 401.4 1520 401.4 1520 712.8 1520 c 0,39,40
 831.6 1520 831.6 1520 943.2 1502.5 c 128,-1,41
 1054.8 1485 1054.8 1485 1173.6 1450 c 1,0,-1
EndSplineSet
EndChar
StartChar: uni0191
Encoding: 401 401 401
Width: 1308
Flags: W
Fore
145.8 -426 m 0,0,1
 -1.7998 -426 -1.7998 -426 -158.4 -358 c 1,2,-1
 -158.4 -123 l 1,3,-1
 -41.4004 -123 l 1,4,5
 -41.4004 -266 -41.4004 -266 48.5996 -296 c 0,6,7
 72 -305 72 -305 101.7 -305 c 0,8,9
 189 -305 189 -305 223.2 -230 c 0,10,11
 259.2 -155 259.2 -155 258.3 49 c 1,12,-1
 258.3 1372 l 1,13,-1
 86.4004 1372 l 1,14,-1
 86.4004 1493 l 1,15,-1
 1284.3 1493 l 1,16,-1
 1284.3 1141 l 1,17,-1
 1161 1141 l 1,18,-1
 1161 1356 l 1,19,-1
 606.6 1356 l 1,20,-1
 606.6 877 l 1,21,-1
 947.7 877 l 1,22,-1
 947.7 1067 l 1,23,-1
 1071 1067 l 1,24,-1
 1071 551 l 1,25,-1
 947.7 551 l 1,26,-1
 947.7 741 l 1,27,-1
 606.6 741 l 1,28,-1
 606.6 41 l 2,29,30
 606.6 -222 606.6 -222 476.1 -332 c 0,31,32
 364.5 -426 364.5 -426 145.8 -426 c 0,0,1
EndSplineSet
EndChar
StartChar: florin
Encoding: 402 402 402
Width: 792
Flags: W
Fore
891.9 1290 m 1,0,-1
 791.1 1290 l 1,1,2
 789.3 1305 789.3 1305 787.5 1318 c 0,3,4
 777.6 1375 777.6 1375 750.6 1406 c 0,5,6
 716.4 1444 716.4 1444 654.3 1444 c 0,7,8
 582.3 1444 582.3 1444 549.9 1386 c 0,9,10
 517.5 1329 517.5 1329 517.5 1200 c 2,11,-1
 517.5 1063 l 1,12,-1
 757.8 1063 l 1,13,-1
 757.8 942 l 1,14,-1
 517.5 942 l 1,15,-1
 517.5 -29 l 2,16,17
 517.5 -206 517.5 -206 415.8 -298 c 0,18,19
 314.1 -389 314.1 -389 117 -389 c 0,20,21
 40.5 -389 40.5 -389 -32.4004 -380 c 0,22,23
 -105.3 -370 -105.3 -370 -175.5 -351 c 1,24,-1
 -175.5 -123 l 1,25,-1
 -74.7002 -123 l 1,26,27
 -72.9004 -138 -72.9004 -138 -71.0996 -151 c 0,28,29
 -61.2002 -208 -61.2002 -208 -34.2002 -239 c 0,30,31
 0 -277 0 -277 62.0996 -277 c 0,32,33
 134.1 -277 134.1 -277 166.5 -220 c 0,34,35
 198.9 -162 198.9 -162 198.9 -33 c 2,36,-1
 198.9 942 l 1,37,-1
 56.7002 942 l 1,38,-1
 56.7002 1063 l 1,39,-1
 198.9 1063 l 1,40,-1
 198.9 1196 l 2,41,42
 198.9 1373 198.9 1373 300.6 1464 c 0,43,44
 402.3 1556 402.3 1556 599.4 1556 c 0,45,46
 675.9 1556 675.9 1556 748.8 1546 c 0,47,48
 821.7 1537 821.7 1537 891.9 1518 c 1,49,-1
 891.9 1290 l 1,0,-1
EndSplineSet
EndChar
StartChar: uni0193
Encoding: 403 403 403
Width: 1574
Flags: W
AnchorPoint: "above" 818.1 1465 basechar 0
Fore
1215 1435 m 1,0,1
 1236.6 1590 1236.6 1590 1305.9 1652 c 0,2,3
 1382.4 1721 1382.4 1721 1474.2 1721 c 0,4,5
 1528.2 1721 1528.2 1721 1589.4 1711 c 128,-1,6
 1650.6 1701 1650.6 1701 1716.3 1682 c 1,7,-1
 1716.3 1457 l 1,8,-1
 1614.6 1457 l 1,9,10
 1614.6 1537 1614.6 1537 1585.8 1572 c 0,11,12
 1559.7 1608 1559.7 1608 1500.3 1608 c 0,13,14
 1434.6 1608 1434.6 1608 1408.5 1561 c 128,-1,15
 1382.4 1514 1382.4 1514 1382.4 1391 c 2,16,-1
 1382.4 1024 l 1,17,-1
 1268.1 1024 l 1,18,19
 1227.6 1222 1227.6 1222 1133.1 1310 c 0,20,21
 1038.6 1399 1038.6 1399 866.7 1399 c 0,22,23
 657.9 1399 657.9 1399 559.8 1242 c 0,24,25
 462.6 1084 462.6 1084 462.6 745 c 0,26,27
 462.6 409 462.6 409 556.2 250 c 0,28,29
 649.8 92 649.8 92 847.8 92 c 0,30,31
 923.4 92 923.4 92 988.2 111 c 128,-1,32
 1053 130 1053 130 1106.1 168 c 1,33,-1
 1106.1 578 l 1,34,-1
 944.1 578 l 1,35,-1
 944.1 698 l 1,36,-1
 1428.3 698 l 1,37,-1
 1428.3 125 l 1,38,39
 1277.1 47 1277.1 47 1126.8 9 c 0,40,41
 975.6 -29 975.6 -29 818.1 -29 c 0,42,43
 472.5 -29 472.5 -29 275.4 178 c 0,44,45
 77.4004 385 77.4004 385 77.4004 745 c 0,46,47
 77.4004 1106 77.4004 1106 275.4 1313 c 0,48,49
 472.5 1520 472.5 1520 818.1 1520 c 0,50,51
 1030.5 1520 1030.5 1520 1101.6 1488 c 0,52,-1
 1215 1435 l 1,0,1
EndSplineSet
EndChar
StartChar: uni0194
Encoding: 404 404 404
Width: 1420
Flags: W
AnchorPoint: "above" 733.5 1465 basechar 0
Fore
606.87 710 m 0,0,-1
 174.6 1386 l 1,1,-1
 9 1386 l 1,2,-1
 9 1493 l 1,3,-1
 621.72 1493 l 1,4,-1
 621.72 1386 l 1,5,-1
 571.5 1386 l 1,6,-1
 812.07 966 l 1,7,-1
 1091.75 1386 l 1,8,-1
 912.555 1386 l 1,9,-1
 912.555 1493 l 1,10,-1
 1418.67 1493 l 1,11,-1
 1418.67 1386 l 1,12,-1
 1244.79 1386 l 1,13,-1
 881.37 855 l 0,14,15
 1389.87 90 1389.87 90 1219.95 -44 c 0,16,17
 1038.37 -188 1038.37 -188 694.17 -188 c 16,18,19
 327.781 -188 327.781 -188 263.609 12 c 0,20,21
 205.355 193 205.355 193 606.87 710 c 0,0,-1
683.37 595 m 1,22,23
 397.709 212.406 397.709 212.406 399.87 80 c 24,24,25
 402.312 -69.7031 402.312 -69.7031 694.17 -67 c 16,26,27
 953.766 -64.5957 953.766 -64.5957 939.87 85 c 16,28,29
 928.979 202.221 928.979 202.221 683.37 595 c 1,22,23
EndSplineSet
EndChar
StartChar: uni0195
Encoding: 405 405 405
Width: 1922
Flags: W
Fore
1161 346 m 18,0,1
 1161 120 1161 120 1297.8 121 c 24,2,3
 1388.7 121 1388.7 121 1445.4 233 c 0,4,5
 1501.2 345 1501.2 345 1501.2 530 c 0,6,7
 1501.2 691 1501.2 691 1463.4 787 c 0,8,9
 1415.7 908 1415.7 908 1388.7 935 c 1,10,-1
 1388.7 979 l 1,11,-1
 1504.8 979 l 1,12,13
 1663.2 915 1663.2 915 1755.9 786 c 0,14,15
 1849.5 656 1849.5 656 1849.5 514 c 0,16,17
 1849.5 406 1849.5 406 1804.5 307 c 0,18,19
 1760.4 208 1760.4 208 1677.6 135 c 0,20,21
 1602.9 68 1602.9 68 1505.7 33 c 0,22,23
 1407.6 -3 1407.6 -3 1297.8 -3 c 8,24,25
 842.4 -3 842.4 -3 842.4 348 c 10,26,-1
 842.4 686 l 18,27,28
 842.4 821 842.4 821 811.8 874 c 0,29,30
 780.3 926 780.3 926 703.8 926 c 0,31,32
 607.5 926 607.5 926 562.5 848 c 0,33,34
 517.5 769 517.5 769 517.5 598 c 2,35,-1
 517.5 121 l 1,36,-1
 634.5 121 l 1,37,-1
 634.5 0 l 1,38,-1
 63 0 l 1,39,-1
 63 121 l 1,40,-1
 198.9 121 l 1,41,-1
 198.9 1436 l 1,42,-1
 56.7002 1436 l 1,43,-1
 56.7002 1556 l 1,44,-1
 517.5 1556 l 1,45,-1
 517.5 913 l 1,46,47
 575.1 1008 575.1 1008 648.9 1050 c 128,-1,48
 722.7 1092 722.7 1092 835.2 1092 c 0,49,50
 996.3 1092 996.3 1092 1078.2 986 c 0,51,52
 1161 881 1161 881 1161 676 c 10,53,-1
 1161 346 l 18,0,1
EndSplineSet
EndChar
StartChar: uni0196
Encoding: 406 406 406
Width: 862
Flags: W
AnchorPoint: "above" 431.1 1465 basechar 0
Fore
258.3 337 m 2,0,-1
 258.3 1372 l 1,1,-1
 86.4004 1372 l 1,2,-1
 86.4004 1493 l 1,3,-1
 777.6 1493 l 1,4,-1
 777.6 1372 l 1,5,-1
 604.8 1372 l 1,6,-1
 604.8 351 l 2,7,8
 604.8 220 604.8 220 639.9 160 c 0,9,10
 675.9 99 675.9 99 761.4 99 c 1,11,-1
 761.4 0 l 1,12,-1
 581.4 0 l 2,13,14
 400.5 0 400.5 0 367.2 24 c 0,15,16
 258.3 102 258.3 102 258.3 337 c 2,0,-1
EndSplineSet
EndChar
StartChar: uni0197
Encoding: 407 407 407
Width: 862
Flags: W
AnchorPoint: "above" 431.1 1465 basechar 0
Fore
604.8 851 m 1,0,-1
 828 851 l 1,1,-1
 828 659 l 1,2,-1
 604.8 659 l 1,3,-1
 604.8 121 l 1,4,-1
 777.6 121 l 1,5,-1
 777.6 0 l 1,6,-1
 86.4004 0 l 1,7,-1
 86.4004 121 l 1,8,-1
 258.3 121 l 1,9,-1
 258.3 659 l 1,10,-1
 34.2002 659 l 1,11,-1
 34.2002 851 l 1,12,-1
 258.3 851 l 1,13,-1
 258.3 1372 l 1,14,-1
 86.4004 1372 l 1,15,-1
 86.4004 1493 l 1,16,-1
 777.6 1493 l 1,17,-1
 777.6 1372 l 1,18,-1
 604.8 1372 l 1,19,-1
 604.8 851 l 1,0,-1
EndSplineSet
EndChar
StartChar: uni0198
Encoding: 408 408 408
Width: 1602
Flags: W
Fore
1312.2 1332 m 2,0,-1
 870.3 911 l 1,1,-1
 1526.4 121 l 1,2,-1
 1658.7 121 l 1,3,-1
 1658.7 0 l 1,4,-1
 1203.3 0 l 1,5,-1
 604.8 725 l 1,6,-1
 604.8 121 l 1,7,-1
 777.6 121 l 1,8,-1
 777.6 0 l 1,9,-1
 86.4004 0 l 1,10,-1
 86.4004 121 l 1,11,-1
 258.3 121 l 1,12,-1
 258.3 1372 l 1,13,-1
 86.4004 1372 l 1,14,-1
 86.4004 1493 l 1,15,-1
 777.6 1493 l 1,16,-1
 777.6 1372 l 1,17,-1
 604.8 1372 l 1,18,-1
 604.8 827 l 1,19,-1
 1174.5 1372 l 2,20,21
 1298.7 1491 1298.7 1491 1425.6 1493 c 0,22,23
 1472.4 1493 1472.4 1493 1540.8 1484 c 0,24,25
 1602 1474 1602 1474 1667.7 1455 c 1,26,-1
 1667.7 1230 l 1,27,-1
 1566 1230 l 1,28,29
 1566 1310 1566 1310 1537.2 1346 c 0,30,31
 1509.3 1384 1509.3 1384 1451.7 1381 c 0,32,33
 1358.1 1377 1358.1 1377 1312.2 1332 c 2,0,-1
EndSplineSet
EndChar
StartChar: uni0199
Encoding: 409 409 409
Width: 1277
Flags: W
Fore
198.9 1226 m 2,0,1
 198.9 1389 198.9 1389 302.4 1472 c 0,2,3
 406.8 1556 406.8 1556 609.3 1556 c 0,4,5
 663.3 1556 663.3 1556 724.5 1546 c 128,-1,6
 785.7 1536 785.7 1536 851.4 1517 c 1,7,-1
 851.4 1292 l 1,8,-1
 749.7 1292 l 1,9,10
 749.7 1372 749.7 1372 721.8 1408 c 0,11,12
 694.8 1443 694.8 1443 635.4 1443 c 0,13,14
 569.7 1443 569.7 1443 543.6 1396 c 0,15,16
 517.5 1347 517.5 1347 517.5 1226 c 2,17,-1
 517.5 557 l 1,18,-1
 903.6 942 l 1,19,-1
 789.3 942 l 1,20,-1
 789.3 1063 l 1,21,-1
 1225.8 1063 l 1,22,-1
 1225.8 942 l 1,23,-1
 1048.5 942 l 1,24,-1
 801.9 696 l 1,25,-1
 1205.1 121 l 1,26,-1
 1308.6 121 l 1,27,-1
 1308.6 0 l 1,28,-1
 759.6 0 l 1,29,-1
 759.6 121 l 1,30,-1
 872.1 121 l 1,31,-1
 606.6 500 l 1,32,-1
 517.5 412 l 1,33,-1
 517.5 121 l 1,34,-1
 638.1 121 l 1,35,-1
 638.1 0 l 1,36,-1
 63 0 l 1,37,-1
 63 121 l 1,38,-1
 198.9 121 l 1,39,-1
 198.9 1226 l 2,0,1
EndSplineSet
EndChar
StartChar: uni019A
Encoding: 410 410 410
Width: 700
Flags: W
Fore
517.5 121 m 1,0,-1
 654.3 121 l 1,1,-1
 654.3 0 l 1,2,-1
 63 0 l 1,3,-1
 63 121 l 1,4,-1
 198.9 121 l 1,5,-1
 198.9 479 l 1,6,-1
 63 479 l 1,7,-1
 63 600 l 1,8,-1
 198.9 600 l 1,9,-1
 198.9 1436 l 1,10,-1
 63 1436 l 1,11,-1
 63 1556 l 1,12,-1
 517.5 1556 l 1,13,-1
 517.5 600 l 1,14,-1
 654.3 600 l 1,15,-1
 654.3 479 l 1,16,-1
 517.5 479 l 1,17,-1
 517.5 121 l 1,0,-1
EndSplineSet
EndChar
StartChar: uni019B
Encoding: 411 411 411
Width: 1292
Flags: W
Fore
1105.2 121 m 1,0,-1
 1215.9 121 l 1,1,-1
 1215.9 0 l 1,2,-1
 856.8 0 l 1,3,-1
 856.8 121 l 1,4,-1
 981.9 121 l 1,5,-1
 774 700 l 1,6,-1
 498.6 121 l 1,7,-1
 614.7 121 l 1,8,-1
 614.7 0 l 1,9,-1
 65.7002 0 l 1,10,-1
 65.7002 121 l 1,11,-1
 171 121 l 1,12,-1
 623.7 1109 l 1,13,-1
 623.7 1110 l 1,14,-1
 244.8 859 l 1,15,-1
 189 964 l 1,16,-1
 574.2 1220 l 1,17,18
 511.2 1345 511.2 1345 451.8 1376 c 0,19,20
 412.2 1398 412.2 1398 333 1400 c 0,21,22
 274.5 1400 274.5 1400 243 1363 c 0,23,24
 212.4 1326 212.4 1326 209.7 1249 c 1,25,-1
 108 1249 l 1,26,-1
 108 1470 l 1,27,28
 174.6 1492 174.6 1492 225.9 1502 c 0,29,30
 288 1514 288 1514 324 1513 c 0,31,32
 527.4 1513 527.4 1513 652.5 1272 c 1,33,-1
 843.3 1398 l 1,34,-1
 900.9 1293 l 1,35,-1
 702.9 1162 l 1,36,-1
 703.8 1160 l 1,37,-1
 1105.2 121 l 1,0,-1
EndSplineSet
EndChar
StartChar: uni019C
Encoding: 412 412 412
Width: 1950
Flags: W
Fore
852.3 174 m 1,0,1
 785.7 68 785.7 68 708.3 19.5 c 128,-1,2
 630.9 -29 630.9 -29 527.4 -29 c 0,3,4
 362.7 -29 362.7 -29 281.25 74.5 c 128,-1,5
 199.8 178 199.8 178 199.8 387 c 2,6,-1
 199.8 1372 l 1,7,-1
 63 1372 l 1,8,-1
 63 1493 l 1,9,-1
 632.7 1493 l 1,10,-1
 632.7 1372 l 1,11,-1
 518.4 1372 l 1,12,-1
 518.4 440 l 2,13,14
 518.4 241 518.4 241 545.85 189 c 128,-1,15
 573.3 137 573.3 137 648 137 c 0,16,17
 732.6 137 732.6 137 779.4 209.5 c 128,-1,18
 826.2 282 826.2 282 826.2 416 c 2,19,-1
 826.2 1372 l 1,20,-1
 711.9 1372 l 1,21,-1
 711.9 1493 l 1,22,-1
 1259.1 1493 l 1,23,-1
 1259.1 1372 l 1,24,-1
 1144.8 1372 l 1,25,-1
 1144.8 440 l 2,26,27
 1144.8 241 1144.8 241 1172.7 189 c 128,-1,28
 1200.6 137 1200.6 137 1274.4 137 c 0,29,30
 1359.9 137 1359.9 137 1406.7 209.5 c 128,-1,31
 1453.5 282 1453.5 282 1453.5 416 c 2,32,-1
 1453.5 1372 l 1,33,-1
 1339.2 1372 l 1,34,-1
 1339.2 1493 l 1,35,-1
 1908 1493 l 1,36,-1
 1908 1372 l 1,37,-1
 1772.1 1372 l 1,38,-1
 1772.1 121 l 1,39,-1
 1908 121 l 1,40,-1
 1908 0 l 1,41,-1
 1453.5 0 l 1,42,-1
 1453.5 150 l 1,43,44
 1397.7 57 1397.7 57 1325.7 14 c 128,-1,45
 1253.7 -29 1253.7 -29 1154.7 -29 c 0,46,47
 1037.7 -29 1037.7 -29 964.8 20.5 c 128,-1,48
 891.9 70 891.9 70 852.3 174 c 1,0,1
EndSplineSet
EndChar
StartChar: uni019D
Encoding: 413 413 413
Width: 1684
Flags: W
Fore
-163.8 -358 m 1,0,-1
 -163.8 -123 l 1,1,-1
 -46.7998 -123 l 1,2,3
 -46.7998 -266 -46.7998 -266 43.2002 -296 c 0,4,5
 66.5996 -305 66.5996 -305 96.2998 -305 c 0,6,7
 183.6 -305 183.6 -305 217.8 -230 c 0,8,9
 252.9 -156 252.9 -156 252.9 49 c 2,10,-1
 252.9 1372 l 1,11,-1
 81 1372 l 1,12,-1
 81 1493 l 1,13,-1
 501.3 1493 l 1,14,-1
 1312.2 436 l 1,15,-1
 1312.2 1372 l 1,16,-1
 1141.2 1372 l 1,17,-1
 1141.2 1493 l 1,18,-1
 1611 1493 l 1,19,-1
 1611 1372 l 1,20,-1
 1439.1 1372 l 1,21,-1
 1439.1 0 l 1,22,-1
 1203.3 0 l 1,23,-1
 379.8 1079 l 1,24,-1
 379.8 41 l 2,25,26
 379.8 -244 379.8 -244 280.8 -348 c 0,27,28
 207.9 -426 207.9 -426 81 -426 c 0,29,30
 65.7002 -426 65.7002 -426 -9.90039 -409 c 0,31,32
 -85.5 -392 -85.5 -392 -163.8 -358 c 1,0,-1
EndSplineSet
EndChar
StartChar: uni019E
Encoding: 414 414 414
Width: 1340
Flags: W
AnchorPoint: "above" 597.6 1092 basechar 0
Fore
63 0 m 1,0,-1
 63 121 l 1,1,-1
 198.9 121 l 1,2,-1
 198.9 942 l 1,3,-1
 63 942 l 1,4,-1
 63 1063 l 1,5,-1
 517.5 1063 l 1,6,-1
 517.5 913 l 1,7,8
 575.1 1008 575.1 1008 648.9 1050 c 128,-1,9
 722.7 1092 722.7 1092 835.2 1092 c 0,10,11
 996.3 1092 996.3 1092 1078.2 986 c 0,12,13
 1161 880 1161 880 1161 676 c 2,14,-1
 1161 -305 l 1,15,-1
 1296.9 -305 l 1,16,-1
 1296.9 -426 l 1,17,-1
 725.4 -426 l 1,18,-1
 725.4 -305 l 1,19,-1
 842.4 -305 l 1,20,-1
 842.4 686 l 2,21,22
 842.4 821 842.4 821 811.8 874 c 0,23,24
 780.3 926 780.3 926 703.8 926 c 0,25,26
 607.5 926 607.5 926 562.5 848 c 0,27,28
 517.5 769 517.5 769 517.5 598 c 2,29,-1
 517.5 121 l 1,30,-1
 634.5 121 l 1,31,-1
 634.5 0 l 1,32,-1
 63 0 l 1,0,-1
EndSplineSet
EndChar
StartChar: uni019F
Encoding: 415 415 415
Width: 1605
Flags: W
AnchorPoint: "above" 803.7 1465 basechar 0
Fore
801.9 -29 m 0,0,1
 462.6 -29 462.6 -29 270 177 c 0,2,3
 77.4004 383 77.4004 383 77.4004 745 c 0,4,5
 77.4004 1107 77.4004 1107 270.45 1313.5 c 0,6,7
 463.5 1520 463.5 1520 801.9 1520 c 0,8,9
 1141.2 1520 1141.2 1520 1333.8 1314 c 0,10,11
 1526.4 1108 1526.4 1108 1526.4 745 c 0,12,13
 1526.4 383 1526.4 383 1333.35 177 c 0,14,15
 1140.3 -29 1140.3 -29 801.9 -29 c 0,0,1
801.9 92 m 0,16,17
 973.8 92 973.8 92 1057.5 253 c 0,18,19
 1131.29 394.938 1131.29 394.938 1140.03 669 c 1,20,-1
 463.801 669 l 1,21,22
 472.652 397.589 472.652 397.589 546.75 254.5 c 0,23,24
 630.9 92 630.9 92 801.9 92 c 0,16,17
464.104 830 m 1,25,-1
 1139.73 830 l 1,26,27
 1130.1 1098.34 1130.1 1098.34 1057.5 1238 c 0,28,29
 973.8 1399 973.8 1399 801.9 1399 c 0,30,31
 630.9 1399 630.9 1399 546.75 1236.5 c 0,32,33
 473.851 1095.73 473.851 1095.73 464.104 830 c 1,25,-1
EndSplineSet
EndChar
StartChar: uni01A2
Encoding: 418 418 418
Width: 2212
Flags: W
Fore
801 -29 m 0,0,1
 461.7 -29 461.7 -29 269.1 177 c 0,2,3
 76.5 383 76.5 383 76.5 745 c 0,4,5
 76.5 1107 76.5 1107 269.55 1313.5 c 0,6,7
 462.6 1520 462.6 1520 801 1520 c 0,8,9
 1029.83 1520 1029.83 1520 1191.92 1426.31 c 1,10,11
 1268.66 1459.33 1268.66 1459.33 1342.8 1476 c 0,12,13
 1418.4 1493 1418.4 1493 1493.1 1493 c 0,14,15
 1733.4 1493 1733.4 1493 1843.65 1381 c 0,16,17
 1953.9 1269 1953.9 1269 1953.9 1026 c 2,18,-1
 1953.9 -230 l 1,19,-1
 2125.8 -230 l 1,20,-1
 2125.8 -351 l 1,21,-1
 1433.7 -351 l 1,22,-1
 1433.7 -230 l 1,23,-1
 1605.6 -230 l 1,24,-1
 1605.6 1018 l 2,25,26
 1605.6 1223 1605.6 1223 1570.95 1297.5 c 0,27,28
 1536.3 1372 1536.3 1372 1449 1372 c 0,29,30
 1380.6 1372 1380.6 1372 1345.95 1328 c 0,31,32
 1340.09 1320.55 1340.09 1320.55 1335.06 1311.68 c 1,33,34
 1525.5 1105.96 1525.5 1105.96 1525.5 745 c 0,35,36
 1525.5 383 1525.5 383 1332.45 177 c 0,37,38
 1139.4 -29 1139.4 -29 801 -29 c 0,0,1
801 92 m 0,39,40
 972.9 92 972.9 92 1056.6 253 c 0,41,42
 1140.3 414 1140.3 414 1140.3 745 c 0,43,44
 1140.3 1077 1140.3 1077 1056.6 1238 c 0,45,46
 972.9 1399 972.9 1399 801 1399 c 0,47,48
 630 1399 630 1399 545.85 1236.5 c 0,49,50
 461.7 1074 461.7 1074 461.7 745 c 0,51,52
 461.7 417 461.7 417 545.85 254.5 c 0,53,54
 630 92 630 92 801 92 c 0,39,40
EndSplineSet
EndChar
StartChar: uni01A3
Encoding: 419 419 419
Width: 1738
Flags: W
Fore
1228.5 -305 m 1,0,-1
 1229.4 733 l 2,1,2
 1229.51 855.781 1229.51 855.781 1203.3 903 c 0,3,4
 1177.2 950 1177.2 950 1111.5 950 c 0,5,6
 1059.25 950 1059.25 950 1032.41 922.526 c 1,7,8
 1156.5 776.907 1156.5 776.907 1156.5 532 c 0,9,10
 1156.5 270 1156.5 270 1012.95 120.5 c 0,11,12
 869.4 -29 869.4 -29 616.5 -29 c 0,13,14
 363.6 -29 363.6 -29 220.05 120.5 c 0,15,16
 76.5 270 76.5 270 76.5 532 c 0,17,18
 76.5 795 76.5 795 220.05 943.5 c 0,19,20
 363.6 1092 363.6 1092 616.5 1092 c 0,21,22
 784.933 1092 784.933 1092 904.608 1026.6 c 1,23,24
 965.457 1043.69 965.457 1043.69 1022.4 1053 c 0,25,26
 1083.6 1063 1083.6 1063 1137.6 1063 c 0,27,28
 1340.1 1063 1340.1 1063 1444.05 979.5 c 0,29,30
 1548 895.816 1548 895.816 1548 733 c 2,31,-1
 1548 -305 l 1,32,-1
 1695.6 -305 l 1,33,-1
 1695.6 -426 l 1,34,-1
 1092.6 -426 l 1,35,-1
 1092.6 -305 l 1,36,-1
 1228.5 -305 l 1,0,-1
616.5 84 m 0,37,38
 717.3 84 717.3 84 758.25 180 c 0,39,40
 799.2 276 799.2 276 799.2 532 c 0,41,42
 799.2 788 799.2 788 758.7 883.5 c 0,43,44
 718.2 979 718.2 979 616.5 979 c 0,45,46
 514.8 979 514.8 979 473.4 882.5 c 0,47,48
 432 786 432 786 432 532 c 0,49,50
 432 278 432 278 473.4 181 c 0,51,52
 514.8 84 514.8 84 616.5 84 c 0,37,38
EndSplineSet
EndChar
StartChar: uni01A4
Encoding: 420 420 420
Width: 1386
Flags: W
Fore
258.3 1493 m 2,0,-1
 851.4 1493 l 2,1,2
 1075.5 1493 1075.5 1493 1207.8 1374 c 0,3,4
 1340.1 1256 1340.1 1256 1340.1 1057 c 0,5,6
 1340.1 857 1340.1 857 1207.8 738 c 0,7,8
 1074.6 618 1074.6 618 851.4 618 c 2,9,-1
 604.8 618 l 1,10,-1
 604.8 121 l 1,11,-1
 821.7 121 l 1,12,-1
 821.7 0 l 1,13,-1
 86.4004 0 l 1,14,-1
 86.4004 121 l 1,15,-1
 258.3 121 l 1,16,-1
 258.3 1372 l 1,17,18
 81.9004 1372 81.9004 1372 19.7998 1283 c 0,19,20
 -43.2002 1192 -43.2002 1192 -43.2002 1006 c 1,21,-1
 -221.4 1006 l 1,22,-1
 -221.4 1364 l 1,23,24
 -146.7 1433 -146.7 1433 66.5996 1476 c 0,25,26
 152.1 1493 152.1 1493 258.3 1493 c 2,0,-1
604.8 739 m 1,27,-1
 705.6 739 l 2,28,29
 822.6 739 822.6 739 892.8 826 c 0,30,31
 962.1 912 962.1 912 962.1 1057 c 0,32,33
 962.1 1201 962.1 1201 892.8 1286 c 0,34,35
 823.5 1372 823.5 1372 705.6 1372 c 2,36,-1
 604.8 1372 l 1,37,-1
 604.8 739 l 1,27,-1
EndSplineSet
EndChar
StartChar: uni01A5
Encoding: 421 421 421
Width: 1288
Flags: W
Fore
497.7 584 m 2,0,-1
 497.7 479 l 2,1,2
 497.7 293 497.7 293 540 210 c 0,3,4
 583.2 127 583.2 127 678.6 127 c 0,5,6
 776.7 127 776.7 127 817.2 215 c 0,7,8
 856.8 303 856.8 303 856.8 532 c 0,9,10
 856.8 761 856.8 761 817.2 848 c 0,11,12
 776.7 936 776.7 936 678.6 936 c 0,13,14
 583.2 936 583.2 936 540 853 c 0,15,16
 497.7 770 497.7 770 497.7 584 c 2,0,-1
179.1 -305 m 1,17,-1
 179.1 1123 l 2,18,19
 179.1 1286 179.1 1286 282.6 1370 c 0,20,21
 387 1453 387 1453 589.5 1453 c 0,22,23
 643.5 1453 643.5 1453 704.7 1443 c 0,24,25
 765.9 1433 765.9 1433 831.6 1414 c 1,26,-1
 831.6 1189 l 1,27,-1
 729.9 1189 l 1,28,29
 729.9 1269 729.9 1269 702 1304 c 0,30,31
 675 1340 675 1340 615.6 1340 c 0,32,33
 549.9 1340 549.9 1340 523.8 1293 c 0,34,35
 497.7 1246 497.7 1246 497.7 1123 c 2,36,-1
 497.7 928 l 1,37,38
 538.2 1011 538.2 1011 606.6 1052 c 0,39,40
 675 1092 675 1092 775.8 1092 c 0,41,42
 980.1 1092 980.1 1092 1098 942 c 0,43,44
 1215 793 1215 793 1215 532 c 0,45,46
 1215 271 1215 271 1098 121 c 0,47,48
 980.1 -29 980.1 -29 775.8 -29 c 0,49,50
 675 -29 675 -29 606.6 12 c 0,51,52
 538.2 52 538.2 52 497.7 135 c 1,53,-1
 497.7 -305 l 1,54,-1
 645.3 -305 l 1,55,-1
 645.3 -426 l 1,56,-1
 42.2998 -426 l 1,57,-1
 42.2998 -305 l 1,58,-1
 179.1 -305 l 1,17,-1
EndSplineSet
EndChar
StartChar: uni01A6
Encoding: 422 422 422
Width: 1531
Flags: W
Fore
258.3 1372 m 1,0,-1
 86.4004 1372 l 1,1,-1
 86.4004 1493 l 1,2,-1
 774 1493 l 1,3,-1
 774 1372 l 1,4,-1
 604.8 1372 l 1,5,-1
 604.8 1202 l 1,6,-1
 853.2 1202 l 2,7,8
 1087.2 1202 1087.2 1202 1214.55 1097.5 c 128,-1,9
 1341.9 993 1341.9 993 1341.9 801 c 0,10,11
 1341.9 645 1341.9 645 1251.45 554.5 c 128,-1,12
 1161 464 1161 464 978.3 438 c 1,0,1
 1058.4 425 1058.4 425 1113.3 379 c 0,2,3
 1167.32 333.737 1167.32 333.737 1208.7 246 c 2,4,-1
 1404.9 -170 l 1,5,-1
 1542.6 -170 l 1,6,-1
 1542.6 -291 l 1,7,-1
 1100.7 -291 l 1,8,-1
 886.5 160 l 2,9,10
 816.842 306.667 816.842 306.667 780.75 338.5 c 0,11,12
 737.1 377 737.1 377 659.7 377 c 2,13,-1
 604.8 377 l 1,14,-1
 601.2 121 l 1,15,-1
 774 121 l 1,16,-1
 774 0 l 1,17,-1
 82.7998 0 l 1,18,-1
 82.7998 121 l 1,19,-1
 254.7 121 l 1,20,-1
 258.3 1372 l 1,0,-1
604.8 497 m 1,28,-1
 722.7 497 l 2,29,30
 848.7 497 848.7 497 916.65 573 c 128,-1,31
 984.6 649 984.6 649 984.6 790 c 0,32,33
 984.6 931 984.6 931 916.65 1006 c 128,-1,34
 848.7 1081 848.7 1081 722.7 1081 c 2,35,-1
 604.8 1081 l 1,36,-1
 604.8 497 l 1,28,-1
EndSplineSet
EndChar
StartChar: uni01A7
Encoding: 423 423 423
Width: 1331
Flags: W
AnchorPoint: "above" 656.1 1465 basechar 0
Fore
1199.7 72 m 1,0,1
 1065.6 21 1065.6 21 936 -4 c 128,-1,2
 806.4 -29 806.4 -29 675 -29 c 0,3,4
 402.3 -29 402.3 -29 261.9 88 c 0,5,6
 121.5 206 121.5 206 121.5 432 c 0,7,8
 121.5 625 121.5 625 205.2 735 c 0,9,10
 289.8 845 289.8 845 477 897 c 2,11,-1
 678.6 952 l 1,12,13
 861.3 1004 861.3 1004 908.1 1052 c 0,14,15
 954.9 1101 954.9 1101 954.9 1194 c 0,16,17
 954.9 1296 954.9 1296 887.4 1348 c 0,18,19
 819 1399 819 1399 685.8 1399 c 0,20,21
 522.9 1399 522.9 1399 434.7 1328 c 0,22,23
 346.5 1256 346.5 1256 320.4 1102 c 1,24,-1
 206.1 1102 l 1,25,-1
 206.1 1432 l 1,26,27
 342.9 1476 342.9 1476 469.8 1498 c 0,28,29
 597.6 1520 597.6 1520 715.5 1520 c 0,30,31
 954.9 1520 954.9 1520 1087.2 1396 c 0,32,33
 1220.4 1273 1220.4 1273 1220.4 1051 c 0,34,35
 1220.4 867 1220.4 867 1140.3 768 c 0,36,37
 1060.2 668 1060.2 668 863.1 612 c 1,38,-1
 661.5 557 l 2,39,40
 506.7 514 506.7 514 457.2 464 c 128,-1,41
 407.7 414 407.7 414 407.7 324 c 0,42,43
 407.7 210 407.7 210 480.6 151 c 128,-1,44
 553.5 92 553.5 92 693 92 c 0,45,46
 864.9 92 864.9 92 962.1 175 c 128,-1,47
 1059.3 258 1059.3 258 1085.4 426 c 1,48,-1
 1199.7 426 l 1,49,-1
 1199.7 72 l 1,0,1
EndSplineSet
EndChar
StartChar: uni01A8
Encoding: 424 424 424
Width: 1037
Flags: W
AnchorPoint: "above" 520.2 1092 basechar 0
Fore
954.9 31 m 1,0,1
 843.3 1 843.3 1 743.4 -14 c 128,-1,2
 643.5 -29 643.5 -29 554.4 -29 c 0,3,4
 310.5 -29 310.5 -29 194.4 56 c 0,5,6
 79.2002 142 79.2002 142 79.2002 322 c 0,7,8
 79.2002 461 79.2002 461 151.2 539 c 128,-1,9
 223.2 617 223.2 617 411.3 670 c 2,10,-1
 541.8 707 l 2,11,12
 616.5 728 616.5 728 645.3 759 c 128,-1,13
 674.1 790 674.1 790 674.1 844 c 0,14,15
 674.1 910 674.1 910 624.6 944 c 0,16,17
 574.2 979 574.2 979 477 979 c 0,18,19
 361.8 979 361.8 979 300.6 924 c 0,20,21
 238.5 869 238.5 869 230.4 760 c 1,22,-1
 128.7 760 l 1,23,-1
 128.7 1028 l 1,24,25
 244.8 1061 244.8 1061 340.2 1076 c 0,26,27
 436.5 1092 436.5 1092 521.1 1092 c 0,28,29
 746.1 1092 746.1 1092 854.1 1008 c 0,30,31
 962.1 923 962.1 923 962.1 750 c 0,32,33
 962.1 620 962.1 620 895.5 544 c 0,34,35
 828.9 467 828.9 467 680.4 426 c 2,36,-1
 549 389 l 2,37,38
 454.5 363 454.5 363 421.2 328 c 0,39,40
 388.8 293 388.8 293 388.8 229 c 0,41,42
 388.8 159 388.8 159 441 122 c 0,43,44
 492.3 84 492.3 84 589.5 84 c 0,45,46
 705.6 84 705.6 84 773.1 146 c 0,47,48
 840.6 209 840.6 209 853.2 328 c 1,49,-1
 954.9 328 l 1,50,-1
 954.9 31 l 1,0,1
EndSplineSet
EndChar
StartChar: uni01AA
Encoding: 426 426 426
Width: 610
Flags: W
Fore
677.7 1522.99 m 1,0,1
 677.7 1434.46 677.7 1434.46 635.4 1352.99 c 0,2,3
 602.674 1289.96 602.674 1289.96 516.639 1234.58 c 1,4,5
 516.22 1230.8 516.22 1230.8 515.7 1226.99 c 2,6,-1
 334.8 -100.012 l 2,7,8
 319.027 -215.712 319.027 -215.712 367.2 -286.512 c 0,9,10
 406.322 -344.012 406.322 -344.012 471.6 -344.012 c 0,11,12
 533.7 -344.012 533.7 -344.012 567.45 -306.012 c 128,-1,13
 601.2 -268.012 601.2 -268.012 608.4 -190.012 c 1,14,-1
 709.2 -190.012 l 1,15,-1
 709.2 -418.012 l 1,16,17
 639 -437.012 639 -437.012 566.1 -446.512 c 128,-1,18
 493.2 -456.012 493.2 -456.012 416.7 -456.012 c 0,19,20
 230.329 -456.012 230.329 -456.012 117.9 -364.512 c 0,21,22
 -6.65234 -263.143 -6.65234 -263.143 16.2002 -96.0117 c 2,23,-1
 184.258 1133.07 l 1,24,25
 151.419 1131.02 151.419 1131.02 116.64 1130.99 c 0,26,27
 60.2998 1130.94 60.2998 1130.94 17.4424 1142.37 c 0,28,29
 -118.8 1178.69 -118.8 1178.69 -118.8 1330.99 c 0,30,31
 -118.8 1553.25 -118.8 1553.25 194.4 1555.99 c 0,32,33
 310.678 1557.01 310.678 1557.01 411.75 1473.49 c 0,34,35
 479.217 1417.74 479.217 1417.74 504.005 1349.43 c 1,36,37
 526.702 1372.06 526.702 1372.06 542.7 1399.99 c 0,38,39
 567.9 1443.99 567.9 1443.99 578.7 1522.99 c 1,40,-1
 677.7 1522.99 l 1,0,1
196.511 1222.67 m 1,41,-1
 197.1 1226.99 l 2,42,43
 214.064 1351.05 214.064 1351.05 171 1396.99 c 0,44,45
 144.928 1424.8 144.928 1424.8 118.8 1426.99 c 0,46,47
 0 1434.23 0 1434.23 0 1345.99 c 0,48,49
 0 1219.44 0 1219.44 165.24 1220.99 c 0,50,51
 180.476 1221.13 180.476 1221.13 196.511 1222.67 c 1,41,-1
EndSplineSet
EndChar
StartChar: uni01AB
Encoding: 427 427 427
Width: 851
Flags: W
Fore
182.7 942 m 1,0,-1
 44.0996 942 l 1,1,-1
 44.0996 1063 l 1,2,-1
 182.7 1063 l 1,3,-1
 182.7 1393 l 1,4,-1
 501.3 1393 l 1,5,-1
 501.3 1063 l 1,6,-1
 766.8 1063 l 1,7,-1
 766.8 942 l 1,8,-1
 501.3 942 l 1,9,-1
 501.3 291 l 2,10,11
 501.3 152 501.3 152 521.1 118 c 0,12,13
 540.9 84 540.9 84 593.1 84 c 2,14,-1
 842.4 84 l 1,15,-1
 842.4 -125 l 2,16,17
 842.4 -288.003 842.4 -288.003 738.45 -371.5 c 0,18,19
 634.496 -455 634.496 -455 432 -455 c 0,20,21
 378 -455 378 -455 316.8 -445 c 0,22,23
 255.6 -435 255.6 -435 189.9 -416 c 1,24,-1
 189.9 -191 l 1,25,-1
 291.6 -191 l 1,26,27
 293.4 -271 293.4 -271 319.95 -306.5 c 0,28,29
 346.5 -342 346.5 -342 405.9 -342 c 0,30,31
 470.264 -342 470.264 -342 497.7 -295 c 0,32,33
 523.8 -250.289 523.8 -250.289 523.8 -125 c 2,34,-1
 523.8 -28.9932 l 1,35,36
 522.005 -29 522.005 -29 520.2 -29 c 0,37,38
 323.1 -29 323.1 -29 252.9 39.5 c 0,39,40
 182.7 108 182.7 108 182.7 291 c 2,41,-1
 182.7 942 l 1,0,-1
EndSplineSet
EndChar
StartChar: uni01AC
Encoding: 428 428 428
Width: 1371
Flags: W
AnchorPoint: "above" 692.1 1465 basechar 0
Fore
512.1 1356 m 0,0,1
 324.9 1356 324.9 1356 273.6 1283 c 0,2,3
 210.6 1192 210.6 1192 210.6 1006 c 1,4,-1
 32.4004 1006 l 1,5,-1
 32.4004 1364 l 1,6,7
 107.1 1433 107.1 1433 320.4 1476 c 0,8,9
 405.9 1493 405.9 1493 512.1 1493 c 1,10,-1
 1352.7 1493 l 1,11,-1
 1352.7 1120 l 1,12,-1
 1231.2 1120 l 1,13,-1
 1231.2 1356 l 1,14,-1
 860.4 1356 l 1,15,-1
 860.4 121 l 1,16,-1
 1039.5 121 l 1,17,-1
 1039.5 0 l 1,18,-1
 333.9 0 l 1,19,-1
 333.9 121 l 1,20,-1
 512.1 121 l 1,21,-1
 512.1 1356 l 0,0,1
EndSplineSet
EndChar
StartChar: uni01AD
Encoding: 429 429 429
Width: 851
Flags: W
Fore
182.7 942 m 1,0,-1
 44.0996 942 l 1,1,-1
 44.0996 1063 l 1,2,-1
 182.7 1063 l 1,3,-1
 182.7 1226 l 2,4,5
 182.7 1389 182.7 1389 286.2 1472 c 0,6,7
 390.6 1556 390.6 1556 593.1 1556 c 0,8,9
 647.1 1556 647.1 1556 708.3 1546 c 0,10,11
 769.5 1536 769.5 1536 835.2 1517 c 1,12,-1
 835.2 1292 l 1,13,-1
 733.5 1292 l 1,14,15
 731.7 1372 731.7 1372 705.6 1408 c 0,16,17
 678.6 1443 678.6 1443 619.2 1443 c 0,18,19
 556.2 1443 556.2 1443 527.4 1396 c 0,20,21
 501.3 1354 501.3 1354 501.3 1226 c 2,22,-1
 501.3 1063 l 1,23,-1
 766.8 1063 l 1,24,-1
 766.8 942 l 1,25,-1
 501.3 942 l 1,26,-1
 501.3 291 l 2,27,28
 501.3 152 501.3 152 521.1 118 c 0,29,30
 540.9 84 540.9 84 593.1 84 c 0,31,32
 650.7 84 650.7 84 678.6 127 c 0,33,34
 706.5 170 706.5 170 708.3 260 c 1,35,-1
 842.4 260 l 1,36,37
 842.4 100 842.4 100 763.2 36 c 0,38,39
 693 -29 693 -29 520.2 -29 c 0,40,41
 323.1 -29 323.1 -29 252.9 40 c 0,42,43
 182.7 108 182.7 108 182.7 291 c 2,44,-1
 182.7 942 l 1,0,-1
EndSplineSet
EndChar
StartChar: uni01AE
Encoding: 430 430 430
Width: 1371
Flags: W
AnchorPoint: "above" 692.1 1465 basechar 0
Fore
512.1 41 m 2,0,-1
 512.1 1356 l 1,1,-1
 144 1356 l 1,2,-1
 144 1120 l 1,3,-1
 20.7002 1120 l 1,4,-1
 20.7002 1493 l 1,5,-1
 1352.7 1493 l 1,6,-1
 1352.7 1120 l 1,7,-1
 1231.2 1120 l 1,8,-1
 1231.2 1356 l 1,9,-1
 860.4 1356 l 1,10,-1
 860.4 49 l 2,11,12
 860.4 -156 860.4 -156 894.6 -230 c 0,13,14
 929.7 -305 929.7 -305 1017 -305 c 0,15,16
 1085.4 -305 1085.4 -305 1119.6 -261 c 0,17,18
 1154.7 -217 1154.7 -217 1160.1 -123 c 1,19,-1
 1277.1 -123 l 1,20,-1
 1277.1 -358 l 1,21,22
 1198.8 -392 1198.8 -392 1123.2 -409 c 128,-1,23
 1047.6 -426 1047.6 -426 972.9 -426 c 0,24,25
 732.6 -426 732.6 -426 622.8 -314 c 0,26,27
 512.1 -202 512.1 -202 512.1 41 c 2,0,-1
EndSplineSet
EndChar
StartChar: uni01B1
Encoding: 433 433 433
Width: 1640
Flags: W
Fore
516.6 1336 m 1,0,-1
 216 1336 l 1,1,-1
 216 1211 l 1,2,-1
 92.7002 1211 l 1,3,-1
 92.7002 1520 l 1,4,-1
 752.4 1520 l 1,5,-1
 752.4 1327 l 1,6,7
 612 1295 612 1295 540 1143 c 128,-1,8
 468 991 468 991 468 725 c 0,9,10
 468 430 468 430 558 276 c 0,11,12
 648 121 648 121 820.8 121 c 128,-1,13
 993.6 121 993.6 121 1083.6 276 c 0,14,15
 1172.7 430 1172.7 430 1172.7 727 c 0,16,17
 1172.7 988 1172.7 988 1099.8 1142 c 0,18,19
 1026.9 1295 1026.9 1295 888.3 1327 c 1,20,-1
 888.3 1520 l 1,21,-1
 1548.9 1520 l 1,22,-1
 1548.9 1211 l 1,23,-1
 1426.5 1211 l 1,24,-1
 1426.5 1336 l 1,25,-1
 1125 1336 l 1,26,27
 1338.3 1244 1338.3 1244 1448.1 1084 c 0,28,29
 1557.9 923 1557.9 923 1557.9 703 c 0,30,31
 1557.9 387 1557.9 387 1355.4 194 c 0,32,33
 1153.8 0 1153.8 0 820.8 0 c 128,-1,34
 487.8 0 487.8 0 285.3 194 c 0,35,36
 82.7998 387 82.7998 387 82.7998 703 c 0,37,38
 82.7998 923 82.7998 923 192.6 1084 c 0,39,40
 302.4 1244 302.4 1244 516.6 1336 c 1,0,-1
EndSplineSet
EndChar
StartChar: uni01B2
Encoding: 434 434 434
Width: 1640
Flags: W
Fore
820.8 121 m 1,0,1
 993.6 121 993.6 121 1083.15 275.5 c 128,-1,2
 1172.7 430 1172.7 430 1172.7 727 c 0,3,4
 1172.7 990.493 1172.7 990.493 1099.8 1141.5 c 0,5,6
 1036.8 1272 1036.8 1272 982.8 1272 c 1,7,-1
 982.8 1372 l 1,8,-1
 1090.8 1372 l 1,9,10
 1312.88 1281.94 1312.88 1281.94 1448.1 1083.5 c 0,11,12
 1557.9 923 1557.9 923 1557.9 703 c 0,13,14
 1557.9 387 1557.9 387 1355.85 193.5 c 128,-1,15
 1153.8 0 1153.8 0 820.8 0 c 1,16,-1
 640.8 0 l 2,17,18
 460.062 0 460.062 0 426.6 24 c 0,19,20
 317.7 102.108 317.7 102.108 317.7 337 c 2,21,-1
 317.7 1372 l 1,22,-1
 145.8 1372 l 1,23,-1
 145.8 1493 l 1,24,-1
 837 1493 l 1,25,-1
 837 1372 l 1,26,-1
 664.2 1372 l 1,27,-1
 664.2 373 l 2,28,29
 664.2 244.35 664.2 244.35 699.3 182 c 0,30,31
 733.641 121 733.641 121 820.8 121 c 1,0,1
EndSplineSet
EndChar
StartChar: uni01B3
Encoding: 435 435 435
Width: 1315
Flags: W
AnchorPoint: "above" 657.9 1472 basechar 0
Fore
1081.8 1372 m 2,0,1
 1146.78 1495 1146.78 1495 1301.4 1495 c 0,2,3
 1345.23 1495 1345.23 1495 1379.7 1485 c 0,4,5
 1440.9 1475 1440.9 1475 1506.6 1456 c 1,6,-1
 1506.6 1231 l 1,7,-1
 1404.9 1231 l 1,8,9
 1403.1 1311 1403.1 1311 1376.55 1346.5 c 128,-1,10
 1350 1382 1350 1382 1290.6 1382 c 0,11,12
 1223.74 1382 1223.74 1382 1198.8 1335 c 2,13,-1
 846 670 l 1,14,-1
 846 121 l 1,15,-1
 1026.9 121 l 1,16,-1
 1026.9 0 l 1,17,-1
 316.8 0 l 1,18,-1
 316.8 121 l 1,19,-1
 497.7 121 l 1,20,-1
 497.7 618 l 1,21,-1
 98.0996 1372 l 1,22,-1
 -16.2002 1372 l 1,23,-1
 -16.2002 1493 l 1,24,-1
 628.2 1493 l 1,25,-1
 628.2 1372 l 1,26,-1
 478.8 1372 l 1,27,-1
 781.2 803 l 1,28,-1
 1081.8 1372 l 2,0,1
EndSplineSet
EndChar
StartChar: uni01B4
Encoding: 436 436 436
Width: 1305
Flags: W
AnchorPoint: "above" 545.4 1092 basechar 0
Fore
999 932 m 2,0,-1
 575.1 -240 l 1,1,2
 531.9 -357 531.9 -357 470.7 -406 c 128,-1,3
 409.5 -455 409.5 -455 306 -455 c 0,4,5
 261.9 -455 261.9 -455 207.9 -444 c 128,-1,6
 153.9 -433 153.9 -433 90 -412 c 1,7,-1
 90 -190 l 1,8,-1
 191.7 -191 l 1,9,10
 194.4 -268 194.4 -268 224.55 -305 c 128,-1,11
 254.7 -342 254.7 -342 315 -342 c 0,12,13
 373.5 -342 373.5 -342 409.5 -306.5 c 128,-1,14
 445.5 -271 445.5 -271 481.5 -172 c 1,15,-1
 495.9 -135 l 1,16,-1
 79.2002 942 l 1,17,-1
 -24.2998 942 l 1,18,-1
 -24.2998 1063 l 1,19,-1
 527.4 1063 l 1,20,-1
 527.4 942 l 1,21,-1
 413.1 942 l 1,22,-1
 656.1 313 l 1,23,-1
 882.9 942 l 2,24,25
 937.359 1093.02 937.359 1093.02 1090.8 1092 c 0,26,27
 1118.7 1092 1118.7 1092 1179.9 1082 c 128,-1,28
 1241.1 1072 1241.1 1072 1306.8 1053 c 1,29,-1
 1306.8 828 l 1,30,-1
 1205.1 828 l 1,31,32
 1203.3 908 1203.3 908 1176.75 943.5 c 128,-1,33
 1150.2 979 1150.2 979 1090.8 979 c 0,34,35
 1017.53 983.243 1017.53 983.243 999 932 c 2,0,-1
EndSplineSet
EndChar
StartChar: uni01B5
Encoding: 437 437 437
Width: 1345
Flags: W
AnchorPoint: "above" 673.2 1465 basechar 0
Fore
68.4004 0 m 1,0,-1
 68.4004 141 l 1,1,-1
 410.4 659 l 1,2,-1
 210.6 659 l 1,3,-1
 210.6 851 l 1,4,-1
 537.3 851 l 1,5,-1
 870.3 1356 l 1,6,-1
 226.8 1356 l 1,7,-1
 226.8 1133 l 1,8,-1
 103.5 1133 l 1,9,-1
 103.5 1493 l 1,10,-1
 1269.9 1493 l 1,11,-1
 1269.9 1352 l 1,12,-1
 943.2 851 l 1,13,-1
 1161.9 851 l 1,14,-1
 1161.9 659 l 1,15,-1
 818.1 659 l 1,16,-1
 477 137 l 1,17,-1
 1155.6 137 l 1,18,-1
 1155.6 346 l 1,19,-1
 1278.9 346 l 1,20,-1
 1278.9 0 l 1,21,-1
 68.4004 0 l 1,0,-1
EndSplineSet
EndChar
StartChar: uni01B6
Encoding: 438 438 438
Width: 1046
Flags: W
AnchorPoint: "above" 523.8 1092 basechar 0
Fore
878.4 600 m 1,0,-1
 878.4 479 l 1,1,-1
 675 479 l 1,2,-1
 434.7 119 l 1,3,-1
 877.5 119 l 1,4,-1
 877.5 311 l 1,5,-1
 984.6 311 l 1,6,-1
 984.6 0 l 1,7,-1
 64.7998 0 l 1,8,-1
 64.7998 121 l 1,9,-1
 303.3 479 l 1,10,-1
 168.3 479 l 1,11,-1
 168.3 600 l 1,12,-1
 383.4 600 l 1,13,-1
 613.8 946 l 1,14,-1
 200.7 946 l 1,15,-1
 200.7 764 l 1,16,-1
 93.5996 764 l 1,17,-1
 93.5996 1063 l 1,18,-1
 984.6 1063 l 1,19,-1
 984.6 944 l 1,20,-1
 755.1 600 l 1,21,-1
 878.4 600 l 1,0,-1
EndSplineSet
EndChar
StartChar: uni01B7
Encoding: 439 439 439
Width: 1046
Flags: W
Fore
657.225 839.25 m 1,0,1
 855.49 818.318 855.49 818.318 955.8 734 c 0,2,3
 1099.8 612.849 1099.8 612.849 1099.8 403 c 24,4,5
 1099.8 194 1099.8 194 950.85 82.5 c 128,-1,6
 801.9 -29 801.9 -29 519.3 -29 c 0,7,8
 413.1 -29 413.1 -29 300.15 -9 c 128,-1,9
 187.2 11 187.2 11 63.9004 51 c 1,10,-1
 63.9004 379 l 1,11,-1
 172.8 379 l 1,12,13
 182.7 237 182.7 237 252.9 162.5 c 128,-1,14
 323.1 88 323.1 88 447.3 88 c 0,15,16
 584.1 88 584.1 88 658.8 172.5 c 128,-1,17
 733.5 257 733.5 257 733.5 412 c 0,18,19
 733.5 574 733.5 574 655.65 662 c 128,-1,20
 577.8 750 577.8 750 434.7 750 c 2,21,-1
 375.3 750 l 1,22,-1
 375.3 974.5 l 1,23,-1
 613.8 1356 l 1,24,-1
 226.8 1356 l 1,25,-1
 226.8 1133 l 1,26,-1
 103.5 1133 l 1,27,-1
 103.5 1493 l 1,28,-1
 984.6 1493 l 1,29,-1
 984.6 1356 l 1,30,-1
 657.225 839.25 l 1,0,1
EndSplineSet
EndChar
StartChar: uni01B8
Encoding: 440 440 440
Width: 1046
Flags: W
Fore
506.475 839.25 m 1,0,-1
 179.1 1356 l 1,1,-1
 179.1 1493 l 1,2,-1
 1060.2 1493 l 1,3,-1
 1060.2 1133 l 1,4,-1
 936.9 1133 l 1,5,-1
 936.9 1356 l 1,6,-1
 549.9 1356 l 1,7,-1
 788.4 974.5 l 1,8,-1
 788.4 750 l 1,9,-1
 729 750 l 2,10,11
 585.9 750 585.9 750 508.05 662 c 128,-1,12
 430.2 574 430.2 574 430.2 412 c 0,13,14
 430.2 257 430.2 257 504.9 172.5 c 128,-1,15
 579.6 88 579.6 88 716.4 88 c 0,16,17
 840.6 88 840.6 88 910.8 162.5 c 128,-1,18
 981 237 981 237 990.9 379 c 1,19,-1
 1099.8 379 l 1,20,-1
 1099.8 51 l 1,21,22
 976.5 11 976.5 11 863.55 -9 c 128,-1,23
 750.6 -29 750.6 -29 644.4 -29 c 0,24,25
 361.8 -29 361.8 -29 212.85 82.5 c 128,-1,26
 63.9004 194 63.9004 194 63.9004 403 c 24,27,28
 63.9004 612.849 63.9004 612.849 207.9 734 c 0,29,30
 308.21 818.318 308.21 818.318 506.475 839.25 c 1,0,-1
EndSplineSet
EndChar
StartChar: uni01B9
Encoding: 441 441 441
Width: 1046
Flags: W
Fore
506.475 452.25 m 1,0,1
 179.1 944 l 1,30,-1
 179.1 1063 l 1,29,-1
 1070.1 1063 l 1,28,-1
 1070.1 764 l 1,27,-1
 963 764 l 1,26,-1
 963 946 l 1,25,-1
 549.9 946 l 1,24,-1
 788.4 587.5 l 1,23,-1
 788.4 363 l 1,22,-1
 729 363 l 2,21,-1
 585.9 363 585.9 363 508.05 275 c 128,-1,20
 430.2 187 430.2 187 430.2 25 c 0,18,19
 430.2 -130 430.2 -130 504.9 -214.5 c 128,-1,17
 579.6 -299 579.6 -299 716.4 -299 c 0,15,16
 840.6 -299 840.6 -299 910.8 -224.5 c 128,-1,14
 981 -150 981 -150 990.9 -8 c 1,12,13
 1099.8 -8 l 1,11,-1
 1099.8 -336 l 1,10,-1
 976.5 -376 976.5 -376 863.55 -396 c 128,-1,9
 750.6 -416 750.6 -416 644.4 -416 c 0,7,8
 361.8 -416 361.8 -416 212.85 -304.5 c 128,-1,6
 63.9004 -193 63.9004 -193 63.9004 16 c 24,4,5
 63.9004 225.849 63.9004 225.849 207.9 347 c 0,2,3
 308.21 431.318 308.21 431.318 506.475 452.25 c 1,0,1
EndSplineSet
EndChar
StartChar: uni01BB
Encoding: 443 443 443
Width: 1282
Flags: W
Fore
243 1124 m 1,0,-1
 135 1124 l 1,1,-1
 135 1446 l 1,2,3
 244.8 1483 244.8 1483 352.8 1502 c 0,4,5
 459.9 1520 459.9 1520 569.7 1520 c 0,6,7
 826.2 1520 826.2 1520 970.2 1404 c 0,8,9
 1113.3 1287 1113.3 1287 1113.3 1079 c 0,10,11
 1113.3 954 1113.3 954 1056.6 851 c 1,12,-1
 1161.9 851 l 1,13,-1
 1161.9 659 l 1,14,-1
 889.2 659 l 1,15,16
 822.6 602 822.6 602 731.7 535 c 2,17,-1
 357.3 262 l 1,18,-1
 993.6 262 l 1,19,-1
 993.6 438 l 1,20,-1
 1116.9 438 l 1,21,-1
 1116.9 0 l 1,22,-1
 123.3 0 l 1,23,-1
 123.3 244 l 1,24,-1
 322.2 397 l 2,25,26
 515.7 546 515.7 546 610.2 659 c 1,27,-1
 210.6 659 l 1,28,-1
 210.6 851 l 1,29,-1
 717.3 851 l 1,30,31
 746.1 942 746.1 942 746.1 1049 c 0,32,33
 746.1 1222 746.1 1222 682.2 1312 c 0,34,35
 617.4 1403 617.4 1403 494.1 1403 c 0,36,37
 387.9 1403 387.9 1403 324 1332 c 0,38,39
 260.1 1260 260.1 1260 243 1124 c 1,0,-1
EndSplineSet
EndChar
StartChar: uni01BC
Encoding: 444 444 444
Width: 1389
Flags: W
Fore
923.4 840 m 0,0,1
 1098.9 809 1098.9 809 1185.3 707 c 0,2,3
 1271.7 605 1271.7 605 1271.7 403 c 0,4,5
 1271.7 194 1271.7 194 1122.75 82.5 c 0,6,7
 973.8 -29 973.8 -29 691.2 -29 c 0,8,9
 585 -29 585 -29 472.05 -9 c 0,10,11
 359.1 11 359.1 11 235.8 51 c 1,12,-1
 235.8 379 l 1,13,-1
 344.7 379 l 1,14,15
 354.6 237 354.6 237 424.8 162.5 c 0,16,17
 495 88 495 88 619.2 88 c 0,18,19
 756 88 756 88 830.7 172.5 c 0,20,21
 905.4 257 905.4 257 905.4 412 c 0,22,23
 905.4 574 905.4 574 827.55 662 c 0,24,25
 749.7 750 749.7 750 606.6 750 c 2,26,-1
 258.3 750 l 1,27,-1
 258.3 1372 l 1,28,-1
 86.4004 1372 l 1,29,-1
 86.4004 1493 l 1,30,-1
 1284.3 1493 l 1,31,-1
 1284.3 1141 l 1,32,-1
 1161 1141 l 1,33,-1
 1161 1356 l 1,34,-1
 606.6 1356 l 1,35,-1
 606.6 869.953 l 1,36,37
 760.258 868.817 760.258 868.817 923.4 840 c 0,0,1
EndSplineSet
EndChar
StartChar: uni01BD
Encoding: 445 445 445
Width: 1046
Flags: W
Fore
657.225 472 m 0,0,1
 893.959 418.734 893.959 418.734 955.8 366.75 c 0,2,3
 1099.8 245.599 1099.8 245.599 1099.8 16 c 0,4,5
 1099.8 -193 1099.8 -193 950.85 -304.5 c 0,6,7
 801.9 -416 801.9 -416 519.3 -416 c 0,8,9
 413.1 -416 413.1 -416 300.15 -396 c 0,10,11
 187.2 -376 187.2 -376 63.9004 -336 c 1,12,-1
 63.9004 -8 l 1,13,-1
 172.8 -8 l 1,14,15
 182.7 -150 182.7 -150 252.9 -224.5 c 0,16,17
 323.1 -299 323.1 -299 447.3 -299 c 0,18,19
 584.1 -299 584.1 -299 658.8 -214.5 c 0,20,21
 733.5 -130 733.5 -130 733.5 25 c 0,22,23
 733.5 187 733.5 187 655.65 275 c 0,24,25
 577.8 363 577.8 363 434.7 363 c 2,26,-1
 198 363 l 1,27,-1
 198 942 l 1,28,-1
 62.0996 942 l 1,29,-1
 62.0996 1063 l 1,30,-1
 1055.7 1063 l 1,31,-1
 1055.7 774 l 1,32,-1
 946.8 774 l 1,33,-1
 946.8 942 l 1,34,-1
 516.6 942 l 1,35,-1
 516.6 483.149 l 1,36,37
 618.096 480.804 618.096 480.804 657.225 472 c 0,0,1
EndSplineSet
EndChar
StartChar: uni01BE
Encoding: 446 446 446
Width: 988
Flags: W
Fore
182.7 1393 m 1,0,-1
 501.3 1393 l 1,1,-1
 501.3 1049 l 1,2,-1
 634.5 1049 l 1,3,-1
 634.5 928 l 1,4,-1
 501.3 928 l 1,5,-1
 501.3 787 l 1,6,7
 525.78 778.699 525.78 778.699 605.7 702 c 0,8,9
 693.9 617.354 693.9 617.354 693.9 380 c 0,10,11
 693.9 156 693.9 156 605.7 63 c 128,-1,12
 517.5 -30 517.5 -30 283.5 -30 c 0,13,14
 218.703 -30 218.703 -30 159.3 -14 c 128,-1,15
 99.9072 2 99.9072 2 44.0996 36 c 1,16,-1
 41.4004 234 l 1,17,-1
 143.1 234 l 1,18,19
 146.7 152 146.7 152 171.45 118.5 c 0,20,21
 196.917 83 196.917 83 278.1 83 c 0,22,23
 369.518 83 369.518 83 392.4 130 c 0,24,25
 415.004 178.49 415.004 178.49 418.5 412 c 0,26,27
 421.651 622.566 421.651 622.566 380.7 666 c 0,28,29
 352.414 696 352.414 696 287.1 696 c 2,30,-1
 182.7 696 l 1,31,-1
 182.7 928 l 1,32,-1
 43.2002 928 l 1,33,-1
 43.2002 1049 l 1,34,-1
 182.7 1049 l 1,35,-1
 182.7 1393 l 1,0,-1
EndSplineSet
EndChar
StartChar: uni01C0
Encoding: 448 448 448
Width: 543
Flags: W
Fore
368.55 1493 m 1,0,-1
 368.55 0 l 1,1,-1
 175.05 0 l 1,2,-1
 175.05 1493 l 1,3,-1
 368.55 1493 l 1,0,-1
EndSplineSet
EndChar
StartChar: uni01C2
Encoding: 450 450 450
Width: 846
Flags: W
Fore
326.25 851 m 1,0,-1
 16.2002 851 l 1,1,-1
 16.2002 1013 l 1,2,-1
 326.25 1013 l 1,3,-1
 326.25 1493 l 1,4,-1
 519.75 1493 l 1,5,-1
 519.75 1013 l 1,6,-1
 829.8 1013 l 1,7,-1
 829.8 851 l 1,8,-1
 519.75 851 l 1,9,-1
 519.75 642 l 1,10,-1
 829.8 642 l 1,11,-1
 829.8 480 l 1,12,-1
 519.75 480 l 1,13,-1
 519.75 0 l 1,14,-1
 326.25 0 l 1,15,-1
 326.25 480 l 1,16,-1
 16.2002 480 l 1,17,-1
 16.2002 642 l 1,18,-1
 326.25 642 l 1,19,-1
 326.25 851 l 1,0,-1
EndSplineSet
EndChar
StartChar: uni01C3
Encoding: 451 451 451
Width: 543
Flags: W
Fore
368.55 216 m 1,0,-1
 368.55 0 l 1,1,-1
 175.05 0 l 1,2,-1
 175.05 216 l 1,3,-1
 368.55 216 l 1,0,-1
368.55 1493 m 1,4,-1
 368.55 432 l 1,5,-1
 175.05 432 l 1,6,-1
 175.05 1493 l 1,7,-1
 368.55 1493 l 1,4,-1
EndSplineSet
EndChar
StartChar: uni01E4
Encoding: 484 484 484
Width: 1650
Flags: W
Fore
1268.1 1024 m 1,0,1
 1227.6 1222 1227.6 1222 1133.1 1310.5 c 128,-1,2
 1038.6 1399 1038.6 1399 866.7 1399 c 0,3,4
 657.9 1399 657.9 1399 560.25 1241.5 c 128,-1,5
 462.6 1084 462.6 1084 462.6 745 c 0,6,7
 462.6 409 462.6 409 556.2 250.5 c 128,-1,8
 649.8 92 649.8 92 847.8 92 c 0,9,10
 923.4 92 923.4 92 988.2 111 c 128,-1,11
 1053 130 1053 130 1106.1 168 c 1,12,-1
 1106.1 311 l 1,13,-1
 774 311 l 1,14,-1
 774 431 l 1,15,-1
 1106.1 431 l 1,16,-1
 1106.1 578 l 1,17,-1
 944.1 578 l 1,18,-1
 944.1 698 l 1,19,-1
 1428.3 698 l 1,20,-1
 1428.3 431 l 1,21,-1
 1607.4 431 l 1,22,-1
 1607.4 311 l 1,23,-1
 1428.3 311 l 1,24,-1
 1428.3 125 l 1,25,26
 1277.1 47 1277.1 47 1126.35 9 c 128,-1,27
 975.6 -29 975.6 -29 818.1 -29 c 0,28,29
 472.5 -29 472.5 -29 274.95 178 c 128,-1,30
 77.4004 385 77.4004 385 77.4004 745 c 0,31,32
 77.4004 1106 77.4004 1106 274.95 1313 c 128,-1,33
 472.5 1520 472.5 1520 818.1 1520 c 0,34,35
 962.1 1520 962.1 1520 1101.6 1488 c 128,-1,36
 1241.1 1456 1241.1 1456 1382.4 1391 c 1,37,-1
 1382.4 1024 l 1,38,-1
 1268.1 1024 l 1,0,1
EndSplineSet
EndChar
StartChar: uni01E5
Encoding: 485 485 485
Width: 1288
Flags: W
Fore
791.095 475 m 1,0,-1
 604.8 475 l 1,1,-1
 604.8 596 l 1,2,-1
 791.054 596 l 1,3,4
 789.694 772.702 789.694 772.702 747.9 853 c 0,5,6
 704.7 936 704.7 936 610.2 936 c 0,7,8
 511.2 936 511.2 936 471.15 848.5 c 128,-1,9
 431.1 761 431.1 761 431.1 532 c 128,-1,10
 431.1 303 431.1 303 471.6 215 c 128,-1,11
 512.1 127 512.1 127 610.2 127 c 0,12,13
 704.7 127 704.7 127 747.9 210 c 0,14,15
 790.634 292.105 790.634 292.105 791.095 475 c 1,0,-1
1109.7 475 m 1,16,-1
 1109.7 14 l 2,17,18
 1109.7 -210 1109.7 -210 966.15 -332.5 c 128,-1,19
 822.6 -455 822.6 -455 560.7 -455 c 0,20,21
 465.3 -455 465.3 -455 367.2 -438.5 c 128,-1,22
 269.1 -422 269.1 -422 165.6 -389 c 1,23,-1
 165.6 -135 l 1,24,-1
 267.3 -135 l 1,25,26
 280.8 -240 280.8 -240 343.35 -291 c 128,-1,27
 405.9 -342 405.9 -342 522 -342 c 0,28,29
 669.6 -342 669.6 -342 730.35 -263.5 c 128,-1,30
 791.1 -185 791.1 -185 791.1 14 c 2,31,-1
 791.1 135 l 1,32,33
 750.6 52 750.6 52 681.75 11.5 c 128,-1,34
 612.9 -29 612.9 -29 512.1 -29 c 0,35,36
 308.7 -29 308.7 -29 192.15 121 c 128,-1,37
 75.5996 271 75.5996 271 75.5996 532 c 0,38,39
 75.5996 794 75.5996 794 192.15 943 c 128,-1,40
 308.7 1092 308.7 1092 512.1 1092 c 0,41,42
 612.9 1092 612.9 1092 681.75 1051.5 c 128,-1,43
 750.6 1011 750.6 1011 791.1 928 c 1,44,-1
 791.1 1063 l 1,45,-1
 1245.6 1063 l 1,46,-1
 1245.6 942 l 1,47,-1
 1109.7 942 l 1,48,-1
 1109.7 596 l 1,49,-1
 1245.6 596 l 1,50,-1
 1245.6 475 l 1,51,-1
 1109.7 475 l 1,16,-1
EndSplineSet
EndChar
StartChar: uni01F6
Encoding: 502 502 502
Width: 2250
Flags: W
AnchorPoint: "above" 873 1465 basechar 0
Fore
1485.9 625 m 2,0,1
 1485.9 296.316 1485.9 296.316 1530.9 234.5 c 0,2,3
 1612.07 123 1612.07 123 1748.7 123 c 0,4,5
 1907.1 123 1907.1 123 1984.95 235.5 c 128,-1,6
 2062.8 348 2062.8 348 2062.8 625 c 2,7,-1
 2062.8 943 l 1,8,-1
 1891.8 943 l 1,9,-1
 1891.8 1063 l 1,10,-1
 2187.9 1063 l 1,11,-1
 2187.9 604 l 2,12,13
 2187.9 258.504 2187.9 258.504 2054.7 116.5 c 0,14,15
 1918.22 -29 1918.22 -29 1634.4 -29 c 0,16,17
 1356.31 -29 1356.31 -29 1238.4 118 c 0,18,19
 1139.4 241.425 1139.4 241.425 1139.4 604 c 2,20,-1
 1139.4 733 l 1,21,-1
 604.8 733 l 1,22,-1
 604.8 121 l 1,23,-1
 777.6 121 l 1,24,-1
 777.6 0 l 1,25,-1
 86.4004 0 l 1,26,-1
 86.4004 121 l 1,27,-1
 258.3 121 l 1,28,-1
 258.3 1372 l 1,29,-1
 86.4004 1372 l 1,30,-1
 86.4004 1493 l 1,31,-1
 777.6 1493 l 1,32,-1
 777.6 1372 l 1,33,-1
 604.8 1372 l 1,34,-1
 604.8 870 l 1,35,-1
 1139.4 870 l 1,36,-1
 1139.4 1372 l 1,37,-1
 967.5 1372 l 1,38,-1
 967.5 1493 l 1,39,-1
 1658.7 1493 l 1,40,-1
 1658.7 1372 l 1,41,-1
 1485.9 1372 l 1,42,-1
 1485.9 625 l 2,0,1
EndSplineSet
EndChar
StartChar: Aringacute
Encoding: 506 506 506
Width: 1430
Flags: W
Fore
381.6 547 m 1,0,-1
 798.3 547 l 1,1,-1
 593.1 1118 l 1,2,-1
 381.6 547 l 1,0,-1
591.3 1430 m 128,-1,4
 591.3 1376 591.3 1376 626.4 1337.5 c 128,-1,5
 661.5 1299 661.5 1299 709.2 1299 c 0,6,7
 758.7 1299 758.7 1299 793.35 1337.5 c 128,-1,8
 828 1376 828 1376 828 1430 c 128,-1,9
 828 1484 828 1484 792.9 1522.5 c 128,-1,10
 757.8 1561 757.8 1561 709.2 1561 c 0,11,12
 661.5 1561 661.5 1561 626.4 1522.5 c 128,-1,3
 591.3 1484 591.3 1484 591.3 1430 c 128,-1,4
786.6 1900 m 1,13,-1
 1037.7 1900 l 1,14,-1
 821.838 1686.8 l 1,15,16
 858.94 1666.33 858.94 1666.33 890.55 1631 c 0,17,18
 965.7 1547 965.7 1547 965.7 1430 c 0,19,20
 965.7 1356 965.7 1356 938.25 1297 c 0,21,22
 925.641 1269.9 925.641 1269.9 907.434 1246.82 c 1,23,-1
 1323 121 l 1,24,-1
 1450.8 121 l 1,25,-1
 1450.8 0 l 1,26,-1
 821.7 0 l 1,27,-1
 821.7 121 l 1,28,-1
 953.1 121 l 1,29,-1
 842.4 426 l 1,30,-1
 337.5 426 l 1,31,-1
 225 121 l 1,32,-1
 385.2 121 l 1,33,-1
 385.2 0 l 1,34,-1
 -14.4004 0 l 1,35,-1
 -14.4004 121 l 1,36,-1
 95.4004 121 l 1,37,-1
 511.683 1246.59 l 1,38,39
 494.485 1268.75 494.485 1268.75 481.95 1295.5 c 0,40,41
 453.6 1356 453.6 1356 453.6 1430 c 0,42,43
 453.6 1547 453.6 1547 528.75 1631 c 0,44,45
 589.479 1698.88 589.479 1698.88 669.897 1711.91 c 1,46,-1
 786.6 1900 l 1,13,-1
EndSplineSet
EndChar
StartChar: aringacute
Encoding: 507 507 507
Width: 1194
Flags: W
Fore
1015.2 653 m 2,0,-1
 1015.2 121 l 1,1,-1
 1152 121 l 1,2,-1
 1152 0 l 1,3,-1
 696.6 0 l 1,4,-1
 696.6 135 l 1,5,6
 633.6 51 633.6 51 556.2 11 c 128,-1,7
 478.8 -29 478.8 -29 379.8 -29 c 0,8,9
 233.1 -29 233.1 -29 154.35 58.5 c 128,-1,10
 75.5996 146 75.5996 146 75.5996 309 c 0,11,12
 75.5996 488 75.5996 488 188.55 577 c 128,-1,13
 301.5 666 301.5 666 529.2 666 c 2,14,-1
 696.6 666 l 1,15,-1
 696.6 729 l 2,16,17
 696.6 858 696.6 858 641.7 919.5 c 128,-1,18
 586.8 981 586.8 981 471.6 981 c 0,19,20
 376.2 981 376.2 981 324.45 937.5 c 128,-1,21
 272.7 894 272.7 894 251.1 795 c 1,22,-1
 149.4 795 l 1,23,-1
 149.4 1024 l 1,24,25
 234.9 1058 234.9 1058 326.7 1075 c 128,-1,26
 418.5 1092 418.5 1092 520.2 1092 c 0,27,28
 776.7 1092 776.7 1092 895.95 986 c 128,-1,29
 1015.2 880 1015.2 880 1015.2 653 c 2,0,-1
696.6 334 m 2,30,-1
 696.6 547 l 1,31,-1
 576.9 547 l 2,32,33
 487.8 547 487.8 547 440.1 493 c 128,-1,34
 392.4 439 392.4 439 392.4 338 c 0,35,36
 392.4 237 392.4 237 427.05 187 c 128,-1,37
 461.7 137 461.7 137 532.8 137 c 0,38,39
 606.6 137 606.6 137 651.6 191 c 128,-1,40
 696.6 245 696.6 245 696.6 334 c 2,30,-1
617.4 1900 m 1,0,-1
 868.5 1900 l 1,1,-1
 652.746 1686.91 l 1,2,3
 689.787 1666.57 689.787 1666.57 721.35 1631.5 c 0,4,5
 796.5 1548 796.5 1548 796.5 1430 c 128,-1,7
 796.5 1312 796.5 1312 721.35 1228.5 c 128,-1,9
 646.2 1145 646.2 1145 540 1145 c 128,-1,11
 433.8 1145 433.8 1145 358.65 1228.5 c 128,-1,13
 283.5 1312 283.5 1312 283.5 1430 c 128,-1,15
 283.5 1548 283.5 1548 358.65 1631.5 c 0,16,17
 419.514 1699.13 419.514 1699.13 500.744 1711.98 c 1,18,-1
 617.4 1900 l 1,0,-1
422.1 1430 m 0,19,20
 422.1 1375 422.1 1375 456.75 1337 c 128,-1,22
 491.4 1299 491.4 1299 540 1299 c 0,23,24
 589.5 1299 589.5 1299 623.7 1337.5 c 128,-1,26
 657.9 1376 657.9 1376 657.9 1430 c 128,-1,28
 657.9 1484 657.9 1484 623.25 1522.5 c 128,-1,30
 588.6 1561 588.6 1561 540 1561 c 0,31,32
 490.5 1561 490.5 1561 456.3 1522.5 c 128,-1,34
 422.1 1484 422.1 1484 422.1 1430 c 0,19,20
EndSplineSet
EndChar
StartChar: uni0220
Encoding: 544 544 544
Width: 1607
Flags: W
Fore
63 0 m 1,0,-1
 63 121 l 1,1,-1
 234 121 l 1,2,-1
 234 1372 l 1,3,-1
 98.0996 1372 l 1,4,-1
 98.0996 1493 l 1,5,-1
 582.3 1493 l 1,6,-1
 582.3 1339 l 1,7,8
 655.2 1436 655.2 1436 747.9 1479 c 0,9,10
 839.7 1521 839.7 1521 983.7 1521 c 0,10,11
 1187.1 1521 1187.1 1521 1291.05 1380 c 128,-1,12
 1395 1239 1395 1239 1395 965 c 2,13,-1
 1395 -305 l 1,14,-1
 1566.9 -305 l 1,15,-1
 1566.9 -426 l 1,16,-1
 877.5 -426 l 1,17,-1
 877.5 -305 l 1,18,-1
 1048.5 -305 l 1,19,-1
 1048.5 927 l 2,20,21
 1048.5 1176 1048.5 1176 1003.95 1273 c 128,-1,22
 959.4 1370 959.4 1370 849.6 1370 c 0,23,24
 713.7 1370 713.7 1370 647.1 1243 c 0,25,26
 582.3 1121 582.3 1121 582.3 841 c 2,26,-1
 582.3 121 l 1,27,-1
 754.2 121 l 1,28,-1
 754.2 0 l 1,29,-1
 63 0 l 1,0,-1
EndSplineSet
EndChar
StartChar: uni0221
Encoding: 545 545 545
Width: 1457
Flags: W
Fore
724.29 42 m 1,0,1
 718.901 33.3525 718.901 33.3525 681.75 11.5 c 0,2,3
 612.9 -29 612.9 -29 512.1 -29 c 0,4,5
 308.7 -29 308.7 -29 192.15 121 c 128,-1,6
 75.5996 271 75.5996 271 75.5996 532 c 0,7,8
 75.5996 794 75.5996 794 192.15 943 c 128,-1,9
 308.7 1092 308.7 1092 512.1 1092 c 0,10,11
 612.9 1092 612.9 1092 681.75 1051.5 c 128,-1,12
 750.6 1011 750.6 1011 791.1 928 c 1,13,-1
 791.1 1436 l 1,14,-1
 654.3 1436 l 1,15,-1
 654.3 1556 l 1,16,-1
 1109.7 1556 l 1,17,-1
 1109.7 393 l 1,18,-1
 1189.58 395 l 0,19,20
 1231.2 395 1231.2 395 1288.76 383.623 c 0,21,22
 1425.01 357.512 1425.01 357.512 1425.01 195 c 0,23,24
 1425.01 -27.2578 1425.01 -27.2578 1111.81 -30 c 0,25,26
 986.049 -31.1006 986.049 -31.1006 894.461 52.5 c 0,27,28
 874.479 70.7393 874.479 70.7393 875.7 75 c 1,29,30
 853.002 52.3701 853.002 52.3701 837.005 24.4385 c 0,31,32
 811.805 -19.5615 811.805 -19.5615 801.005 -98.5615 c 1,33,-1
 702.005 -98.5615 l 1,34,35
 702.005 -21.1631 702.005 -21.1631 724.29 42 c 1,0,1
1109.7 303.314 m 1,36,-1
 1109.7 299 l 2,37,38
 1109.7 175 1109.7 175 1135.21 129 c 0,39,40
 1151.42 102.018 1151.42 102.018 1187.41 99 c 0,41,42
 1306.21 91.7588 1306.21 91.7588 1306.21 180 c 0,43,44
 1306.21 306.546 1306.21 306.546 1140.97 305 c 0,45,46
 1125.74 304.857 1125.74 304.857 1109.7 303.314 c 1,36,-1
791.1 479 m 2,47,-1
 791.1 584 l 2,48,49
 791.1 770 791.1 770 747.9 853 c 128,-1,50
 704.7 936 704.7 936 610.2 936 c 0,51,52
 511.2 936 511.2 936 471.15 848.5 c 128,-1,53
 431.1 761 431.1 761 431.1 532 c 128,-1,54
 431.1 303 431.1 303 471.6 215 c 128,-1,55
 512.1 127 512.1 127 610.2 127 c 0,56,57
 704.7 127 704.7 127 747.9 210 c 128,-1,58
 791.1 293 791.1 293 791.1 479 c 2,47,-1
EndSplineSet
EndChar
StartChar: uni0224
Encoding: 548 548 548
Width: 1345
Flags: W
Fore
68.4004 0 m 1,0,-1
 68.4004 141 l 1,1,-1
 870.3 1356 l 1,2,-1
 226.8 1356 l 1,3,-1
 226.8 1133 l 1,4,-1
 103.5 1133 l 1,5,-1
 103.5 1493 l 1,6,-1
 1269.9 1493 l 1,7,-1
 1269.9 1352 l 1,8,-1
 477 137 l 1,9,-1
 1022.4 137 l 1,10,-1
 1278.9 137 l 1,11,-1
 1278.9 111 l 2,12,13
 1278.9 -110 1278.9 -110 1195.65 -269.5 c 0,14,15
 1112.4 -429 1112.4 -429 939.6 -538 c 1,16,-1
 840.6 -397 l 1,17,18
 940.905 -306.982 940.905 -306.982 978.3 -209 c 0,19,20
 1016.61 -108.612 1016.61 -108.612 1021.64 0 c 1,21,-1
 68.4004 0 l 1,0,-1
EndSplineSet
EndChar
StartChar: uni0225
Encoding: 549 549 549
Width: 1046
Flags: W
Fore
64.7998 0 m 1,0,-1
 64.7998 121 l 1,1,-1
 613.8 946 l 1,2,-1
 200.7 946 l 1,3,-1
 200.7 764 l 1,4,-1
 93.5996 764 l 1,5,-1
 93.5996 1063 l 1,6,-1
 984.6 1063 l 1,7,-1
 984.6 944 l 1,8,-1
 434.7 119 l 1,9,-1
 728.1 119 l 1,10,-1
 984.6 119 l 1,11,-1
 984.6 111 l 2,12,13
 984.6 -110 984.6 -110 901.35 -269.5 c 0,14,15
 818.1 -429 818.1 -429 645.3 -538 c 1,16,-1
 546.3 -397 l 1,17,18
 639.9 -313 639.9 -313 684 -209 c 0,19,20
 722.747 -117.624 722.747 -117.624 727.45 0 c 1,21,-1
 64.7998 0 l 1,0,-1
EndSplineSet
EndChar
StartChar: uni0234
Encoding: 564 564 564
Width: 1056
Flags: W
Fore
575.1 222 m 1,0,1
 658.8 69 658.8 69 799.2 70 c 0,2,3
 923.4 69.1465 923.4 69.1465 923.4 176 c 0,4,5
 923.4 300.811 923.4 300.811 842.4 300 c 0,6,7
 612.614 298 612.614 298 575.1 222 c 1,0,1
517.5 524 m 2,8,9
 517.5 430.23 517.5 430.23 541.8 316 c 1,10,11
 674.751 389.811 674.751 389.811 837 390 c 0,12,13
 1024.2 390.206 1024.2 390.206 1024.2 172 c 0,14,15
 1024.2 -37.6289 1024.2 -37.6289 721.44 -41 c 0,16,17
 559.142 -42.8076 559.142 -42.8076 440.64 30 c 1,18,19
 430.92 -2 430.92 -2 432 -87 c 1,20,-1
 432 -231 l 1,21,-1
 308.88 -231 l 1,22,-1
 309.96 -87 l 1,23,24
 313.2 14 313.2 14 339.12 93 c 1,25,26
 318.601 111.999 318.601 111.999 318.6 112 c 0,27,28
 198.9 266 198.9 266 198.9 524 c 2,29,-1
 198.9 1436 l 1,30,-1
 63 1436 l 1,31,-1
 63 1556 l 1,32,-1
 517.5 1556 l 1,33,-1
 517.5 524 l 2,8,9
EndSplineSet
EndChar
StartChar: uni0235
Encoding: 565 565 565
Width: 1700
Flags: W
AnchorPoint: "above" 597.6 1092 basechar 0
Fore
1218.6 222 m 1,0,1
 1302.3 69 1302.3 69 1442.7 70 c 0,2,3
 1566.9 69.1465 1566.9 69.1465 1566.9 176 c 0,4,5
 1566.9 300.811 1566.9 300.811 1485.9 300 c 0,6,7
 1256.11 298 1256.11 298 1218.6 222 c 1,0,1
1161 524 m 2,8,9
 1161 430.23 1161 430.23 1185.3 316 c 1,10,11
 1318.25 389.811 1318.25 389.811 1480.5 390 c 0,12,13
 1667.7 390.206 1667.7 390.206 1667.7 172 c 0,14,15
 1667.7 -37.6289 1667.7 -37.6289 1364.94 -41 c 0,16,17
 1202.64 -42.8076 1202.64 -42.8076 1084.14 30 c 1,18,19
 1074.42 -2 1074.42 -2 1075.5 -87 c 1,20,-1
 1075.5 -231 l 1,21,-1
 952.38 -231 l 1,22,-1
 953.46 -87 l 1,23,24
 956.7 14 956.7 14 982.62 93 c 1,25,26
 962.1 111.999 962.1 111.999 962.1 112 c 0,27,28
 842.4 266 842.4 266 842.4 524 c 2,29,-1
 842.4 686 l 2,30,31
 842.4 821 842.4 821 811.35 873.5 c 128,-1,32
 780.3 926 780.3 926 703.8 926 c 0,33,34
 607.5 926 607.5 926 562.5 847.5 c 128,-1,35
 517.5 769 517.5 769 517.5 598 c 2,36,-1
 517.5 121 l 1,37,-1
 634.5 121 l 1,38,-1
 634.5 0 l 1,39,-1
 63 0 l 1,40,-1
 63 121 l 1,41,-1
 198.9 121 l 1,42,-1
 198.9 942 l 1,43,-1
 63 942 l 1,44,-1
 63 1063 l 1,45,-1
 517.5 1063 l 1,46,-1
 517.5 913 l 1,47,48
 575.1 1008 575.1 1008 648.9 1050 c 128,-1,49
 722.7 1092 722.7 1092 835.2 1092 c 0,50,51
 996.3 1092 996.3 1092 1078.65 986.5 c 128,-1,52
 1161 881 1161 881 1161 676 c 2,53,-1
 1161 524 l 2,8,9
EndSplineSet
EndChar
StartChar: uni0236
Encoding: 566 566 566
Width: 1040
Flags: W
Fore
558.9 222 m 1,0,1
 642.6 69 642.6 69 783 70 c 0,2,3
 907.2 69.1465 907.2 69.1465 907.2 176 c 0,4,5
 907.2 300.811 907.2 300.811 826.2 300 c 0,6,7
 596.415 298 596.415 298 558.9 222 c 1,0,1
182.7 520 m 2,8,-1
 182.7 942 l 1,9,-1
 44.0996 942 l 1,10,-1
 44.0996 1063 l 1,11,-1
 182.7 1063 l 1,12,-1
 182.7 1393 l 1,13,-1
 501.3 1393 l 1,14,-1
 501.3 1063 l 1,15,-1
 766.8 1063 l 1,16,-1
 766.8 942 l 1,17,-1
 501.3 942 l 1,18,-1
 501.3 520 l 2,19,20
 501.3 430.231 501.3 430.231 525.6 316 c 1,21,22
 658.551 389.811 658.551 389.811 820.8 390 c 0,23,24
 1008 390.206 1008 390.206 1008 172 c 0,25,26
 1008 -37.6289 1008 -37.6289 705.24 -41 c 0,27,28
 542.941 -42.8076 542.941 -42.8076 424.44 30 c 1,29,30
 414.72 -2 414.72 -2 415.8 -87 c 1,31,-1
 415.8 -231 l 1,32,-1
 292.68 -231 l 1,33,-1
 293.76 -87 l 1,34,35
 297 14 297 14 322.92 93 c 1,36,37
 302.401 111.999 302.401 111.999 302.4 112 c 0,38,39
 182.7 266 182.7 266 182.7 520 c 2,8,-1
EndSplineSet
EndChar
StartChar: dotlessj
Encoding: 567 567 567
Width: 666
Flags: W
AnchorPoint: "above" 287.1 1092 basechar 0
Fore
197.1 942 m 1,0,-1
 61.2002 942 l 1,1,-1
 61.2002 1063 l 1,2,-1
 515.7 1063 l 1,3,-1
 515.7 -125 l 2,4,5
 515.7 -288 515.7 -288 411.75 -371.5 c 128,-1,6
 307.8 -455 307.8 -455 105.3 -455 c 0,7,8
 51.2998 -455 51.2998 -455 -9.90039 -445 c 128,-1,9
 -71.0996 -435 -71.0996 -435 -136.8 -416 c 1,10,-1
 -136.8 -190 l 1,11,-1
 -35.0996 -191 l 1,12,13
 -33.2998 -271 -33.2998 -271 -6.75 -306.5 c 128,-1,14
 19.7998 -342 19.7998 -342 79.2002 -342 c 0,15,16
 144.9 -342 144.9 -342 171 -295 c 128,-1,17
 197.1 -248 197.1 -248 197.1 -125 c 2,18,-1
 197.1 942 l 1,0,-1
EndSplineSet
EndChar
